<svg width="16" height="16" viewBox="0 0 16 16" fill="none" xmlns="http://www.w3.org/2000/svg">
<g clip-path="url(#clip0_204_4212)">
<path d="M11.726 4.09449C11.7232 6.35304 9.88578 8.18523 7.62663 8.18151C5.36282 8.17824 3.53425 6.34838 3.53565 4.08796C3.53704 1.82894 5.37493 -0.00511495 7.63269 1.07175e-05C9.89743 0.00513638 11.7283 1.8364 11.726 4.09449Z" fill="#0062BD"/>
<path d="M8.72767 8.87328C7.17869 10.4711 6.8963 13.3093 8.66429 15.2617C8.60231 15.2617 8.55898 15.2617 8.51564 15.2617C6.11436 15.2617 3.71354 15.2627 1.31226 15.2613C0.660798 15.2608 0.154725 14.8638 0.0284401 14.2524C0.00187833 14.1234 0.00234433 13.9864 0.00374232 13.8536C0.00793629 13.4239 -0.0209555 12.9887 0.0354301 12.5656C0.145405 11.7409 0.639362 11.1342 1.26613 10.6286C2.0476 9.99813 2.95443 9.61417 3.90833 9.33459C5.3902 8.90031 6.90748 8.7759 8.44481 8.84765C8.53102 8.85092 8.61676 8.86257 8.72767 8.87328Z" fill="#0062BD"/>
<path d="M12.0971 15.9999C9.9419 16.0013 8.19162 14.2572 8.18556 12.1016C8.1795 9.94881 9.9475 8.18185 12.1027 8.18604C14.257 8.1907 16.0041 9.94461 15.9999 12.0983C15.9957 14.2609 14.257 15.9985 12.0971 15.9999ZM12.6507 13.0261C12.6507 12.7246 12.654 12.4226 12.6498 12.1212C12.6452 11.7875 12.4177 11.5461 12.1079 11.5368C11.797 11.5275 11.5407 11.7754 11.537 12.1128C11.53 12.7218 11.53 13.3308 11.537 13.9403C11.5407 14.2674 11.7877 14.5139 12.0915 14.5167C12.4056 14.5195 12.6456 14.2716 12.6503 13.9314C12.654 13.629 12.6507 13.3276 12.6507 13.0261ZM11.3515 10.4208C11.3511 10.8281 11.6889 11.1673 12.0948 11.1678C12.5002 11.1678 12.8409 10.8276 12.8413 10.4222C12.8418 10.0159 12.5035 9.67854 12.0957 9.67808C11.6861 9.67715 11.352 10.0112 11.3515 10.4208Z" fill="#0062BD"/>
</g>
<defs>
<clipPath id="clip0_204_4212">
<rect width="16" height="16" fill="white"/>
</clipPath>
</defs>
</svg>
