<svg width="85" height="85" viewBox="0 0 85 85" fill="none" xmlns="http://www.w3.org/2000/svg">
<path d="M59.1065 85C57.4637 84.6612 55.792 84.4221 54.1846 83.9637C45.1035 81.3707 38.2106 72.9806 37.3348 63.532C36.2862 52.2212 42.9197 42.0396 53.6902 38.4303C67.476 33.8111 82.5056 42.9896 84.6894 57.3584C84.7869 58.0072 84.8956 58.6538 84.9998 59.3026C84.9998 60.5183 84.9998 61.734 84.9998 62.9496C84.951 63.1866 84.8801 63.4213 84.8557 63.6604C83.7671 73.5585 76.7877 81.6741 67.1412 84.2007C65.7622 84.5616 64.3322 84.7387 62.9266 85C61.6517 85 60.3791 85 59.1065 85ZM64.6248 57.6109C64.6248 57.1813 64.6248 56.8846 64.6248 56.5878C64.6248 54.9027 64.6404 53.2198 64.6204 51.5347C64.5938 49.4001 63.0818 47.8501 61.0709 47.8633C59.0955 47.8766 57.6056 49.4156 57.5768 51.5059C57.5568 52.9408 57.5723 54.3779 57.5723 55.8128C57.5723 56.3819 57.5723 56.951 57.5723 57.602C57.1533 57.602 56.8562 57.602 56.5569 57.602C54.8165 57.6042 53.0739 57.5799 51.3335 57.6131C49.3226 57.6529 47.8127 59.2008 47.8238 61.1494C47.8349 63.0626 49.3314 64.5927 51.3024 64.6348C53.0717 64.6724 54.8409 64.6436 56.6101 64.6503C56.905 64.6503 57.1976 64.6746 57.5745 64.6901C57.5745 65.0643 57.5745 65.3611 57.5745 65.66C57.5768 67.4005 57.5524 69.1387 57.5856 70.8792C57.6255 72.8876 59.1775 74.4 61.1263 74.3867C63.0396 74.3734 64.5716 72.8765 64.616 70.9102C64.6537 69.1431 64.6248 67.3761 64.6315 65.6091C64.6315 65.3146 64.6559 65.0223 64.6736 64.648C65.0505 64.648 65.3476 64.648 65.6447 64.648C67.4139 64.6458 69.1832 64.668 70.9524 64.6325C72.4755 64.6015 73.7393 63.6361 74.1982 62.2366C74.9343 59.9979 73.3535 57.6861 70.979 57.6219C68.906 57.5688 66.8353 57.6109 64.6248 57.6109Z" fill="#0062BD"/>
<path d="M43.3994 35.4389C40.1204 37.9802 37.2889 40.8878 34.9737 44.4323C34.0011 42.8187 32.5588 42.5102 30.8883 42.5258C25.3339 42.5724 19.7773 42.5346 14.223 42.5502C12.6632 42.5546 11.52 43.2959 10.9063 44.7364C10.317 46.1214 10.5962 47.402 11.5909 48.5073C12.3863 49.3907 13.432 49.6548 14.5886 49.6526C20.1163 49.6415 25.6441 49.6482 31.1718 49.6482C31.4953 49.6482 31.821 49.6482 32.2508 49.6482C29.1225 58.0512 29.3773 66.2612 33.0263 74.4512C32.674 74.4512 32.4103 74.4512 32.1489 74.4512C24.7977 74.4512 17.4444 74.4534 10.0932 74.4512C4.22205 74.4489 0.00588636 70.2297 0.00367082 64.3524C-0.000760252 46.2656 -0.000760252 28.1833 0.00145528 10.0988C0.00145528 4.2215 4.21984 0.00221951 10.0888 0C23.4108 0 36.7328 0 50.0549 0.00221951C55.9305 0.00443902 60.1511 4.21041 60.1622 10.0921C60.1732 16.4887 60.1533 22.8853 60.1821 29.2842C60.1865 30.0166 59.9783 30.2208 59.2582 30.2386C56.2229 30.314 53.2962 30.9688 50.4492 32.0097C50.1922 32.103 49.933 32.1873 49.6206 32.2938C49.583 32.0297 49.5519 31.8189 49.5209 31.6058C49.2396 29.6105 47.8836 28.3897 45.8564 28.3808C41.6004 28.3631 37.3443 28.3742 33.0883 28.3742C26.8427 28.3742 20.5949 28.3653 14.3493 28.3786C12.1315 28.3831 10.5474 29.9656 10.6183 32.043C10.6803 33.8186 12.1094 35.3013 13.8818 35.4167C14.2407 35.4411 14.5996 35.4344 14.9585 35.4344C24.1353 35.4344 33.3121 35.4344 42.4866 35.4344C42.7923 35.4389 43.0959 35.4389 43.3994 35.4389ZM21.1576 21.2718C23.4485 21.2718 25.7393 21.2762 28.0324 21.2695C30.2347 21.2629 31.8276 19.7891 31.8432 17.7561C31.8587 15.7208 30.279 14.1827 28.0923 14.1738C23.5105 14.156 18.9266 14.1538 14.3448 14.1738C12.167 14.1827 10.5917 15.7407 10.6183 17.7783C10.6449 19.778 12.2268 21.2584 14.367 21.2695C16.6313 21.2784 18.8956 21.2718 21.1576 21.2718Z" fill="#939393"/>
</svg>
