<svg width="191" height="90" viewBox="0 0 191 90" fill="none" xmlns="http://www.w3.org/2000/svg">
<g clip-path="url(#clip0_148_4)">
<path d="M9.46947 61.0981C10.3887 60.7005 11.3303 60.5001 12.3004 60.5001C14.1867 60.5001 15.6404 61.1554 16.6551 62.4595C17.6729 63.7669 18.1787 65.615 18.1787 68.0133C18.1787 70.0682 17.832 72.0658 17.1449 73.9997C16.4547 75.9337 15.3064 77.5496 13.6968 78.8442C12.0873 80.1388 9.98795 80.7877 7.4019 80.7877C6.16772 80.7877 4.97171 80.6732 3.81069 80.441C2.64967 80.212 1.3805 79.843 0 79.3341L3.66437 53.3527L8.27346 52.8438L6.89614 62.7872C7.69136 62.0619 8.55019 61.4989 9.46947 61.0981ZM8.45477 64.6384C7.77724 65.0742 7.08699 65.6786 6.3872 66.4515L4.97171 76.7957C5.93869 77.1329 6.89614 77.3047 7.83768 77.3047C9.11957 77.3047 10.1852 76.8212 11.0313 75.8542C11.8774 74.8872 12.4945 73.688 12.8825 72.2598C13.2674 70.8316 13.4615 69.3938 13.4615 67.9434C13.4615 65.3064 12.5167 63.9864 10.6305 63.9864C9.85753 63.9864 9.13229 64.2027 8.45477 64.6384Z" fill="#296AB2"/>
<path d="M25.5202 76.1057C25.5202 76.4429 25.587 76.6847 25.7206 76.831C25.8542 76.9741 26.0641 77.0473 26.3568 77.0473C26.694 77.0473 27.0693 76.9614 27.4828 76.7928L28.1731 80.0946C27.1806 80.5526 26.1182 80.7848 24.9795 80.7848C23.6721 80.7848 22.6701 80.4445 21.9672 79.7669C21.2642 79.0894 20.9143 78.0874 20.9143 76.7546C20.9143 76.3666 20.9493 75.9562 21.0225 75.5205L24.1429 53.3498L28.752 52.8408L25.5584 75.6636L25.5202 76.1057Z" fill="#296AB2"/>
<path d="M41.6121 80.2408L41.7934 77.0853C40.8964 78.2686 39.9421 79.1847 38.9274 79.8241C37.9127 80.4634 36.7994 80.7847 35.5907 80.7847C34.0671 80.7847 32.906 80.368 32.1076 79.5346C31.3092 78.7012 30.9084 77.5338 30.9084 76.0325C30.9084 75.6221 30.9434 75.1864 31.0166 74.7283L32.9378 61.0474H37.5119L35.6957 74.1844C35.648 74.4516 35.6225 74.8142 35.6225 75.2754C35.6225 75.9529 35.7561 76.4301 36.0201 76.71C36.2873 76.9867 36.6976 77.1267 37.2543 77.1267C38.1004 77.1267 38.9052 76.7832 39.6686 76.0929C40.432 75.4027 41.1859 74.4897 41.9365 73.3542L43.6765 61.0505H48.2506L45.5659 80.2471H41.6121V80.2408Z" fill="#296AB2"/>
<path fill-rule="evenodd" clip-rule="evenodd" d="M63.1626 78.6917C63.1626 78.6917 64.5113 77.1649 65.4083 75.1005C65.4942 74.8969 65.4815 74.9605 65.4974 74.7442C65.6787 72.2282 69.6293 79.5919 71.6078 80.6734H64.6003L63.1626 78.6917Z" fill="white"/>
<path fill-rule="evenodd" clip-rule="evenodd" d="M65.3957 38.8258C65.577 45.0381 61.1842 48.6834 61.1842 48.6834C59.7178 46.11 58.754 43.8166 58.1815 41.7713C57.7202 40.1173 57.5135 38.5618 57.5039 37.105L53.3911 37.7475C54.094 39.3507 54.2626 40.9284 54.2467 42.1435C54.2308 43.4763 53.9954 44.3701 53.9954 44.3701L53.5406 44.7327C53.5406 44.7327 48.3462 44.9427 45.3275 41.5487L42.4139 42.926C43.1136 43.9884 43.6862 44.5737 43.6862 44.5737C38.46 44.5737 35.4255 42.4616 33.6951 39.7133L30.4474 40.4767C30.7432 41.1415 31.0231 41.8731 31.2808 42.6779C31.2808 42.6779 24.0984 45.0444 19.8996 40.8425L17.8225 43.1709C18.8118 43.9852 21.7413 45.7283 21.7413 45.7283C20.6344 46.9307 18.3664 47.0007 17.8416 47.1247L18.64 49.8698C20.1096 49.5549 23.1664 48.3048 23.9648 47.8659C23.9648 47.8659 26.6176 46.4949 29.824 46.1546C31.5766 45.9669 33.3706 46.1768 35.0978 46.4917C36.8632 46.813 38.5682 47.481 40.359 47.6432C42.0035 47.7927 43.6703 47.6273 45.2735 47.2488C45.2735 47.2488 52.8185 44.7359 58.929 51.3807L58.8431 51.5621C51.8356 63.2422 59.0244 72.5845 59.0244 72.5845C53.6328 79.7701 50.9386 80.6702 50.9386 80.6702H57.2272C72.1391 67.9118 64.7754 54.4376 64.7754 54.4376C62.8001 53.3593 62.8001 58.2101 62.8001 58.2101C62.8001 58.2101 65.2271 63.0609 61.9031 68.4525C60.7516 70.3197 56.8709 58.032 62.9814 51.3839C69.0919 44.7391 76.6369 47.252 76.6369 47.252C78.2401 47.6305 79.9068 47.7959 81.5482 47.6464C83.3422 47.4874 85.0471 46.8194 86.8125 46.4949C88.5366 46.18 90.3337 45.9701 92.0832 46.1578C95.2927 46.5013 97.9456 47.8691 97.9456 47.8691C98.6199 48.238 101.906 49.873 103.585 49.978L104.74 47.2488C104.295 47.1343 100.961 46.409 100.169 45.7315C100.169 45.7315 103.585 43.8898 105.316 41.7013L103.375 39.3761C98.1269 45.0444 90.6296 42.6811 90.6296 42.6811C90.919 41.7745 91.2371 40.9602 91.5775 40.2318L88.5811 39.093C86.9207 42.1403 83.8384 44.5769 78.2241 44.5769C78.2241 44.5769 79.5442 43.2345 80.6162 40.9188L77.677 39.9455C75.0783 45.0063 68.3698 44.7359 68.3698 44.7359C68.2966 42.4043 68.5797 40.5785 69.0728 39.1439L65.3957 38.8258Z" fill="white"/>
<path d="M90.5499 30.1548C90.5499 30.1548 95.0477 28.0555 92.2167 24.4515C92.2199 24.4515 87.6967 24.302 90.5499 30.1548Z" fill="#009FE3"/>
<path d="M78.7935 37.9353C78.7935 37.9353 74.143 33.8638 78.7744 30.5366C78.7776 30.5334 84.2391 31.9235 78.7935 37.9353Z" fill="#009FE3"/>
<path d="M104.304 37.5119C104.304 37.5119 106.874 29.9096 98.2509 28.2651C98.2477 28.2651 95.2545 36.2905 104.304 37.5119Z" fill="#2869B2"/>
<path d="M80.3999 27.7693C80.3999 27.7693 86.03 24.9319 82.3052 20.466C82.3052 20.4628 76.5542 20.4437 80.3999 27.7693Z" fill="#2869B2"/>
<path d="M76.3887 23.1729C76.3887 23.1729 73.087 20.4819 76.1947 18.0771C76.1947 18.0771 79.9958 18.901 76.3887 23.1729Z" fill="#009FE3"/>
<path d="M89.4176 24.3051C89.4176 24.3051 84.061 24.0188 85.4415 19.2634C85.4383 19.2634 89.917 17.2849 89.4176 24.3051Z" fill="#009FE3"/>
<path d="M48.8741 22.1229C48.8741 22.1229 43.2344 19.82 46.482 15.2332C46.482 15.2332 52.0199 14.7751 48.8741 22.1229Z" fill="#009FE3"/>
<path d="M27.9218 27.4034C27.9218 27.4034 24.0857 27.1966 25.0717 23.7899C25.0717 23.7899 28.278 22.3712 27.9218 27.4034Z" fill="#EC6315"/>
<path d="M95.4134 27.4034C95.4134 27.4034 99.2495 27.1966 98.2603 23.7899C98.2603 23.7899 95.0571 22.3712 95.4134 27.4034Z" fill="#EC6315"/>
<path d="M82.2541 40.6326C82.2541 40.6326 79.5727 33.6601 87.8334 33.6729C87.8334 33.6729 90.8616 41.1829 82.2541 40.6326Z" fill="#2869B2"/>
<path d="M74.8078 35.9023C74.8078 35.9023 77.7914 41.3226 71.0098 42.2386C71.0098 42.2418 67.6826 36.4176 74.8078 35.9023Z" fill="#2869B2"/>
<path d="M6.65109 35.4447C6.65109 35.4447 5.21652 30.8865 0.49292 33.1227C0.49292 33.1195 1.87024 38.034 6.65109 35.4447Z" fill="#EC6315"/>
<path d="M73.017 24.3306C73.017 24.3306 76.0197 18.9676 70.5677 17.3931C70.5709 17.3899 65.9141 20.5103 73.017 24.3306Z" fill="#EC6315"/>
<path d="M71.9767 32.9795C71.9767 32.9795 78.4562 31.879 76.1087 26.2838C76.1087 26.2838 70.3863 24.5057 71.9767 32.9795Z" fill="#EC6315"/>
<path d="M69.2794 31.7484C69.2794 31.7484 64.6354 30.2216 66.9797 26.3632C66.9797 26.3632 71.3852 25.6888 69.2794 31.7484Z" fill="#2869B2"/>
<path d="M65.0551 25.3293C65.0551 25.3293 63.5633 21.5472 67.8829 20.4976C67.8829 20.4976 69.6006 24.48 65.0551 25.3293Z" fill="#009FE3"/>
<path d="M64.909 31.3379C64.909 31.3379 69.4831 32.2699 67.7877 37.0857C67.7877 37.0826 62.8796 36.2396 64.909 31.3379Z" fill="#009FE3"/>
<path d="M58.6713 10.5288C58.6713 10.5288 61.1269 16.5407 54.2435 18.2997C54.2467 18.2997 51.4253 11.9697 58.6713 10.5288Z" fill="#009FE3"/>
<path d="M61.9349 44.2682C61.9349 44.2682 56.9695 40.2317 61.639 36.6118C61.639 36.6118 67.3455 37.846 61.9349 44.2682Z" fill="#2869B2"/>
<path d="M94.9903 30.46C94.9903 30.46 89.3284 31.4238 91.38 36.3128C91.3769 36.316 96.3772 37.8714 94.9903 30.46Z" fill="#EC6315"/>
<path d="M61.1555 26.1149C61.1555 26.1149 66.8684 20.2843 60.4334 16.3687C60.4334 16.3718 53.3814 18.7511 61.1555 26.1149Z" fill="#2869B2"/>
<path d="M98.1396 41.4817C98.1396 41.4817 98.0219 37.4165 93.6355 38.1545C93.6355 38.1545 93.6291 42.4964 98.1396 41.4817Z" fill="#009FE3"/>
<path d="M87.296 26.4744C87.296 26.4744 81.9585 26.15 82.4102 31.9805C82.4102 31.9805 88.0881 32.5022 87.296 26.4744Z" fill="#EC6315"/>
<path d="M54.0525 33.8986C54.0525 33.8986 59.9148 31.9742 56.9566 27.1043C56.9566 27.1043 51.3965 26.2486 54.0525 33.8986Z" fill="#009FE3"/>
<path d="M62.7013 28.0171C62.7013 28.0171 56.7594 29.2258 58.9638 35.4794C58.9638 35.4794 65.3382 34.3884 62.7013 28.0171Z" fill="#EC6315"/>
<path d="M68.5733 15.6501C68.5733 15.6501 66.7443 11.0124 72.0405 9.73047C72.0405 9.72729 74.1462 14.6131 68.5733 15.6501Z" fill="#EC6315"/>
<path d="M16.4579 46.3965C16.4579 46.3965 11.2476 46.8482 12.52 52.4274C12.5231 52.4242 18.0929 52.1157 16.4579 46.3965Z" fill="#2869B2"/>
<path d="M32.5213 29.8746C32.5213 29.8746 28.0267 27.7752 30.8545 24.1713C30.8545 24.1713 35.3777 24.0218 32.5213 29.8746Z" fill="#009FE3"/>
<path d="M42.5411 37.4198C42.5411 37.4198 48.6739 36.65 46.6985 31.2966C46.6985 31.2997 41.3928 29.3912 42.5411 37.4198Z" fill="#009FE3"/>
<path d="M17.0463 39.3221C17.0463 39.3221 14.9437 31.5735 23.6498 30.457C23.6498 30.457 26.1499 38.651 17.0463 39.3221Z" fill="#2869B2"/>
<path d="M38.8894 25.3232C38.8894 25.3232 33.6537 22.683 37.1177 18.5288C37.1177 18.5288 42.4679 18.5097 38.8894 25.3232Z" fill="#EC6315"/>
<path d="M41.8953 28.065C41.8953 28.065 47.4141 26.3155 44.6913 21.7223C44.6881 21.7191 39.4779 20.8603 41.8953 28.065Z" fill="#009FE3"/>
<path d="M40.0026 41.008C40.0026 41.008 44.2395 34.3727 35.7084 32.6455C35.7084 32.6455 30.9975 39.7611 40.0026 41.008Z" fill="#2869B2"/>
<path d="M48.1234 35.9023C48.1234 35.9023 45.1397 41.3226 51.9214 42.2386C51.9214 42.2418 55.2517 36.4176 48.1234 35.9023Z" fill="#009FE3"/>
<path d="M50.6172 31.7037C50.6172 31.7037 45.2002 30.7813 47.1628 26.1054C47.1628 26.1054 51.95 24.6167 50.6172 31.7037Z" fill="#2869B2"/>
<path d="M12.8572 45.0857C12.8572 45.0857 10.691 40.6993 15.087 39.6719C15.087 39.6719 18.6591 42.3438 12.8572 45.0857Z" fill="#009FE3"/>
<path d="M27.5685 29.9224C27.5685 29.9224 33.8126 30.988 31.551 36.3764C31.551 36.3764 26.0354 38.0909 27.5685 29.9224Z" fill="#EC6315"/>
<path d="M74.9827 17.1197C74.9827 17.1197 79.9894 14.7849 76.8403 10.7738C76.8435 10.7738 71.8113 10.6053 74.9827 17.1197Z" fill="#009FE3"/>
<path d="M52.599 26.4585C52.599 26.4585 57.9842 23.9456 54.5997 19.6323C54.5997 19.6323 49.1859 19.4478 52.599 26.4585Z" fill="#EC6315"/>
<path d="M24.1873 41.2781C24.1873 41.2781 24.3049 37.2129 28.6914 37.9509C28.6914 37.9509 28.7009 42.2928 24.1873 41.2781Z" fill="#009FE3"/>
<path d="M45.6807 11.7631C45.6807 11.7631 49.2846 8.36275 52.4273 12.7746C52.4273 12.7746 48.6993 16.5185 45.6807 11.7631Z" fill="#EC6315"/>
<path d="M35.5876 27.683C35.5876 27.683 39.1439 25.7076 40.747 29.8555C40.7502 29.8587 37.0222 32.0789 35.5876 27.683Z" fill="#EC6315"/>
<path d="M60.6594 9.90538C60.6594 9.90538 52.8472 6.25691 57.7616 0.000133116C57.7616 0.000133116 65.6152 -0.260699 60.6594 9.90538Z" fill="#009FE3"/>
<path d="M4.96864 43.8546C4.96864 43.8546 13.3375 43.2311 11.0282 35.8388C11.0282 35.8388 3.96985 32.8837 4.96864 43.8546Z" fill="#2869B2"/>
<path d="M38.5236 10.5129C38.5236 10.5129 44.5196 10.268 43.8898 16.8047C43.8898 16.8079 37.4962 17.2659 38.5236 10.5129Z" fill="#EC6315"/>
<path d="M43.5049 3.39062C43.5049 3.39062 48.324 4.21129 46.5777 8.37187C46.5777 8.37187 42.3216 9.6983 43.5049 3.39062Z" fill="#EC6315"/>
<path d="M49.0808 8.48361C49.0808 8.48361 47.8944 2.75803 54.2752 2.32861C54.2752 2.33179 55.7289 8.4009 49.0808 8.48361Z" fill="#2869B2"/>
<path d="M22.8354 19.3843C22.8354 19.3843 29.1654 20.1128 28.4942 14.2727C28.4942 14.2727 23.6498 11.0663 22.8354 19.3843Z" fill="#2869B2"/>
<path d="M34.0704 18.7957C34.0704 18.7957 30.1166 14.4856 35.3778 10.8467C35.381 10.8467 39.7388 15.3126 34.0704 18.7957Z" fill="#2869B2"/>
<path d="M10.4555 33.9495C10.4555 33.9495 10.7545 29.3595 6.56529 30.0497C6.56529 30.0465 4.42456 33.6537 10.4555 33.9495Z" fill="#009FE3"/>
<path d="M28.0044 22.4604C28.0044 22.4604 27.1201 18.1884 31.8787 17.8735C31.8787 17.8704 32.9665 22.3936 28.0044 22.4604Z" fill="#EC6315"/>
<path d="M85.1043 10.2614C85.1043 10.2614 79.1052 10.0165 79.7382 16.5532C79.735 16.5532 86.1286 17.0144 85.1043 10.2614Z" fill="#EC6315"/>
<path d="M79.347 3.05371C79.347 3.05371 74.528 3.87756 76.2711 8.03496C76.2711 8.03814 80.5303 9.36139 79.347 3.05371Z" fill="#009FE3"/>
<path d="M73.8536 7.81222C73.8536 7.81222 75.04 2.08664 68.656 1.65723C68.6592 1.65723 67.2024 7.72634 73.8536 7.81222Z" fill="#009FE3"/>
<path d="M66.4581 17.6348C66.4581 17.6348 68.6179 12.2019 62.4025 10.6782C62.4025 10.6782 59.9214 16.4038 66.4581 17.6348Z" fill="#009FE3"/>
<path d="M100.958 17.3931C100.958 17.3931 94.4751 19.7501 93.7117 13.4297C93.7149 13.4297 98.009 8.83973 100.958 17.3931Z" fill="#2869B2"/>
<path d="M67.1483 8.51509C67.1483 8.51509 68.6401 4.73303 64.3205 3.68652C64.3205 3.68652 62.6028 7.66898 67.1483 8.51509Z" fill="#EC6315"/>
<path d="M104.899 27.3204C104.899 27.3204 106.508 21.8048 100.293 20.8823C100.293 20.8823 98.3909 26.7129 104.899 27.3204Z" fill="#009FE3"/>
<path d="M108.328 23.0993C108.328 23.0993 109.82 19.3173 105.5 18.2676C105.5 18.2676 103.782 22.25 108.328 23.0993Z" fill="#EC6315"/>
<path d="M14.7178 34.2454C14.7178 34.2454 18.8752 29.6363 13.8653 26.8657C13.8653 26.8657 8.58192 28.8919 14.7178 34.2454Z" fill="#EC6315"/>
<path d="M17.7396 28.7203C17.7396 28.7203 16.1301 23.2047 22.3455 22.2822C22.3455 22.2854 24.2477 28.1128 17.7396 28.7203Z" fill="#009FE3"/>
<path d="M14.3107 23.9392C14.3107 23.9392 12.8157 20.1571 17.1385 19.1074C17.1385 19.1074 18.853 23.0899 14.3107 23.9392Z" fill="#009FE3"/>
<path d="M89.6275 18.7957C89.6275 18.7957 93.5813 14.4856 88.317 10.8467C88.317 10.8467 83.9592 15.3126 89.6275 18.7957Z" fill="#EC6315"/>
<path d="M94.4433 23.8375C94.4433 23.8375 97.7101 20.0554 93.1233 17.0845C93.1233 17.0845 89.513 21.0097 94.4433 23.8375Z" fill="#009FE3"/>
<path d="M40.8139 3.20312C40.8139 3.20312 35.9917 4.02697 37.738 8.18438C37.7412 8.18756 41.9972 9.5108 40.8139 3.20312Z" fill="#009FE3"/>
<path d="M20.2939 16.267C20.2939 16.267 21.1782 11.9919 16.4164 11.6738C16.4164 11.6738 15.3286 16.2034 20.2939 16.267Z" fill="#EC6315"/>
<path d="M101.976 16.267C101.976 16.267 101.091 11.9919 105.853 11.6738C105.853 11.6738 106.941 16.2034 101.976 16.267Z" fill="#009FE3"/>
<path d="M116.446 36.453C116.446 36.453 117.88 31.8948 122.604 34.131C122.607 34.131 121.226 39.0391 116.446 36.453Z" fill="#009FE3"/>
<path d="M106.47 46.3965C106.47 46.3965 111.681 46.8482 110.408 52.4274C110.408 52.4242 104.839 52.1157 106.47 46.3965Z" fill="#2869B2"/>
<path d="M109.231 45.0857C109.231 45.0857 111.397 40.6993 107.001 39.6719C107.005 39.6719 103.433 42.3438 109.231 45.0857Z" fill="#009FE3"/>
<path d="M118.131 44.8629C118.131 44.8629 109.759 44.2426 112.072 36.8471C112.072 36.8471 119.13 33.892 118.131 44.8629Z" fill="#2869B2"/>
<path d="M113.484 34.118C113.484 34.118 113.182 29.5248 117.371 30.2183C117.374 30.2183 119.515 33.8222 113.484 34.118Z" fill="#EC6315"/>
<path d="M108.322 35.0596C108.322 35.0596 103.286 29.4772 109.355 26.1182C109.355 26.1182 115.758 28.5738 108.322 35.0596Z" fill="#009FE3"/>
<path fill-rule="evenodd" clip-rule="evenodd" d="M53.7537 47.414C53.7537 47.414 51.7593 48.0438 52.0742 53.1905C52.3891 58.3372 52.4527 61.6739 52.1378 64.613C51.8229 67.5522 54.4885 65.1601 52.9139 68.3092C51.3394 71.4583 51.9692 72.7179 52.3891 73.2427C52.809 73.7676 52.8726 74.655 52.1378 74.3401C51.403 74.0252 51.2981 72.2408 51.2981 70.3513C51.2981 68.4619 52.9776 67.3072 51.9279 67.3072C50.8782 67.3072 51.7179 62.5836 51.508 60.0612C51.298 57.5419 50.4583 50.4009 51.403 48.9313C52.3477 47.4617 50.8782 45.8872 50.8782 45.8872L53.7537 47.414Z" fill="white"/>
<path fill-rule="evenodd" clip-rule="evenodd" d="M99.8063 44.9045C99.978 49.6249 100.042 48.922 99.7267 51.6162C99.4118 54.3104 102.077 52.1187 100.503 55.0038C98.9283 57.8888 99.5581 59.0435 99.978 59.527C100.398 60.0073 100.462 60.8216 99.7267 60.5322C98.9919 60.2427 98.887 58.6077 98.887 56.8741C98.887 55.1406 100.566 54.0845 99.5168 54.0845C98.4671 54.0845 98.9665 52.599 98.7566 50.2897C98.7566 50.2897 98.8615 49.0874 98.5466 47.4524C98.2317 45.8174 97.85 44.7137 98.1649 44.0393C98.4798 43.3681 99.7681 43.8421 99.8063 44.9045Z" fill="white"/>
<path fill-rule="evenodd" clip-rule="evenodd" d="M34.4617 41.9621C34.4617 41.9621 32.4673 42.3693 32.7822 45.6901C33.0971 49.011 33.1607 51.1612 32.8458 53.0602C32.5309 54.956 35.1965 53.4133 33.6219 55.4459C32.0474 57.4785 32.6772 58.2896 33.0971 58.6299C33.517 58.9671 33.5806 59.5397 32.8458 59.3393C32.111 59.1357 32.0061 57.9842 32.0061 56.7628C32.0061 55.5445 33.6856 54.8002 32.6359 54.8002C31.5862 54.8002 32.4259 51.7497 32.216 50.1243C32.0061 48.4988 31.1663 43.8929 32.111 42.9419C33.0557 41.994 31.5862 40.9761 31.5862 40.9761L34.4617 41.9621Z" fill="white"/>
<path fill-rule="evenodd" clip-rule="evenodd" d="M93.8486 44.6467C93.8486 44.6467 95.843 45.0539 95.5281 48.3747C95.2132 51.6955 95.1464 53.8458 95.4613 55.7448C95.7762 57.6406 93.1107 56.0979 94.6884 58.1304C96.2629 60.163 95.6331 60.9741 95.2132 61.3145C94.7933 61.6517 94.7265 62.2242 95.4613 62.0238C96.1961 61.8203 96.3011 60.6688 96.3011 59.4473C96.3011 58.2291 94.6216 57.4847 95.6713 57.4847C96.721 57.4847 95.8812 54.4343 96.0911 52.8088C96.3011 51.1834 97.1408 46.5775 96.1961 45.6264C95.2514 44.6785 96.721 43.6606 96.721 43.6606L93.8486 44.6467Z" fill="white"/>
<path fill-rule="evenodd" clip-rule="evenodd" d="M43.1709 45.6137C43.1709 45.6137 39.0422 45.7282 38.899 47.6431C38.7591 49.558 39.1789 53.5595 38.6891 55.185C38.1992 56.8104 37.9702 53.9062 38.0434 53.1524C38.1134 52.3985 38.1134 51.4697 37.9034 49.5548C37.6935 47.6399 37.5535 46.5393 38.8831 45.9C40.2127 45.2606 40.8425 44.6213 41.6823 44.6817C42.522 44.7453 43.1709 45.6137 43.1709 45.6137Z" fill="white"/>
<path fill-rule="evenodd" clip-rule="evenodd" d="M84.834 46.1134C84.834 46.1134 88.9659 46.2533 89.1059 48.5626C89.2459 50.872 88.826 55.7037 89.3158 57.6631C89.8057 59.6225 90.0347 56.1204 89.9647 55.2107C89.8947 54.3009 89.8947 53.1813 90.1047 50.872C90.3146 48.5626 90.4546 47.233 89.125 46.4633C87.7954 45.6935 87.1656 44.9237 86.3258 44.9937C85.4797 45.0605 84.834 46.1134 84.834 46.1134Z" fill="white"/>
<path fill-rule="evenodd" clip-rule="evenodd" d="M25.1894 45.9922C25.1894 45.9922 21.4233 46.6793 20.962 48.4192C20.2877 50.9671 22.4602 51.7846 21.0766 52.1535C19.6038 52.548 20.2972 52.3698 21.102 53.6613C22.0849 55.2422 21.0925 56.8962 20.962 57.2525C20.4054 58.7602 19.5179 57.6119 20.1827 56.893C20.8507 56.1742 20.5167 55.9579 20.5167 54.8096C20.5167 53.6613 17.7398 52.2235 19.2953 51.7241C20.8507 51.2215 20.0746 51.2215 20.0746 50.1464C20.0746 49.0681 19.7565 47.2232 21.2006 46.7206C22.6416 46.2117 25.1894 45.9922 25.1894 45.9922Z" fill="white"/>
<path fill-rule="evenodd" clip-rule="evenodd" d="M68.2329 45.4453C68.2329 45.4453 71.9991 46.5077 72.4603 49.2019C73.1346 53.1462 70.9621 54.4058 72.3458 54.9784C73.8185 55.5859 73.1283 55.3124 72.3203 57.31C71.3343 59.7529 72.3299 62.3135 72.4603 62.8638C73.0138 65.1986 73.9044 63.4204 73.2396 62.3071C72.5716 61.197 72.9056 60.863 72.9056 59.0849C72.9056 57.3068 75.6825 55.0865 74.1271 54.3104C72.5716 53.5311 73.3478 53.5311 73.3478 51.8675C73.3478 50.2007 73.6658 47.3443 72.2217 46.565C70.7808 45.7888 68.2329 45.4453 68.2329 45.4453Z" fill="white"/>
<path fill-rule="evenodd" clip-rule="evenodd" d="M48.0695 44.303C48.0695 44.303 46.5045 44.303 46.9307 46.7237C47.357 49.1443 47.0834 51.32 46.7971 52.7419C46.5109 54.1637 46.2723 55.5124 46.6922 56.4921C47.112 57.4719 46.3264 57.8217 45.9765 58.0317C45.6266 58.2416 45.3467 57.8217 45.6266 56.3522C45.916 54.8413 45.5375 54.0969 45.6966 52.0834C45.8429 50.2354 45.7538 51.285 45.9065 49.3543C46.0305 47.7797 46.1864 46.5551 45.6966 45.7153C45.2958 45.0251 45.0667 43.7559 45.5566 43.7559C46.0465 43.7496 48.0695 44.303 48.0695 44.303Z" fill="white"/>
<path d="M83.937 62.2275C84.8563 61.8299 85.7978 61.6295 86.768 61.6295C88.6542 61.6295 90.1079 62.2816 91.1226 63.5889C92.1373 64.8963 92.6462 66.7444 92.6462 69.1427C92.6462 71.1976 92.2995 73.1952 91.6124 75.1291C90.9222 77.0631 89.7739 78.679 88.1644 79.9736C86.5549 81.2682 84.4587 81.914 81.8694 81.914C80.6352 81.914 79.4392 81.7994 78.2782 81.5704C77.1172 81.3414 75.848 80.9724 74.4675 80.4635L78.1319 54.4821L82.741 53.9731L81.3637 63.9166C82.1589 63.1881 83.0177 62.6283 83.937 62.2275ZM82.9191 65.7647C82.2416 66.2004 81.5513 66.8048 80.8515 67.5777L79.4361 77.922C80.403 78.2591 81.3605 78.4309 82.302 78.4309C83.5839 78.4309 84.6495 77.9474 85.4956 76.9804C86.3417 76.0134 86.9588 74.8142 87.3469 73.3892C87.7318 71.961 87.9258 70.5232 87.9258 69.0728C87.9258 66.4358 86.9811 65.1158 85.0948 65.1158C84.3219 65.1126 83.5966 65.3289 82.9191 65.7647Z" fill="#EC6315"/>
<path d="M113.172 63.481L111.213 76.3635C111.162 76.7993 111.14 77.0665 111.14 77.1619C111.14 77.6199 111.232 77.973 111.413 78.2148C111.595 78.4565 111.881 78.6505 112.266 78.7937L110.959 81.841C108.684 81.5992 107.355 80.5336 106.967 78.6474C105.395 80.8231 103.496 81.9141 101.27 81.9141C99.2879 81.9141 97.7547 81.243 96.6796 79.9006C95.6013 78.5583 95.0637 76.7261 95.0637 74.4041C95.0637 72.4224 95.4327 70.4471 96.1707 68.4908C96.9086 66.5314 98.076 64.8996 99.6728 63.5923C101.27 62.2881 103.289 61.6329 105.732 61.6329C108.296 61.6265 110.777 62.2468 113.172 63.481ZM102.396 66.4742C101.524 67.4316 100.891 68.6276 100.49 70.0654C100.093 71.5031 99.8923 72.9504 99.8923 74.4009C99.8923 77.0633 100.799 78.3929 102.615 78.3929C103.388 78.3929 104.113 78.1352 104.791 77.6136C105.468 77.0951 106.159 76.338 106.858 75.3456L108.347 65.5485C107.889 65.3577 107.463 65.2241 107.078 65.1509C106.69 65.0778 106.232 65.0428 105.701 65.0428C104.368 65.0396 103.267 65.5167 102.396 66.4742Z" fill="#EC6315"/>
<path d="M131.825 62.8606C132.611 63.6845 133.002 64.8328 133.002 66.3087C133.002 66.8399 132.98 67.2534 132.929 67.5429L130.969 81.367H126.398L128.285 68.3381C128.332 68.0741 128.358 67.7337 128.358 67.3202C128.358 66.6204 128.202 66.1306 127.887 65.8507C127.572 65.5739 127.124 65.434 126.545 65.434C125.746 65.434 124.922 65.8888 124.076 66.7954C123.23 67.7019 122.406 68.8948 121.608 70.3707L120.084 81.367H115.513L118.198 62.1704H122.155L121.974 65.7266C122.845 64.4702 123.854 63.4714 125.005 62.7334C126.153 61.9954 127.321 61.6265 128.507 61.6265C129.929 61.6265 131.036 62.04 131.825 62.8606Z" fill="#EC6315"/>
<path d="M140.639 86.9746C138.848 88.2915 136.587 89.0613 133.854 89.2808L133.708 85.9058C135.547 85.6164 136.937 85.1329 137.881 84.4522C138.826 83.7747 139.672 82.7218 140.423 81.2968L138.899 81.3699L135.559 62.1733H140.35L142.274 78.1763L148.769 62.1733H153.56L144.889 81.4781C143.842 83.8224 142.427 85.6577 140.639 86.9746Z" fill="#EC6315"/>
<path d="M171.02 63.481L169.06 76.3635C169.01 76.7993 168.987 77.0665 168.987 77.1619C168.987 77.6199 169.08 77.973 169.261 78.2148C169.442 78.4565 169.728 78.6505 170.113 78.7937L168.806 81.841C166.532 81.5992 165.202 80.5336 164.814 78.6474C163.243 80.8231 161.344 81.9141 159.117 81.9141C157.135 81.9141 155.602 81.243 154.527 79.9006C153.449 78.5583 152.911 76.7261 152.911 74.4041C152.911 72.4224 153.28 70.4471 154.018 68.4908C154.756 66.5314 155.923 64.8996 157.52 63.5923C159.117 62.2881 161.137 61.6329 163.58 61.6329C166.147 61.6265 168.625 62.2468 171.02 63.481ZM160.243 66.4742C159.371 67.4316 158.738 68.6276 158.338 70.0654C157.94 71.5031 157.74 72.9504 157.74 74.4009C157.74 77.0633 158.646 78.3929 160.463 78.3929C161.235 78.3929 161.961 78.1352 162.638 77.6136C163.316 77.0951 164.006 76.338 164.706 75.3456L166.194 65.5485C165.736 65.3577 165.31 65.2241 164.925 65.1509C164.537 65.0778 164.079 65.0428 163.548 65.0428C162.215 65.0396 161.115 65.5167 160.243 66.4742Z" fill="#EC6315"/>
<path d="M189.672 62.8606C190.458 63.6845 190.849 64.8328 190.849 66.3087C190.849 66.8399 190.827 67.2534 190.776 67.5429L188.817 81.367H184.246L186.132 68.3381C186.18 68.0741 186.205 67.7337 186.205 67.3202C186.205 66.6204 186.049 66.1306 185.734 65.8507C185.42 65.5739 184.971 65.434 184.392 65.434C183.594 65.434 182.77 65.8888 181.924 66.7954C181.078 67.7019 180.254 68.8948 179.455 70.3707L177.932 81.367H173.361L176.045 62.1704H180.003L179.821 65.7266C180.693 64.4702 181.701 63.4714 182.853 62.7334C184.001 61.9954 185.168 61.6265 186.355 61.6265C187.78 61.6265 188.887 62.04 189.672 62.8606Z" fill="#EC6315"/>
</g>
<defs>
<clipPath id="clip0_148_4">
<rect width="190.852" height="89.2808" fill="white"/>
</clipPath>
</defs>
</svg>
