<svg width="19" height="17" viewBox="0 0 19 17" fill="none" xmlns="http://www.w3.org/2000/svg">
<path d="M3.72361 5.13642C4.02996 5.59683 4.31298 6.00073 4.57326 6.41906C4.96937 7.05618 4.669 7.873 3.96355 8.06835C3.45017 8.21019 3.02115 8.0437 2.69027 7.63018C1.92797 6.67812 1.16867 5.72245 0.408169 4.76858C0.314827 4.65138 0.217895 4.53718 0.130536 4.41576C-0.0387961 4.18135 -0.0483697 3.93613 0.131134 3.70893C1.00412 2.6048 1.87532 1.49947 2.76446 0.409163C3.15398 -0.0680711 3.84747 -0.128176 4.31957 0.230651C4.79286 0.59068 4.888 1.22479 4.54095 1.75852C4.28486 2.15221 4.01979 2.53989 3.7278 2.97685C3.85644 2.97685 3.94081 2.97685 4.02578 2.97685C6.63218 2.97685 9.23858 2.97865 11.845 2.97625C13.7669 2.97505 15.4686 3.5785 16.8364 4.94409C18.7822 6.88668 19.4488 9.2446 18.7008 11.8934C17.9577 14.5242 16.168 16.1579 13.5215 16.8124C13.0548 16.9278 12.563 16.9669 12.0807 16.9837C11.2903 17.0114 10.4975 16.9963 9.70649 16.9921C9.25892 16.9897 8.90889 16.7974 8.70605 16.3905C8.51697 16.0118 8.54749 15.6314 8.79161 15.284C9.00343 14.9828 9.302 14.8338 9.67298 14.8338C10.4425 14.8344 11.2113 14.8398 11.9808 14.8326C14.3263 14.8097 16.2428 13.2476 16.7353 10.9636C17.3444 8.13927 15.2496 5.3504 12.3745 5.16046C12.1513 5.14544 11.927 5.13763 11.7032 5.13763C9.14883 5.13582 6.59508 5.13642 4.04074 5.13642C3.95397 5.13642 3.86662 5.13642 3.72361 5.13642Z" fill="black"/>
</svg>
