<svg width="9" height="11" viewBox="0 0 9 11" fill="none" xmlns="http://www.w3.org/2000/svg">
<path d="M4.85298 0.000261572C5.08403 0.0871035 5.17284 0.256602 5.15738 0.497772C5.14743 0.653407 5.15555 0.810089 5.15555 0.979588C5.19825 0.979588 5.23257 0.979588 5.26715 0.979588C5.63652 0.979588 6.00616 0.978803 6.37553 0.979849C7.24972 0.982203 7.94262 1.64163 7.95624 2.51528C7.97144 3.47472 7.96174 4.43443 7.95939 5.39388C7.95886 5.62851 7.78858 5.79722 7.56879 5.79696C7.34298 5.7967 7.17741 5.62223 7.17689 5.37374C7.17532 4.45013 7.17479 3.52652 7.17715 2.60264C7.17768 2.37769 7.11978 2.17785 6.96339 2.01149C6.82795 1.86736 6.66029 1.77346 6.4646 1.76875C6.0334 1.75855 5.60194 1.76561 5.1545 1.76561C5.18698 2.2286 5.05338 2.62462 4.66986 2.9079C4.44352 3.07504 4.18575 3.15116 3.90518 3.13076C3.56252 3.10591 3.2796 2.95812 3.06164 2.69105C2.84316 2.4232 2.78265 2.10879 2.80491 1.76273C2.75802 1.76273 2.72292 1.76273 2.68808 1.76273C2.33494 1.76273 1.98155 1.7732 1.62894 1.76012C1.17286 1.74312 0.777549 2.09127 0.782002 2.60735C0.793005 3.8867 0.78567 5.16605 0.78567 6.44566C0.78567 7.09515 0.79641 7.74489 0.782264 8.39411C0.770999 8.91307 1.17129 9.25181 1.63418 9.24762C2.88953 9.23585 4.14514 9.24344 5.40049 9.2437C5.63285 9.2437 5.8013 9.38678 5.81964 9.59682C5.83981 9.82858 5.67189 10.018 5.43847 10.0266C5.41883 10.0274 5.39918 10.0268 5.37953 10.0268C4.12078 10.0268 2.86202 10.0274 1.60327 10.0266C0.791695 10.0263 0.15459 9.49115 0.018105 8.69387C0.00291088 8.60442 0.00107711 8.51182 0.00107711 8.42079C0.000291205 6.47548 -0.000756664 4.53017 0.00081514 2.58512C0.00133908 1.79098 0.509032 1.16269 1.27188 1.00915C1.37352 0.988743 1.47936 0.98168 1.58336 0.980634C1.94959 0.977234 2.31556 0.979326 2.68179 0.979326C2.71716 0.979326 2.75252 0.979326 2.80151 0.979326C2.80151 0.786809 2.80177 0.602139 2.80151 0.417469C2.80125 0.253987 2.86674 0.127124 3.01161 0.0457751C3.04226 0.0285114 3.07526 0.0151712 3.10696 0C3.68905 0.000261572 4.27115 0.000261572 4.85298 0.000261572ZM3.59317 0.789163C3.59055 0.808258 3.58715 0.820813 3.58715 0.833369C3.58689 1.2048 3.58584 1.5765 3.58794 1.94793C3.5882 1.9958 3.5971 2.04602 3.61282 2.09127C3.67307 2.26417 3.8499 2.37115 4.02883 2.34761C4.20985 2.32355 4.35838 2.17837 4.36545 1.99527C4.37489 1.75123 4.37017 1.50666 4.37096 1.26209C4.37148 1.10619 4.37096 0.950553 4.37096 0.789163C4.10846 0.789163 3.85488 0.789163 3.59317 0.789163Z" fill="#0062BD"/>
<path d="M8.99936 8.9157C8.97604 9.3507 8.75442 9.72841 8.28733 9.92694C7.82679 10.1229 7.38302 10.0541 7.02465 9.70748C6.28799 8.9947 5.5702 8.26256 4.84848 7.53486C4.79635 7.48229 4.75941 7.4046 4.73872 7.33188C4.59464 6.82783 4.45763 6.32169 4.31669 5.8166C4.27294 5.65965 4.29285 5.51814 4.41205 5.40148C4.53072 5.28508 4.6727 5.26494 4.8291 5.31255C5.325 5.464 5.82222 5.61126 6.31655 5.7669C6.39409 5.79122 6.47216 5.83961 6.53005 5.8969C7.2392 6.60053 7.94468 7.30782 8.65042 8.01485C8.88016 8.24529 8.99543 8.52491 8.99936 8.9157ZM7.47366 7.92618C7.44825 7.90734 7.41891 7.89086 7.39586 7.86811C7.02805 7.50138 6.65318 7.1412 6.29743 6.76323C6.11379 6.56835 5.91312 6.43077 5.64906 6.37898C5.52095 6.35387 5.39731 6.30521 5.25453 6.26179C5.32448 6.51369 5.3863 6.74596 5.45468 6.97641C5.46961 7.02663 5.49973 7.0779 5.53641 7.1153C5.96866 7.55161 6.40378 7.98477 6.83708 8.42029C6.86197 8.4454 6.87637 8.48097 6.89235 8.50661C7.09485 8.30441 7.27456 8.12497 7.47366 7.92618ZM7.48571 9.06323C7.5905 9.19323 7.72541 9.27301 7.90669 9.23299C8.0644 9.1982 8.16866 9.09802 8.20403 8.94134C8.24515 8.75928 8.1718 8.61725 8.03663 8.51524C7.85168 8.69912 7.66987 8.88013 7.48571 9.06323Z" fill="#FF4A00"/>
</svg>
