<svg width="231" height="189" viewBox="0 0 231 189" fill="none" xmlns="http://www.w3.org/2000/svg">
<g clip-path="url(#clip0_148_1501)">
<path d="M137.823 152.15C139.735 148.262 142.826 145.044 146.239 142.431C148.992 140.325 152.106 138.273 155.365 137.061C158.258 135.986 158.9 138.512 161.233 139.376C162.724 139.927 164.379 139.082 165.554 138.011C166.684 136.976 167.62 135.674 168.971 134.896C169.966 134.322 171.453 134.037 172.501 134.652C173.799 135.416 173.577 137.287 175.331 137.5C176.149 137.599 176.963 137.306 177.7 136.944C179.44 136.09 181.162 135.303 183.024 134.756C184.71 134.263 186.894 134.096 187.865 135.561C188.801 136.962 187.911 138.869 186.79 140.122C184.082 143.146 180.086 144.777 176.063 145.311C174.965 145.455 173.839 145.532 172.827 145.98C171.814 146.427 170.919 147.345 170.879 148.452C170.856 149.049 171.082 149.628 171.087 150.224C171.109 151.879 169.477 153.113 167.864 153.483C163.714 154.432 161.016 150.789 157.115 150.229C152.694 149.596 145.882 150.287 142.813 154.008" fill="#B0EEFF"/>
<path opacity="0.5" d="M145.114 150.333C149.39 146.346 155.062 143.702 160.993 142.933C164.69 142.454 168.438 142.685 172.149 142.35C175.86 142.016 179.707 141.012 182.382 138.54" stroke="white" stroke-width="0.891" stroke-miterlimit="10" stroke-linecap="round" stroke-linejoin="round"/>
<path d="M164.487 133.883C166.697 132.604 169.07 130.828 168.442 128.12C168.239 127.23 167.583 126.421 167.692 125.517C167.764 124.92 168.162 124.423 168.456 123.894C169.147 122.642 169.242 121.078 168.709 119.749C168.139 118.32 166.932 117.249 166.178 115.907C165.563 114.813 165.26 113.543 165.319 112.291C162.986 112.535 160.97 114.008 158.71 114.646C156.984 115.134 155.139 115.125 153.431 115.681C150.321 116.702 147.979 119.735 147.78 123.003C146.284 122.886 144.747 123.564 143.821 124.744C142.84 126 142.374 127.704 142.623 129.282C143.64 135.854 147.021 141.08 151.347 145.952C150.407 144.89 153.295 141.599 153.856 140.958C156.283 138.169 159.619 136.559 162.801 134.815C163.312 134.53 163.895 134.222 164.487 133.883Z" fill="#B0EEFF"/>
<g opacity="0.5">
<path d="M151.875 137.129C151.324 134.313 152.061 131.411 152.965 128.685C153.842 126.027 154.895 123.41 156.409 121.059C157.928 118.709 159.939 116.63 162.417 115.337" stroke="white" stroke-width="0.891" stroke-miterlimit="10" stroke-linecap="round" stroke-linejoin="round"/>
<path d="M152.621 117.99C152.563 120.553 153.046 123.586 153.932 125.991" stroke="white" stroke-width="0.891" stroke-miterlimit="10" stroke-linecap="round" stroke-linejoin="round"/>
<path d="M154.325 125.037C157.051 122.913 161.4 121.38 164.853 121.263" stroke="white" stroke-width="0.891" stroke-miterlimit="10" stroke-linecap="round" stroke-linejoin="round"/>
<path d="M147.288 126.163C150.908 127.315 151.523 132.428 151.749 133.874" stroke="white" stroke-width="0.891" stroke-miterlimit="10" stroke-linecap="round" stroke-linejoin="round"/>
<path d="M152.4 130.525C154.891 128.369 159.18 126.063 162.082 126.515" stroke="white" stroke-width="0.891" stroke-miterlimit="10" stroke-linecap="round" stroke-linejoin="round"/>
<path d="M151.871 136.862C153.851 134.222 159.262 130.995 162.164 131.447" stroke="white" stroke-width="0.891" stroke-miterlimit="10" stroke-linecap="round" stroke-linejoin="round"/>
<path d="M158.416 116.128C157.707 117.19 157.612 118.388 157.77 119.193" stroke="white" stroke-width="0.891" stroke-miterlimit="10" stroke-linecap="round" stroke-linejoin="round"/>
<path d="M158.461 118.402C159.632 117.66 161.264 117.362 163.063 117.642" stroke="white" stroke-width="0.891" stroke-miterlimit="10" stroke-linecap="round" stroke-linejoin="round"/>
</g>
<path d="M101.571 156.887C98.5828 148.696 90.9165 141.057 83.3678 136.695C81.5281 135.633 78.8386 134.828 77.9978 137.369C77.4554 139 75.5524 138.575 74.4676 137.821C73.1205 136.885 72.334 135.366 71.1904 134.223C70.2728 133.305 69.1021 132.6 67.8184 132.392C66.5346 132.184 65.1379 132.518 64.1977 133.418C63.4835 134.096 63.0541 135.054 62.2631 135.646C60.9386 136.636 59.0085 136.266 57.5982 135.402C56.1879 134.539 55.076 133.26 53.7109 132.324C52.3458 131.393 50.5015 130.841 49.046 131.628C47.1204 132.672 46.9441 135.457 47.7623 137.491C48.2686 138.747 49.0641 140.569 50.0269 141.55C51.3875 142.947 53.3718 143.878 55.2658 144.248C56.6625 144.524 58.1045 144.515 59.4922 144.845C59.9939 144.963 60.568 145.175 60.6674 145.754C60.8121 146.585 59.7815 147.096 59.1803 147.399C58.1406 147.923 57.11 149.067 57.5937 150.125C57.8966 150.789 58.6785 151.087 59.3973 151.209C61.5624 151.576 63.705 150.952 65.7572 150.319C67.0047 149.935 68.0986 149.153 69.3823 148.823C70.0468 148.651 71.7509 148.574 71.5701 149.7C71.5114 150.052 71.2627 150.342 70.9915 150.572C70.7203 150.803 70.4175 151.001 70.1915 151.277C69.2061 152.475 70.1824 153.881 71.4752 154.193C72.4696 154.432 73.5048 154.179 74.4992 153.944C80.9992 152.425 87.8157 151.838 94.3564 153.162C95.7486 153.442 97.2719 153.922 97.9725 155.16" fill="#B0EEFF"/>
<path opacity="0.5" d="M94.5644 151.725C89.782 147.3 83.4492 144.38 76.8317 143.552C72.7093 143.037 68.5326 143.308 64.3966 142.951C60.2607 142.594 55.9665 141.496 52.9741 138.752" stroke="white" stroke-width="0.891" stroke-miterlimit="10" stroke-linecap="round" stroke-linejoin="round"/>
<path opacity="0.25" d="M96.0468 152.362C96.0468 152.362 84.6786 144.8 81.4692 137.129C83.6389 137.717 85.0402 138.422 86.5635 139.66C88.2043 141.979 92.1143 145.541 94.7676 147.851C95.1473 149.116 95.5722 150.604 96.0468 152.362Z" fill="#FCCCB1"/>
<path d="M95.6174 149.763C95.1925 147.092 94.0127 144.443 93.5517 141.726C92.8104 137.373 92.6974 132.998 93.502 128.672C94.189 124.988 95.3281 121.128 94.0805 117.399C93.7506 116.409 93.1358 115.337 91.8521 115.346C91.3368 115.351 90.8486 115.563 90.478 115.893C89.5423 116.725 89.3705 117.918 89.2168 119.057L88.706 122.868C88.5388 124.106 86.6539 124.256 86.2742 123.049C86.2697 123.04 86.2697 123.031 86.2651 123.017C85.9578 122.005 86.012 120.933 86.0934 119.889C86.2697 117.616 86.5635 115.324 86.2154 113.059C85.795 110.32 84.2898 107.54 81.3607 106.509C80.3211 106.143 79.173 106.098 78.1243 106.396C75.1907 107.233 74.5985 109.999 75.1862 112.313C75.602 113.941 76.5196 115.419 77.3604 116.906C79.4125 120.531 78.3051 123.98 78.8204 128.035C79.9098 136.632 88.3128 144.936 95.6174 149.763Z" fill="#B0EEFF"/>
<path opacity="0.5" d="M79.5618 111.377C85.7047 118.809 83.4853 136.356 94.1891 145.826" stroke="white" stroke-width="0.891" stroke-miterlimit="10" stroke-linecap="round" stroke-linejoin="round"/>
<path opacity="0.5" d="M91.5493 120.106C92.2499 123.862 89.8361 128.08 89.2756 130.417C88.7151 132.753 88.4168 136.736 89.0225 139.082" stroke="white" stroke-width="0.891" stroke-miterlimit="10" stroke-linecap="round" stroke-linejoin="round"/>
<path d="M73.9116 156.81C73.6449 155.309 69.4501 145.944 64.5955 148.452C61.7116 149.944 62.2314 155.427 66.7335 159.567C65.8475 158.713 64.8305 157.741 63.6236 157.502C62.9727 157.371 62.1726 157.674 61.6844 158.121C61.2505 158.523 61.1239 159.156 61.1013 159.748C61.029 161.895 62.15 164.047 63.9491 165.222C62.9546 164.666 62.0913 163.97 60.9522 163.871C60.5815 163.839 59.9577 164.052 59.786 164.381C59.6006 164.739 59.6142 166.081 61.8065 167.085C52.8656 165.389 52.3457 169.2 55.5596 169.2C58.7735 169.2 81.9168 169.2 81.9168 169.2" fill="#E9F9FF"/>
<path d="M90.6635 149.374C90.2386 146.97 85.8088 131.854 78.0386 135.868C73.4235 138.255 74.2507 147.033 81.4649 153.664C80.0501 152.295 78.4138 150.744 76.4837 150.36C75.4395 150.152 74.1648 150.631 73.3828 151.354C72.6867 151.996 72.4833 153.009 72.4517 153.958C72.3341 157.398 74.1287 160.842 77.0125 162.718C75.4169 161.828 74.0337 160.711 72.2166 160.553C71.6245 160.503 70.621 160.842 70.3498 161.367C70.0515 161.941 70.0741 164.088 73.5817 165.692C59.2708 162.976 58.4346 169.078 63.5785 169.078C68.7225 169.078 97.5794 169.078 97.5794 169.078" fill="#D7F6FF"/>
<path d="M167.231 156.81C167.498 155.309 171.692 145.944 176.547 148.452C179.431 149.944 178.911 155.427 174.409 159.567C175.295 158.713 176.312 157.741 177.519 157.502C178.17 157.371 178.97 157.674 179.458 158.121C179.892 158.523 180.018 159.156 180.041 159.748C180.113 161.895 178.992 164.047 177.193 165.222C178.188 164.666 179.051 163.97 180.19 163.871C180.561 163.839 181.185 164.052 181.356 164.381C181.542 164.739 181.528 166.081 179.336 167.085C188.277 165.389 188.797 169.2 185.583 169.2C182.369 169.2 159.226 169.2 159.226 169.2" fill="#E9F9FF"/>
<path d="M150.474 149.374C150.899 146.97 155.329 131.854 163.099 135.868C167.714 138.255 166.887 147.033 159.673 153.664C161.088 152.295 162.724 150.744 164.654 150.36C165.698 150.152 166.973 150.631 167.755 151.354C168.451 151.996 168.655 153.009 168.686 153.958C168.804 157.398 167.009 160.842 164.125 162.718C165.721 161.828 167.104 160.711 168.921 160.553C169.514 160.503 170.517 160.842 170.788 161.367C171.087 161.941 171.064 164.088 167.556 165.692C181.867 162.976 182.703 169.078 177.559 169.078C172.415 169.078 143.559 169.078 143.559 169.078" fill="#D7F6FF"/>
<path opacity="0.2" d="M126.341 118.42C122.404 117.335 119.407 113.995 119.172 109.917C119.163 109.718 119.154 109.524 119.154 109.33C119.154 109.276 119.154 109.212 119.163 109.153C119.154 109.099 119.154 109.036 119.154 108.977C119.154 108.783 119.163 108.588 119.172 108.39C119.407 104.312 122.404 100.972 126.341 99.8871C141.172 95.7827 152.07 82.186 152.07 66.049C152.07 63.8793 151.876 61.7548 151.492 59.6936C151.428 59.341 151.361 58.9929 151.284 58.6494C151.229 58.3963 151.175 58.1432 151.112 57.89C151.112 57.8765 151.107 57.8584 151.103 57.8448C151.071 57.7137 151.04 57.5826 151.003 57.4516C150.945 57.1984 150.881 56.9543 150.809 56.7057C150.705 56.326 150.597 55.9509 150.479 55.5757H149.281C149.322 55.6977 149.363 55.8198 149.394 55.9418C149.403 55.9644 149.412 55.9825 149.417 56.0051C149.485 56.2176 149.548 56.43 149.607 56.6424C149.647 56.7826 149.688 56.9182 149.72 57.0583C149.783 57.2798 149.842 57.4968 149.896 57.7183C149.932 57.8584 149.968 57.9985 149.995 58.1341C150.054 58.3601 150.104 58.5816 150.149 58.8076C150.167 58.8845 150.185 58.9613 150.199 59.0381C150.203 59.0653 150.212 59.0969 150.217 59.1286C150.271 59.3862 150.321 59.6439 150.366 59.9015C150.737 61.8994 150.927 63.9651 150.927 66.049C150.927 81.2684 140.688 94.7295 126.038 98.7841C121.505 100.036 118.286 103.865 118.033 108.326C118.02 108.543 118.015 108.76 118.015 108.977C118.015 109.036 118.015 109.099 118.02 109.153C118.015 109.212 118.015 109.276 118.015 109.33C118.015 109.547 118.02 109.764 118.033 109.981C118.286 114.442 121.505 118.275 126.038 119.523C140.688 123.577 150.927 137.043 150.927 152.258C150.927 154.342 150.737 156.412 150.366 158.41C149.855 161.258 148.969 164.029 147.731 166.659H86.1975C84.959 164.029 84.073 161.258 83.5577 158.405C83.1871 156.412 83.0018 154.342 83.0018 152.258C83.0018 137.043 93.24 123.577 107.89 119.523C112.424 118.275 115.638 114.442 115.895 109.981C115.909 109.764 115.913 109.547 115.913 109.33C115.913 109.276 115.913 109.212 115.909 109.153C115.913 109.099 115.913 109.036 115.913 108.977C115.913 108.76 115.909 108.543 115.895 108.326C115.638 103.865 112.424 100.036 107.89 98.7841C93.24 94.7295 83.0018 81.2684 83.0018 66.049C83.0018 63.9651 83.1871 61.8994 83.5577 59.9015C83.621 59.5444 83.6933 59.1918 83.7702 58.8347C83.7702 58.8257 83.7747 58.8167 83.7747 58.8076C83.8516 58.4641 83.9284 58.1205 84.0143 57.777C84.0188 57.7589 84.0233 57.7409 84.0278 57.7183C84.0956 57.4561 84.1635 57.1894 84.2403 56.9317C84.2448 56.9091 84.2539 56.8911 84.2584 56.8685C84.281 56.769 84.3126 56.665 84.3443 56.5656C84.394 56.3758 84.4527 56.1904 84.5115 56.0051C84.516 55.9825 84.5251 55.9644 84.5341 55.9418C84.5657 55.8198 84.6064 55.6977 84.6471 55.5757H83.4493C83.3317 55.9509 83.2232 56.326 83.1193 56.7057C83.047 56.9543 82.9837 57.1984 82.9249 57.4516C82.8888 57.5826 82.8571 57.7137 82.8255 57.8448C82.821 57.8584 82.8164 57.8765 82.8164 57.89C82.7531 58.1432 82.6989 58.3963 82.6447 58.6494C82.5678 58.9929 82.5 59.341 82.4367 59.6936C82.0525 61.7548 81.8582 63.8793 81.8582 66.049C81.8582 82.186 92.7518 95.7827 107.587 99.8871C111.52 100.972 114.521 104.312 114.752 108.39C114.765 108.588 114.77 108.783 114.77 108.977C114.77 109.036 114.77 109.099 114.765 109.153C114.77 109.212 114.77 109.276 114.77 109.33C114.77 109.524 114.765 109.718 114.752 109.917C114.521 113.995 111.52 117.335 107.587 118.42C92.7518 122.529 81.8582 136.121 81.8582 152.258C81.8582 154.428 82.0525 156.552 82.4367 158.613C83.0244 161.859 84.064 164.942 85.4788 167.803H148.45C149.864 164.942 150.904 161.859 151.492 158.613C151.876 156.552 152.07 154.428 152.07 152.258C152.07 136.121 141.172 122.529 126.341 118.42Z" fill="#389FE5"/>
<path d="M150.927 152.258C150.927 154.342 150.737 156.412 150.366 158.41C149.855 161.258 148.969 164.029 147.731 166.659H86.1975C84.959 164.029 84.073 161.258 83.5577 158.405C83.187 156.412 83.0017 154.342 83.0017 152.258C83.0017 137.043 93.2399 123.577 107.89 119.523C112.424 118.275 115.637 114.442 115.895 109.981C115.909 109.764 115.913 109.547 115.913 109.33C115.913 109.275 115.913 109.212 115.909 109.153C115.913 109.099 115.913 109.036 115.913 108.977C115.913 108.76 115.909 108.543 115.895 108.326C115.637 103.865 112.424 100.036 107.89 98.7841C93.2399 94.7295 83.0017 81.2684 83.0017 66.049C83.0017 63.9651 83.187 61.8994 83.5577 59.9015C83.621 59.5444 83.6933 59.1918 83.7701 58.8347C83.7701 58.8257 83.7747 58.8167 83.7747 58.8076C83.847 58.4641 83.9283 58.1205 84.0142 57.777C84.0188 57.7589 84.0233 57.7409 84.0278 57.7183C84.1001 57.4335 84.1724 57.1532 84.2583 56.8685C84.3352 56.5792 84.421 56.2899 84.5114 56.0051C84.5567 55.8605 84.6019 55.7158 84.6471 55.5757H149.281C149.326 55.7158 149.372 55.8605 149.417 56.0051C149.485 56.2176 149.548 56.43 149.607 56.6424C149.647 56.7826 149.688 56.9182 149.72 57.0583C149.783 57.2798 149.842 57.4968 149.896 57.7183C149.932 57.8584 149.968 57.9985 149.995 58.1341C150.054 58.3601 150.104 58.5816 150.149 58.8076C150.172 58.9116 150.194 59.0201 150.217 59.1286C150.271 59.3862 150.321 59.6439 150.366 59.9015C150.737 61.8994 150.927 63.9651 150.927 66.049C150.927 81.2684 140.688 94.7295 126.038 98.7841C121.505 100.036 118.286 103.865 118.033 108.326C118.02 108.543 118.015 108.76 118.015 108.977C118.015 109.036 118.015 109.099 118.02 109.153C118.015 109.212 118.015 109.275 118.015 109.33C118.015 109.547 118.02 109.764 118.033 109.981C118.286 114.442 121.505 118.275 126.038 119.523C140.688 123.577 150.927 137.043 150.927 152.258Z" fill="white"/>
<path opacity="0.5" d="M150.927 152.258C150.927 154.342 150.737 156.412 150.366 158.41C149.855 161.258 148.969 164.029 147.731 166.659H86.1975C84.959 164.029 84.073 161.258 83.5577 158.405C83.187 156.412 83.0017 154.342 83.0017 152.258C83.0017 137.043 93.2399 123.577 107.89 119.523C112.424 118.275 115.637 114.442 115.895 109.981C115.909 109.764 115.913 109.547 115.913 109.33C115.913 109.275 115.913 109.212 115.909 109.153C115.913 109.099 115.913 109.036 115.913 108.977C115.913 108.76 115.909 108.543 115.895 108.326C115.637 103.865 112.424 100.036 107.89 98.7841C93.2399 94.7295 83.0017 81.2684 83.0017 66.049C83.0017 63.9651 83.187 61.8994 83.5577 59.9015C83.621 59.5444 83.6933 59.1918 83.7701 58.8347C83.7701 58.8257 83.7747 58.8167 83.7747 58.8076C83.847 58.4641 83.9283 58.1205 84.0142 57.777C84.0188 57.7589 84.0233 57.7409 84.0278 57.7183C84.1001 57.4335 84.1724 57.1532 84.2583 56.8685C84.3352 56.5792 84.421 56.2899 84.5114 56.0051C84.5567 55.8605 84.6019 55.7158 84.6471 55.5757H149.281C149.326 55.7158 149.372 55.8605 149.417 56.0051C149.485 56.2176 149.548 56.43 149.607 56.6424C149.647 56.7826 149.688 56.9182 149.72 57.0583C149.783 57.2798 149.842 57.4968 149.896 57.7183C149.932 57.8584 149.968 57.9985 149.995 58.1341C150.054 58.3601 150.104 58.5816 150.149 58.8076C150.172 58.9116 150.194 59.0201 150.217 59.1286C150.271 59.3862 150.321 59.6439 150.366 59.9015C150.737 61.8994 150.927 63.9651 150.927 66.049C150.927 81.2684 140.688 94.7295 126.038 98.7841C121.505 100.036 118.286 103.865 118.033 108.326C118.02 108.543 118.015 108.76 118.015 108.977C118.015 109.036 118.015 109.099 118.02 109.153C118.015 109.212 118.015 109.275 118.015 109.33C118.015 109.547 118.02 109.764 118.033 109.981C118.286 114.442 121.505 118.275 126.038 119.523C140.688 123.577 150.927 137.043 150.927 152.258Z" fill="#D7ECFA"/>
<path d="M88.9548 86.0504C88.9548 86.0504 94.3113 94.8286 107.158 98.8651C110.448 99.8324 111.556 100.547 113.45 102.291C115.344 104.036 115.99 107.105 115.918 109.533C115.891 111.413 116.971 138.914 116.971 142.34C116.971 145.572 117.391 143.176 117.296 142.485C117.631 123.021 118.024 108.706 118.024 108.706C118.024 108.706 119.186 102.585 120.989 101.744C122.788 100.899 129.325 97.8661 131.996 97.1158C134.667 96.3654 141.131 90.4756 141.131 90.4756C141.131 90.4756 149.34 78.7684 149.837 77.2722C150.339 75.7715 146.126 75.6313 146.126 75.6313L88.9548 86.0504Z" fill="#FF9A30"/>
<path d="M119.925 86.6431C137.13 83.9438 150.625 78.8746 150.067 75.3207C149.509 71.7669 135.111 71.0742 117.906 73.7735C100.702 76.4729 87.2069 81.5421 87.7645 85.0959C88.3221 88.6497 102.721 89.3424 119.925 86.6431Z" fill="#FDCF33"/>
<g opacity="0.5">
<path d="M107.723 94.4716C107.352 94.4716 106.977 94.4129 106.611 94.2863C104.156 93.441 101.883 92.3697 99.8485 91.095C98.2484 90.087 97.7647 87.9716 98.7682 86.3714C99.7762 84.7713 101.892 84.2876 103.492 85.2911C105.078 86.2856 106.873 87.1308 108.835 87.8043C110.625 88.4191 111.578 90.3673 110.964 92.1573C110.475 93.5811 109.147 94.4716 107.723 94.4716Z" fill="white"/>
<path d="M94.3295 84.3647C93.1949 84.3647 92.0874 83.8042 91.4365 82.7781C85.4608 73.3897 87.0022 62.8486 87.07 62.4011C87.3593 60.5298 89.1086 59.246 90.9755 59.5353C92.8423 59.8246 94.1215 61.5649 93.8413 63.4317C93.8232 63.5719 92.6751 71.9568 97.2179 79.0987C98.2349 80.6943 97.7648 82.8143 96.1646 83.8268C95.5951 84.1929 94.9578 84.3647 94.3295 84.3647Z" fill="white"/>
</g>
<g opacity="0.5">
<path d="M107.723 123.451C107.352 123.451 106.977 123.509 106.611 123.636C104.156 124.481 101.883 125.553 99.8485 126.827C98.2484 127.835 97.7647 129.951 98.7682 131.551C99.7762 133.151 101.892 133.635 103.492 132.631C105.078 131.637 106.873 130.791 108.835 130.118C110.625 129.503 111.578 127.555 110.964 125.765C110.475 124.346 109.147 123.451 107.723 123.451Z" fill="white"/>
<path d="M94.3295 133.558C93.1949 133.558 92.0874 134.118 91.4365 135.144C85.4608 144.533 87.0022 155.074 87.07 155.521C87.3593 157.393 89.1086 158.676 90.9755 158.387C92.8423 158.098 94.1215 156.357 93.8413 154.491C93.8232 154.35 92.6751 145.966 97.2179 138.824C98.2349 137.228 97.7648 135.108 96.1646 134.096C95.5951 133.729 94.9578 133.558 94.3295 133.558Z" fill="white"/>
</g>
<path d="M126.341 118.42C122.404 117.335 119.407 113.995 119.172 109.917C119.163 109.718 119.154 109.524 119.154 109.33C119.154 109.276 119.154 109.212 119.163 109.153C119.154 109.099 119.154 109.036 119.154 108.977C119.154 108.783 119.163 108.588 119.172 108.39C119.407 104.312 122.404 100.972 126.341 99.8871C141.172 95.7827 152.07 82.186 152.07 66.049C152.07 63.8793 151.876 61.7548 151.492 59.6936C151.428 59.341 151.361 58.9929 151.284 58.6494C151.229 58.3963 151.175 58.1432 151.112 57.89C151.112 57.8765 151.107 57.8584 151.103 57.8448C151.071 57.7137 151.04 57.5826 151.003 57.4516C150.945 57.1984 150.881 56.9543 150.809 56.7057C150.705 56.326 150.597 55.9509 150.479 55.5757H149.281C149.322 55.6932 149.358 55.8198 149.394 55.9418C149.403 55.9644 149.412 55.9825 149.417 56.0051C149.485 56.2176 149.548 56.43 149.607 56.6424C149.647 56.7826 149.688 56.9182 149.72 57.0583C149.783 57.2798 149.842 57.4968 149.896 57.7183C149.932 57.8584 149.968 57.9985 149.995 58.1341C150.054 58.3601 150.104 58.5816 150.149 58.8076C150.167 58.8845 150.181 58.9613 150.199 59.0381C150.203 59.0653 150.212 59.0969 150.217 59.1286C150.271 59.3862 150.321 59.6439 150.366 59.9015C150.737 61.8994 150.927 63.9651 150.927 66.049C150.927 81.2684 140.688 94.7295 126.038 98.7841C121.505 100.036 118.286 103.865 118.033 108.326C118.02 108.543 118.015 108.76 118.015 108.977C118.015 109.036 118.015 109.099 118.02 109.153C118.015 109.212 118.015 109.276 118.015 109.33C118.015 109.547 118.02 109.764 118.033 109.981C118.286 114.442 121.505 118.275 126.038 119.523C140.688 123.577 150.927 137.043 150.927 152.258C150.927 154.342 150.737 156.412 150.366 158.41C149.855 161.258 148.969 164.029 147.731 166.659H86.1975C84.959 164.029 84.073 161.258 83.5577 158.405C83.1871 156.412 83.0018 154.342 83.0018 152.258C83.0018 137.043 93.24 123.577 107.89 119.523C112.424 118.275 115.638 114.442 115.895 109.981C115.909 109.764 115.913 109.547 115.913 109.33C115.913 109.276 115.913 109.212 115.909 109.153C115.913 109.099 115.913 109.036 115.913 108.977C115.913 108.76 115.909 108.543 115.895 108.326C115.638 103.865 112.424 100.036 107.89 98.7841C93.24 94.7295 83.0018 81.2684 83.0018 66.049C83.0018 63.9651 83.1871 61.8994 83.5577 59.9015C83.621 59.5444 83.6933 59.1873 83.7702 58.8347C83.7702 58.8257 83.7747 58.8167 83.7747 58.8076C83.8516 58.4641 83.9284 58.1205 84.0143 57.777C84.0188 57.7589 84.0233 57.7409 84.0278 57.7183C84.0956 57.4561 84.1635 57.1894 84.2403 56.9317C84.2448 56.9091 84.2539 56.8911 84.2584 56.8685C84.2855 56.769 84.3126 56.665 84.3443 56.5656C84.394 56.3758 84.4527 56.1904 84.5115 56.0051C84.516 55.9825 84.5251 55.9644 84.5341 55.9418C84.5703 55.8198 84.6064 55.6932 84.6471 55.5757H83.4493C83.3317 55.9509 83.2232 56.326 83.1193 56.7057C83.047 56.9543 82.9837 57.1984 82.9249 57.4516C82.8888 57.5826 82.8571 57.7137 82.8255 57.8448C82.821 57.8584 82.8164 57.8765 82.8164 57.89C82.7531 58.1432 82.6989 58.3963 82.6447 58.6494C82.5678 58.9929 82.5 59.341 82.4367 59.6936C82.0525 61.7548 81.8582 63.8793 81.8582 66.049C81.8582 82.186 92.7518 95.7827 107.587 99.8871C111.52 100.972 114.521 104.312 114.752 108.39C114.765 108.588 114.77 108.783 114.77 108.977C114.77 109.036 114.77 109.099 114.765 109.153C114.77 109.212 114.77 109.276 114.77 109.33C114.77 109.524 114.765 109.718 114.752 109.917C114.521 113.995 111.52 117.335 107.587 118.42C92.7518 122.529 81.8582 136.121 81.8582 152.258C81.8582 154.428 82.0525 156.552 82.4367 158.613C83.0244 161.859 84.064 164.942 85.4788 167.803H148.45C149.864 164.942 150.904 161.859 151.492 158.613C151.876 156.552 152.07 154.428 152.07 152.258C152.07 136.121 141.172 122.529 126.341 118.42Z" fill="#B7DDF6"/>
<path d="M160.722 165.936C160.722 167.771 159.235 169.258 157.4 169.258H76.5289C74.6937 169.258 73.2065 167.771 73.2065 165.936C73.2065 164.101 74.6937 162.614 76.5289 162.614H157.4C159.235 162.614 160.722 164.101 160.722 165.936Z" fill="#389FE5"/>
<path d="M143.839 76.6668C143.893 76.9154 143.215 77.2725 142.329 77.4624C141.443 77.6522 140.679 77.598 140.625 77.3494C140.571 77.1008 141.249 76.7437 142.135 76.5538C143.025 76.3685 143.789 76.4182 143.839 76.6668Z" fill="#FF9A30"/>
<path d="M141.8 79.5505C141.855 79.7991 141.439 80.1019 140.869 80.2195C140.304 80.337 139.802 80.233 139.748 79.9844C139.694 79.7358 140.11 79.4329 140.679 79.3154C141.244 79.1934 141.746 79.3019 141.8 79.5505Z" fill="#FF9A30"/>
<path d="M139.206 78.7912C139.26 79.0398 138.844 79.3427 138.274 79.4602C137.709 79.5777 137.208 79.4737 137.153 79.2251C137.099 78.9765 137.515 78.6737 138.085 78.5561C138.65 78.4341 139.151 78.5426 139.206 78.7912Z" fill="#FF9A30"/>
<path d="M121.297 81.0967C121.324 81.2323 121.102 81.3951 120.795 81.4584C120.488 81.5216 120.216 81.4674 120.189 81.3318C120.162 81.1962 120.384 81.0335 120.691 80.9702C120.998 80.9024 121.27 80.9611 121.297 81.0967Z" fill="#FF9A30"/>
<path d="M135.133 76.8926C135.16 77.0282 134.939 77.191 134.631 77.2543C134.324 77.3175 134.053 77.2633 134.025 77.1277C133.998 76.9921 134.22 76.8294 134.527 76.7661C134.835 76.6983 135.106 76.757 135.133 76.8926Z" fill="#FF9A30"/>
<path d="M130.12 81.7203C130.147 81.8559 129.926 82.0186 129.618 82.0819C129.311 82.1452 129.04 82.0909 129.013 81.9553C128.986 81.8197 129.207 81.657 129.514 81.5937C129.817 81.5304 130.089 81.5847 130.12 81.7203Z" fill="#FF9A30"/>
<path d="M123.426 84.9205C123.453 85.0561 123.231 85.2188 122.924 85.2821C122.616 85.3454 122.345 85.2911 122.318 85.1555C122.291 85.0199 122.513 84.8572 122.82 84.7939C123.127 84.7261 123.398 84.7849 123.426 84.9205Z" fill="#FF9A30"/>
<path d="M117.351 138.86L117.116 138.77L116.881 138.86C116.881 138.86 114.86 154.672 93.1587 162.614C105.047 162.614 112.559 162.614 117.269 162.614C123.571 162.614 124.85 162.614 124.85 162.614C128.371 162.614 133.519 162.614 141.068 162.614C119.376 154.667 117.351 138.86 117.351 138.86Z" fill="#FF9A30"/>
<path d="M150.588 55.9326C150.588 57.6955 135.535 59.1284 116.962 59.1284C98.3884 59.1284 83.3362 57.7 83.3362 55.9326C83.3362 54.1697 98.3884 52.7368 116.962 52.7368C135.535 52.7368 150.588 54.1697 150.588 55.9326Z" fill="#B9DBEF"/>
<path d="M157.4 51.0146H76.5289C75.6113 51.0146 74.7796 51.3853 74.1784 51.9865C73.5772 52.5877 73.2065 53.4194 73.2065 54.337C73.2065 56.1677 74.6937 57.6548 76.5289 57.6548H83.4493H84.6471H149.281H150.479H157.4C159.235 57.6548 160.722 56.1677 160.722 54.337C160.722 52.5018 159.235 51.0146 157.4 51.0146Z" fill="#389FE5"/>
<path d="M0.332031 169.254H230.862" stroke="#389FE5" stroke-miterlimit="10"/>
<path d="M11.7319 185.988C11.7319 187.276 24.054 188.315 39.2599 188.315C54.4613 188.315 66.7878 187.271 66.7878 185.988C66.7878 184.699 54.4658 183.66 39.2599 183.66C24.0585 183.66 11.7319 184.704 11.7319 185.988Z" fill="#E6ECEF"/>
<path d="M39.8521 104.213C39.6577 105.275 39.6125 106.378 39.7165 107.499L40.1323 107.585L40.1549 107.59L40.4623 107.581L40.7923 107.228L40.946 104.995L40.5256 103.689L37.5332 101.623L37.0586 101.451L39.8521 104.213Z" fill="#FFBD1D"/>
<path d="M37.1174 110.415L38.3198 113.28L38.3243 113.299L41.8049 113.28H42.2026C42.8174 114.171 43.5497 114.962 44.3678 115.649L44.2412 119.812L47.1342 121.001L49.7649 118.339L49.8553 118.248C50.904 118.438 51.9934 118.483 53.0963 118.384L53.0827 118.393L55.9214 121.421L58.6245 120.291L58.8053 120.214L58.7827 116.336C59.6777 115.721 60.4732 114.985 61.1603 114.162L65.2194 114.298L65.3098 114.302L66.4986 111.409L63.7458 108.688C63.9402 107.635 63.9809 106.536 63.8815 105.424L63.886 105.433L66.9145 102.622L65.7076 99.738H65.7031L61.8293 99.7606C61.2236 98.8837 60.5004 98.0972 59.6912 97.4146V97.3333L59.7862 93.2289L56.8932 92.0401L56.8842 92.0492L54.1721 94.7884C53.1415 94.5986 52.0747 94.5579 50.9854 94.6483L50.7277 94.3771L48.106 91.6152L48.0834 91.6243L45.2221 92.8176L45.2447 96.6959C44.3497 97.3152 43.5497 98.052 42.8581 98.8792L38.7131 98.7345L37.5288 101.627L40.277 104.349C40.0872 105.397 40.042 106.487 40.1414 107.59L40.1324 107.576L40.1234 107.585L37.1174 110.415Z" fill="#FF9A30"/>
<path opacity="0.3" d="M57.7655 115.515C62.7318 112.421 64.2493 105.886 61.1549 100.92C58.0606 95.9537 51.5262 94.4362 46.5599 97.5305C41.5936 100.625 40.0761 107.159 43.1704 112.126C46.2648 117.092 52.7992 118.609 57.7655 115.515Z" fill="#FF9A30"/>
<path d="M58.2018 111.44C61.0654 107.996 60.5952 102.883 57.1516 100.019C53.708 97.1558 48.595 97.6259 45.7314 101.07C42.8678 104.513 43.338 109.626 46.7816 112.49C50.2252 115.353 55.3382 114.883 58.2018 111.44Z" fill="#FFFAE4"/>
<path d="M51.9661 98.1377V99.1819" stroke="#E49F05" stroke-width="0.3564" stroke-miterlimit="10"/>
<path d="M57.7428 100.597L57.0015 101.338" stroke="#E49F05" stroke-width="0.3564" stroke-miterlimit="10"/>
<path d="M60.0844 106.423H59.0403" stroke="#E49F05" stroke-width="0.3564" stroke-miterlimit="10"/>
<path d="M57.6208 112.2L56.884 111.463" stroke="#E49F05" stroke-width="0.3564" stroke-miterlimit="10"/>
<path d="M51.7988 114.546V113.497" stroke="#E49F05" stroke-width="0.3564" stroke-miterlimit="10"/>
<path d="M46.022 112.083L46.7588 111.341" stroke="#E49F05" stroke-width="0.3564" stroke-miterlimit="10"/>
<path d="M44.8423 106.256H43.7981" stroke="#E49F05" stroke-width="0.3564" stroke-miterlimit="10"/>
<path d="M46.1938 100.533L46.9306 101.27" stroke="#E49F05" stroke-width="0.3564" stroke-miterlimit="10"/>
<path d="M55.112 98.7344L54.8679 99.331" stroke="#E49F05" stroke-width="0.3564" stroke-miterlimit="10"/>
<path d="M59.578 103.16L58.9858 103.408" stroke="#E49F05" stroke-width="0.3564" stroke-miterlimit="10"/>
<path d="M59.6097 109.447L59.0176 109.199" stroke="#E49F05" stroke-width="0.3564" stroke-miterlimit="10"/>
<path d="M55.189 113.913L54.9404 113.316" stroke="#E49F05" stroke-width="0.3564" stroke-miterlimit="10"/>
<path d="M48.9014 113.945L49.1455 113.348" stroke="#E49F05" stroke-width="0.3564" stroke-miterlimit="10"/>
<path d="M44.4355 109.519L45.0277 109.275" stroke="#E49F05" stroke-width="0.3564" stroke-miterlimit="10"/>
<path d="M44.4038 103.236L44.996 103.48" stroke="#E49F05" stroke-width="0.3564" stroke-miterlimit="10"/>
<path d="M48.8247 98.7661L49.0733 99.3628" stroke="#E49F05" stroke-width="0.3564" stroke-miterlimit="10"/>
<path d="M51.3513 106.251C51.3513 106.59 51.6271 106.866 51.9661 106.866C52.3051 106.866 52.5808 106.59 52.5808 106.251C52.5808 105.912 52.3051 105.637 51.9661 105.637C51.6271 105.637 51.3513 105.912 51.3513 106.251Z" fill="#8CC64B"/>
<path opacity="0.3" d="M51.2881 106.505C51.2881 106.939 51.6407 107.291 52.0746 107.291C52.1108 107.291 52.1424 107.287 52.1786 107.282L54.3121 110.898L55.4376 111.405C55.5958 111.477 55.7721 111.337 55.7405 111.165L55.5099 109.954L55.4964 109.94L52.5357 107.115C52.7752 106.979 52.8702 106.803 52.8702 106.509C52.8702 106.098 52.5537 105.763 52.1514 105.727L52.6532 101.795L52.3051 100.868C52.2464 100.71 52.0249 100.705 51.9571 100.859L51.5683 101.759V101.777L51.9254 105.705C51.5277 105.75 51.2881 106.102 51.2881 106.505Z" fill="#3D3D3D"/>
<path d="M52.1198 100.846L52.4045 101.6C52.4136 101.628 52.4181 101.655 52.4136 101.686L51.9028 105.687L51.4643 101.659C51.4598 101.628 51.4643 101.6 51.4779 101.569L51.7898 100.841C51.8576 100.692 52.0655 100.696 52.1198 100.846Z" fill="#FF9A30"/>
<path d="M55.641 111.106L54.6872 110.681C54.6465 110.663 54.6149 110.636 54.5923 110.595L52.2734 106.672L55.6636 109.737C55.6952 109.768 55.7178 109.809 55.7269 109.85L55.9212 110.871C55.9619 111.043 55.7947 111.174 55.641 111.106Z" fill="#FF9A30"/>
<path d="M51.9435 107.129C52.3779 107.129 52.73 106.777 52.73 106.342C52.73 105.908 52.3779 105.556 51.9435 105.556C51.5091 105.556 51.157 105.908 51.157 106.342C51.157 106.777 51.5091 107.129 51.9435 107.129Z" fill="#E49F05"/>
<path d="M51.9434 107.029C52.3229 107.029 52.6305 106.722 52.6305 106.342C52.6305 105.963 52.3229 105.655 51.9434 105.655C51.564 105.655 51.2563 105.963 51.2563 106.342C51.2563 106.722 51.564 107.029 51.9434 107.029Z" fill="#FF9A30"/>
<path d="M41.2217 95.168C41.2217 95.168 45.5113 95.29 43.2422 100.185C40.964 105.076 41.2217 95.168 41.2217 95.168Z" fill="#1F3A71"/>
<path d="M42.4149 96.9489C42.4149 96.9489 43.5721 97.6586 43.554 101.487C43.554 101.618 44.0241 102.753 44.0648 102.884C44.2275 103.399 43.9021 103.431 43.4636 103.648C43.2873 106.536 42.8534 106.482 42.4737 106.74C42.0398 107.029 38.7174 106.346 36.5839 105.289C34.4504 104.231 33.7271 101.076 34.6267 99.1412C35.5307 97.2021 39.9198 95.281 42.4149 96.9489Z" fill="#FFC8B0"/>
<path d="M32.8141 99.6567C32.4706 101.474 33.3611 104.245 36.9184 105.447C36.9184 105.447 37.2349 104.353 37.4609 103.277C37.6869 102.202 40.7064 100.972 42.0127 99.8014C42.076 99.7426 42.1393 99.6838 42.198 99.6251C43.1292 98.6442 43.0795 97.1073 42.2297 96.0586C41.4974 95.1546 39.8746 93.6584 36.9727 94.6438C34.3826 95.5207 33.2345 97.4102 32.8141 99.6567Z" fill="#1F3A71"/>
<path d="M41.3888 103.693C40.8283 104.299 40.7243 105.524 40.7695 106.699C40.7831 106.898 40.7967 107.097 40.8057 107.291C40.9051 108.494 41.1266 109.492 41.1266 109.492L37.0223 109.389C37.176 107.906 36.9229 105.433 36.9229 105.433C36.9229 105.433 42.7132 102.256 41.3888 103.693Z" fill="#FFC8B0"/>
<path d="M40.8103 107.291C39.296 106.767 38.0891 105.913 38.0891 105.913C39.2372 106.288 40.7741 106.699 40.7741 106.699C40.7831 106.898 40.7967 107.097 40.8103 107.291Z" fill="#F2A181"/>
<path d="M43.735 136.397L37.3163 129.477C37.3163 129.477 33.4289 133.585 34.1476 138.101C34.5002 140.32 35.1466 141.478 35.359 142.535C35.5579 143.525 36.0597 157.24 35.7794 158.207C35.4992 159.17 34.003 161.782 33.2074 164.621C32.2492 168.038 31.2728 172.988 30.4908 175.944C29.7088 178.9 30.9925 182.846 31.2728 181.847C33.6459 173.313 39.8612 163.491 40.8737 159.206C41.8907 154.916 42.6727 146.934 43.735 136.397Z" fill="#FFBE9D"/>
<path d="M33.2253 175.65C33.2253 175.65 31.259 181.233 31.4172 181.942C31.5122 182.376 31.9506 183.836 32.0501 184.044C32.0908 184.126 33.5011 185.247 32.5609 185.224C31.6387 185.202 29.4419 182.286 29.121 182.065C28.5786 181.698 28.3616 181.129 28.4746 180.632C28.669 179.773 29.243 179.117 29.6679 178.516C30.0928 177.915 30.4318 176.211 30.4318 176.211L33.2253 175.65Z" fill="#FFBE9D"/>
<path d="M33.8085 185.473C33.4424 184.912 32.2897 184.261 32.2897 184.261C32.118 184.04 31.9733 183.9 32.0456 184.04C32.1677 184.275 31.5394 184.397 31.232 184.144C30.1562 183.28 29.8488 181.997 29.32 181.386C28.5651 180.519 29.0939 179.375 29.1753 179.181C28.9267 179.163 27.9006 179.673 27.6294 179.872C27.3808 180.053 26.9197 180.496 26.8113 180.785C26.7389 180.989 26.3502 182.019 26.0745 182.467L27.0915 183.276L28.0769 182.381C28.0769 182.381 28.0769 182.381 28.3481 182.67C28.6193 182.96 28.8273 183.452 28.8725 183.746C28.8905 183.873 29.0035 184.216 29.1301 184.542C29.2793 184.948 29.546 185.31 29.8805 185.586C29.8805 185.586 30.0929 185.758 30.3144 185.943C30.6399 186.21 31.0467 186.354 31.467 186.354H33.2164C33.2164 186.354 33.2164 186.354 33.2164 186.35H33.483C33.7588 186.35 33.9938 186.115 33.9531 185.843C33.9441 185.739 33.8989 185.613 33.8085 185.473Z" fill="#1F3A71"/>
<path d="M48.6391 184.614C48.499 184.428 46.8582 184.008 46.1078 183.61C45.3936 183.23 44.58 182.15 44.4444 181.712C44.3088 181.273 44.5393 179.126 44.6433 178.227C45.3575 172.029 47.5498 163.351 48.0425 159.73C48.9013 153.438 48.6663 146.838 47.152 136.478L38.7219 128.712C38.7219 128.712 35.7611 133.196 36.2041 137.78C36.4618 140.438 38.5953 141.034 38.871 142.088C39.1468 143.136 43.1471 160.015 43.1471 160.015C43.1471 160.015 41.7639 163.459 41.3526 167.337C41 170.646 41.9312 174.371 41.8634 178.204C41.8272 178.95 41.7956 180.744 41.5289 181.291C41.1989 181.96 40.4395 182.715 40.3943 183.597C40.3672 184.107 40.6927 184.623 41.3164 184.88C41.9402 185.138 42.329 184.799 42.5505 184.808C43.8297 184.871 44.1054 185.78 46.3112 185.979C46.9893 186.037 48.0108 185.753 48.5804 185.264C48.8019 185.079 48.7793 184.799 48.6391 184.614Z" fill="#FFBE9D"/>
<path d="M48.7566 185.409C48.6753 185.567 48.5216 185.743 48.3001 185.915C47.8978 186.223 47.387 186.358 46.8807 186.358H45.8004C45.362 186.358 44.9325 186.245 44.5528 186.024C44.25 185.847 43.9426 185.653 43.8522 185.572C43.6307 185.368 43.1561 185.124 42.7629 185.074C42.3696 185.025 42.0667 185.061 42.0667 185.061L41.9899 186.363H40.5028C40.548 185.915 40.1954 184.704 40.1231 184.5C40.0236 184.202 40.1547 183.66 40.227 183.361C40.3129 183.031 40.9774 181.996 41.1853 181.852C41.2441 182.055 41.5605 183.275 42.6996 183.465C43.4906 183.601 44.5438 184.405 45.9225 184.387C46.3202 184.387 46.7316 183.899 46.4875 183.791C46.2434 183.687 46.9259 183.804 47.3599 183.962C47.7938 184.121 48.5442 184.532 48.7611 184.654C48.9239 184.74 48.9058 185.138 48.7566 185.409Z" fill="#1F3A71"/>
<path d="M30.3777 119.943C30.3777 119.943 30.8116 122.163 31.0828 123.08C31.354 123.993 32.6965 129.806 33.9712 129.702C35.2459 129.603 42.2115 123.781 42.2115 123.781L41.2261 121.805L35.0922 124.73C35.0922 124.73 34.5363 118.09 34.0526 116.508L30.3777 119.943Z" fill="#FFC8B0"/>
<path d="M32.1497 120.187C32.8006 122.484 34.0481 126.018 34.5273 126.683C34.7397 126.981 38.8531 125.494 38.8667 123.898L34.6041 119.066L32.1497 120.187Z" fill="#F2A181"/>
<path d="M36.0279 109.511C36.0279 109.511 33.9125 109.579 32.3033 110.776C29.6454 112.752 30.2783 120.219 30.2783 120.219C30.2783 120.219 30.1472 120.608 31.9146 120.508C33.682 120.409 35.0968 119.907 35.0968 119.907L34.586 113.922L36.0279 109.511Z" fill="#389FE5"/>
<path d="M31.6071 114.031C31.6071 114.031 31.3856 118.325 32.163 120.49C32.9315 120.477 33.605 120.3 33.605 120.3L31.6071 114.031Z" fill="#389FE5"/>
<path d="M35.9421 109.913C36.0145 109.425 36.1455 108.86 36.5976 108.665C36.7241 108.611 36.8597 108.598 36.9953 108.58C38.383 108.426 38.2203 108.358 39.6125 108.381C40.1911 108.39 40.7878 108.421 41.3031 108.679C42.1122 109.081 42.5552 109.954 42.9484 110.772L35.9421 109.913Z" fill="#389FE5"/>
<path d="M35.9421 109.913C36.0145 109.425 36.1455 108.86 36.5976 108.665C36.7241 108.611 36.8597 108.598 36.9953 108.58C38.383 108.426 38.2203 108.358 39.6125 108.381C40.1911 108.39 40.7878 108.421 41.3031 108.679C42.1122 109.081 42.5552 109.954 42.9484 110.772L35.9421 109.913Z" fill="#389FE5"/>
<path d="M30.45 175.252C30.9924 172.861 32.3801 166.696 33.37 164.079C34.3599 161.461 35.7296 158.641 35.7793 158.211C35.82 157.854 35.4583 155.205 35.3408 154.351C35.3273 154.333 35.3182 154.31 35.3227 154.292C35.3363 153.999 33.8808 143.118 33.4017 141.469C33.2209 140.863 32.3665 138.883 32.5293 135.904C32.6965 132.925 35.0651 129.373 35.7115 128.726L46.6775 128.545C46.6775 128.545 48.5669 133.016 48.7522 135.782C49.1319 141.609 48.5488 153.877 48.5488 153.877C48.5488 153.877 48.5398 153.881 48.5262 153.886C48.5081 154.74 48.4403 156.801 48.1827 158.663C47.8527 161.082 44.4897 180.835 44.4897 180.835C44.4897 180.835 42.8217 181.102 41.5018 180.505C41.5018 180.505 41.538 180.293 41.5244 180.08C41.651 177.698 40.5707 170.122 41.5244 165.484C42.4782 160.847 42.8624 159.852 42.8624 159.852L41.8183 154.79C41.8047 154.704 41.7821 154.496 41.7504 154.496C41.6239 155.689 41.3436 158.076 41.0046 159.341C40.5029 161.195 35.716 171.6 33.813 176.08C33.1621 177.612 32.5745 179.33 32.5745 179.33C32.5745 179.33 30.2918 179.068 29.6409 178.06C29.6409 178.055 29.9663 177.386 30.45 175.252Z" fill="#285FAF"/>
<path d="M46.5193 126.796C46.1351 126.041 45.796 122.854 45.9316 122.036C46.0718 121.164 46.8447 120.694 47.1928 118.75C47.6403 116.246 46.6142 114.302 46.0401 113.47C45.231 112.291 44.1145 109.9 43.884 109.832C40.4984 108.801 39.9469 109.294 37.6687 109.393C36.5432 109.443 35.82 109.488 34.7125 109.732C33.4876 110.003 32.0185 110.41 31.7654 112.074C31.3766 114.646 31.7021 117.245 32.4841 119.681C33.0039 121.295 36.0957 126.886 35.3273 127.971C35.151 128.22 34.7125 128.69 34.6628 128.997C34.4685 130.127 36.2946 130.403 38.1162 130.616C39.7752 130.805 41.4928 130.71 43.3597 130.584C48.5036 130.236 46.6775 127.112 46.5193 126.796Z" fill="#389FE5"/>
<path d="M32.2581 113.38C34.2063 114.551 36.6065 114.415 38.2699 114.099C38.1931 112.765 38.3061 110.053 38.3061 110.053C38.3196 111.025 38.7445 113.38 38.853 113.972C39.7209 113.769 40.2814 113.547 40.2814 113.547C40.2814 113.547 38.9705 107.11 38.9705 104.281C38.9751 101.849 41.538 100.176 41.538 100.176L37.1986 94.5669C37.1986 94.5669 33.7723 95.5342 32.814 99.6566C32.3304 101.709 32.2581 113.38 32.2581 113.38Z" fill="#1F3A71"/>
<path opacity="0.35" d="M36.3218 138.49C36.4483 139.046 36.8461 140.465 37.8993 141.848L41.6059 155.757C41.6059 155.757 41.6737 155.174 41.7505 154.491C40.5481 149.433 39.052 142.761 38.8757 142.097C38.6225 141.143 36.8506 140.565 36.3218 138.49Z" fill="#5275A0"/>
<path d="M45.1995 118.149C45.1995 118.149 50.2982 126.33 52.1063 126.33C53.4217 126.33 60.776 117.548 60.776 117.548L58.2854 116.879L52.2736 121.019L48.6258 115.012L45.1995 118.149Z" fill="#FFC8B0"/>
<path d="M63.6871 114.487C63.6961 114.334 63.6826 114.18 63.7097 114.026C63.7639 113.696 63.9899 113.412 64.0668 113.086C64.13 112.828 64.0984 112.562 64.1165 112.3C64.1346 112.001 64.3199 111.5 64.0758 111.463C64.1255 111.274 64.1979 111.061 64.2385 110.871C64.2702 110.727 64.2611 110.451 64.0939 110.473C63.8453 110.505 63.5741 110.84 63.4159 110.993C63.2034 111.197 62.8825 111.735 62.6972 111.961C62.2768 112.471 61.7796 112.688 61.7796 112.688C61.7796 112.688 61.8971 112.476 61.8067 112.372C61.6665 112.209 61.2145 112.499 60.7173 112.571C60.4597 112.607 59.8314 113.38 59.6234 113.601C59.4155 113.823 59.2166 115.188 59.1578 115.468C59.0042 116.21 58.073 117.055 58.073 117.055C58.073 117.055 60.202 118.108 60.2156 118.113C60.2653 118.135 60.5003 117.828 60.532 117.792C60.6631 117.642 60.8303 117.48 61.0156 117.403C61.6756 116.757 62.652 116.445 63.2215 115.694C63.4791 115.351 63.6645 114.944 63.6916 114.515C63.6871 114.501 63.6871 114.492 63.6871 114.487Z" fill="#FFC8B0"/>
<path d="M61.7796 112.684C61.4451 113.023 61.1468 113.081 60.8484 113.24C60.6179 113.362 60.6088 113.479 60.3557 113.601C60.7218 113.674 60.7173 113.443 61.2733 113.24C61.531 113.145 61.7977 113.036 61.9107 112.788C61.9513 112.702 61.8564 112.62 61.7796 112.684Z" fill="#F2A181"/>
<path d="M40.7334 109.199C41.8182 109.253 45.2988 109.493 47.4368 112.634C48.6347 114.392 49.941 116.463 50.5332 118.094C50.2484 119.066 48.4222 121.037 46.7407 121.019C46.6548 120.956 44.1823 117.923 43.7077 115.446L40.7334 109.199Z" fill="#389FE5"/>
<path d="M29.3425 94.6935L31.7066 95.9546L30.5268 92.8809" fill="#CFEFFE"/>
<path d="M27.001 95.7604C29.7621 95.7604 32.0004 93.5221 32.0004 90.761C32.0004 88 29.7621 85.7617 27.001 85.7617C24.24 85.7617 22.0017 88 22.0017 90.761C22.0017 93.5221 24.24 95.7604 27.001 95.7604Z" fill="#CFEFFE"/>
<path d="M26.7119 87.9357C27.7199 87.8453 28.6149 88.5957 28.7007 89.6037C28.7279 89.8975 28.6781 90.1913 28.5516 90.4806L28.3798 90.91L27.7696 92.4921L27.1232 92.5509L26.4768 92.6096L25.6089 91.1586L25.3513 90.7654C25.1795 90.5032 25.0755 90.2184 25.0529 89.9292C24.9535 88.9166 25.6993 88.0262 26.7119 87.9357ZM26.6847 87.6555C25.5185 87.7595 24.6597 88.7855 24.7637 89.9518C24.7953 90.3134 24.9219 90.6343 25.1072 90.9191L26.3231 92.9034L27.1458 92.8311L27.9685 92.7588L28.8137 90.5936C28.9448 90.2817 29.0171 89.9427 28.9855 89.5811C28.877 88.4104 27.8509 87.5515 26.6847 87.6555Z" fill="#67C2EF"/>
<path d="M27.2814 94.3995C26.8249 94.4402 26.4226 94.1057 26.3819 93.6491L26.3276 93.048L27.9775 92.9033L28.0317 93.5045C28.0769 93.9565 27.7379 94.3588 27.2814 94.3995Z" fill="#67C2EF"/>
<path d="M25.9977 90.241C25.9254 90.241 25.8621 90.1867 25.8576 90.1144C25.8486 90.0376 25.9073 89.9698 25.9842 89.9607L27.7742 89.8025C27.851 89.798 27.9188 89.8522 27.9279 89.9291C27.9369 90.0059 27.8781 90.0737 27.8013 90.0828L26.0113 90.241C26.0068 90.241 26.0023 90.241 25.9977 90.241Z" fill="#67C2EF"/>
<path d="M27.1322 92.822C27.0599 92.822 26.9966 92.7677 26.9921 92.6954L26.757 90.033C26.748 89.9562 26.8067 89.8884 26.8836 89.8793C26.9604 89.8703 27.0282 89.9291 27.0373 90.0059L27.2723 92.6683C27.2814 92.7451 27.2226 92.8129 27.1458 92.822C27.1412 92.822 27.1367 92.822 27.1322 92.822Z" fill="#67C2EF"/>
<path d="M163.109 153.998L164.894 155.788C164.894 155.788 167.104 154.206 167.095 153.862C167.086 153.519 165.482 151.783 165.034 151.796C164.587 151.81 163.109 153.998 163.109 153.998Z" fill="#FF9A30"/>
<path d="M155.89 153.998L154.104 155.788C154.104 155.788 151.894 154.206 151.903 153.862C151.912 153.519 153.517 151.783 153.964 151.796C154.412 151.81 155.89 153.998 155.89 153.998Z" fill="#FF9A30"/>
<path d="M158.606 152.176H160.392V150.657H158.606V152.176Z" fill="#153351"/>
<path d="M161.374 167.889C165.781 166.857 168.517 162.447 167.485 158.04C166.453 153.633 162.044 150.897 157.637 151.929C153.23 152.961 150.494 157.37 151.525 161.777C152.557 166.184 156.967 168.92 161.374 167.889Z" fill="#FF9A30"/>
<path opacity="0.3" d="M167.032 160.254C167.032 163.269 165.409 165.9 162.987 167.324C165.766 166.013 167.692 163.188 167.692 159.906C167.692 155.381 164.026 151.715 159.501 151.715C157.992 151.715 156.572 152.127 155.356 152.841C156.414 152.344 157.594 152.068 158.842 152.068C163.366 152.063 167.032 155.729 167.032 160.254Z" fill="#FF9A30"/>
<path opacity="0.6" d="M151.306 159.906C151.306 164.431 154.972 168.101 159.497 168.101C161.264 168.101 162.896 167.54 164.234 166.591C163.086 167.179 161.78 167.513 160.387 167.513C155.863 167.513 152.197 163.988 152.197 159.639C152.197 155.291 155.863 151.765 160.387 151.765C160.094 151.733 159.795 151.715 159.492 151.715C154.972 151.715 151.306 155.381 151.306 159.906Z" fill="#FDD622"/>
<path d="M159.497 166.022C162.875 166.022 165.613 163.284 165.613 159.906C165.613 156.528 162.875 153.79 159.497 153.79C156.119 153.79 153.381 156.528 153.381 159.906C153.381 163.284 156.119 166.022 159.497 166.022Z" fill="#153351"/>
<path d="M159.497 165.511C162.592 165.511 165.102 163.001 165.102 159.906C165.102 156.81 162.592 154.301 159.497 154.301C156.401 154.301 153.892 156.81 153.892 159.906C153.892 163.001 156.401 165.511 159.497 165.511Z" fill="#FFFDFF"/>
<path d="M158.249 151.128H160.776C160.776 151.128 161.219 150.052 160.97 149.957C160.722 149.862 158.362 149.826 158.05 149.957C157.743 150.083 158.249 151.128 158.249 151.128Z" fill="#FF9A30"/>
<path d="M159.483 160.304L159.7 160.213C159.804 160.168 159.85 160.051 159.809 159.951L158.145 156.028C158.1 155.924 157.983 155.878 157.883 155.919L157.666 156.01C157.562 156.055 157.517 156.172 157.558 156.272L159.221 160.195C159.262 160.299 159.379 160.344 159.483 160.304Z" fill="#153351"/>
<path d="M159.497 160.801C159.991 160.801 160.392 160.4 160.392 159.906C160.392 159.411 159.991 159.011 159.497 159.011C159.003 159.011 158.602 159.411 158.602 159.906C158.602 160.4 159.003 160.801 159.497 160.801Z" fill="#153351"/>
<path opacity="0.6" d="M160.085 167.134C160.279 167.138 160.473 167.124 160.663 167.183C160.677 167.188 160.677 167.206 160.663 167.21C160.473 167.269 160.284 167.256 160.085 167.26C160.008 167.256 160.008 167.129 160.085 167.134ZM159.221 167.138C159.334 167.174 159.443 167.197 159.556 167.165C159.569 167.161 159.569 167.143 159.556 167.138C159.456 167.106 159.357 167.084 159.262 167.039C159.194 167.002 159.149 167.111 159.221 167.138ZM153.847 155.819C153.951 155.603 154.073 155.399 154.227 155.214C154.29 155.132 154.181 155.019 154.109 155.096C153.942 155.286 153.797 155.494 153.684 155.72C153.625 155.833 153.793 155.932 153.847 155.819ZM153.115 156.954C153.092 157.081 153.291 157.139 153.313 157.008C153.336 156.868 153.368 156.728 153.399 156.592C153.422 156.493 153.494 156.38 153.476 156.276C153.476 156.272 153.472 156.267 153.467 156.272C153.363 156.308 153.309 156.439 153.259 156.534C153.182 156.669 153.142 156.805 153.115 156.954ZM155.949 153.803C156.279 153.573 156.604 153.338 156.961 153.139C157.065 153.08 156.993 152.895 156.875 152.94C156.491 153.089 156.107 153.261 155.768 153.496C155.587 153.627 155.763 153.93 155.949 153.803Z" fill="#FDD622"/>
<path d="M136.711 174.841C135.779 173.015 135.531 170.8 136.353 168.879C136.828 167.767 137.497 166.668 138.464 165.918C139.31 165.263 140.304 164.797 141.335 164.521C143.111 164.051 145.082 164.205 146.669 165.136C147.993 165.913 148.96 167.17 149.598 168.549C150.221 169.891 150.484 171.559 151.822 172.427C152.206 172.676 152.839 172.775 153.028 173.236C153.254 173.783 152.843 174.33 152.626 174.805C152.369 175.37 152.111 175.939 151.853 176.504C151.668 176.911 151.492 177.612 151.003 177.761C150.533 177.928 150.036 177.521 149.593 177.399C148.436 177.078 147.179 177.53 146.122 177.996C144.91 178.525 142.926 178.249 141.597 178.136C139.133 177.919 137.823 177.029 136.711 174.841Z" fill="#95E2F9"/>
<path d="M152.73 175.352C152.73 175.352 148.996 173.508 147.211 172.5C146.736 172.233 146.248 171.966 145.597 171.388C145.177 171.017 144.332 170.136 144.874 169.552C145.516 168.865 146.271 169.986 146.266 170.61C146.262 171.125 145.819 171.88 145.394 172.183C144.644 172.712 143.491 172.581 142.777 172.138C142.23 171.799 142.537 170.999 143.143 171.04C143.721 171.076 145.353 172.296 144.978 173.277C144.779 173.792 144.359 174.199 143.866 174.443C142.971 174.877 141.814 173.747 143.07 173.345C143.961 173.06 145.105 173.367 145.941 173.693C148.233 174.583 150.004 175.343 152.278 176.274" stroke="white" stroke-width="0.6158" stroke-miterlimit="10"/>
<path d="M151.776 177.668L153.5 173.818L153.12 173.648L151.396 177.498L151.776 177.668Z" fill="#389FE5"/>
<path d="M153.001 178.059C152.952 177.955 152.807 178.312 152.703 178.353L152.653 178.1C152.549 178.136 152.432 178.348 152.378 178.249L152.346 178.19C152.292 178.086 152.152 178.032 152.048 178.077C151.944 178.122 151.808 178.073 151.754 177.969L151.663 177.806C151.632 177.747 151.627 177.675 151.654 177.611L153.367 173.787C153.395 173.724 153.453 173.679 153.517 173.665L153.702 173.625C153.815 173.598 153.941 173.665 153.978 173.774C154.014 173.882 154.145 173.95 154.258 173.923L154.326 173.905C154.434 173.878 154.561 173.937 154.601 174.04L154.615 174.077C154.66 174.181 154.787 174.244 154.895 174.212L154.945 174.199C155.058 174.167 155.189 174.23 155.23 174.339L155.239 174.361C155.284 174.479 155.284 174.601 155.234 174.709L153.693 178.149C153.643 178.258 153.639 178.009 153.521 178.054L153.313 177.611C153.205 177.652 153.182 178.258 153.128 178.154L153.001 178.059Z" fill="#67C2EF"/>
<path d="M152.16 177.932C152.151 177.932 152.142 177.932 152.133 177.928C152.097 177.914 152.084 177.874 152.097 177.837L152.897 176.056C152.911 176.02 152.952 176.007 152.988 176.02C153.024 176.034 153.037 176.075 153.024 176.111L152.224 177.892C152.21 177.919 152.183 177.932 152.16 177.932Z" fill="#389FE5"/>
<path d="M153.313 175.356C153.304 175.356 153.295 175.356 153.286 175.352C153.25 175.338 153.236 175.297 153.25 175.261L153.693 174.271C153.706 174.235 153.747 174.222 153.783 174.235C153.819 174.249 153.833 174.289 153.819 174.326L153.376 175.315C153.363 175.343 153.34 175.356 153.313 175.356Z" fill="#389FE5"/>
<path d="M153.15 176.888C153.141 176.888 153.132 176.888 153.123 176.884C153.087 176.87 153.074 176.83 153.087 176.793L154.244 174.208C154.258 174.172 154.303 174.158 154.335 174.172C154.371 174.185 154.384 174.226 154.371 174.262L153.214 176.848C153.2 176.875 153.178 176.888 153.15 176.888Z" fill="#389FE5"/>
<path d="M152.594 178.136C152.585 178.136 152.576 178.136 152.567 178.131C152.531 178.118 152.517 178.077 152.531 178.041L152.875 177.277C152.888 177.241 152.929 177.227 152.965 177.241C153.001 177.255 153.015 177.295 153.001 177.331L152.658 178.095C152.644 178.122 152.617 178.136 152.594 178.136Z" fill="#389FE5"/>
<path d="M154.009 176.142C154 176.142 153.991 176.142 153.982 176.138C153.946 176.124 153.932 176.084 153.946 176.048L154.565 174.664C154.579 174.628 154.619 174.615 154.656 174.628C154.692 174.642 154.705 174.682 154.692 174.719L154.072 176.102C154.063 176.129 154.036 176.142 154.009 176.142Z" fill="#389FE5"/>
<path d="M153.358 177.602C153.349 177.602 153.34 177.602 153.331 177.598C153.295 177.584 153.281 177.544 153.295 177.507L153.544 176.951C153.557 176.915 153.598 176.902 153.634 176.915C153.67 176.929 153.684 176.97 153.67 177.006L153.422 177.562C153.408 177.589 153.381 177.602 153.358 177.602Z" fill="#389FE5"/>
<path d="M153.114 175.803C153.105 175.803 153.096 175.803 153.087 175.799C153.051 175.785 153.037 175.745 153.051 175.708L153.141 175.51C153.155 175.473 153.196 175.46 153.232 175.473C153.268 175.487 153.282 175.528 153.268 175.564L153.178 175.763C153.164 175.79 153.137 175.803 153.114 175.803Z" fill="#389FE5"/>
<g opacity="0.5">
<path d="M136.711 174.841C135.779 173.015 135.531 170.8 136.353 168.879C136.448 168.662 136.548 168.44 136.656 168.223C135.477 171.36 136.946 175.198 140.187 176.527C142.908 177.643 145.412 177.191 147.803 175.003C148.305 174.547 148.861 174.307 149.552 174.506C150.19 174.692 150.714 175.153 151.37 175.297C151.469 175.32 151.573 175.333 151.668 175.297C151.758 175.266 151.826 175.198 151.894 175.13C152.432 174.569 152.78 173.86 152.961 173.1C152.988 173.141 153.01 173.182 153.028 173.227C153.254 173.774 152.843 174.321 152.626 174.795C152.369 175.361 152.111 175.93 151.853 176.495C151.668 176.902 151.492 177.603 151.003 177.752C150.533 177.919 150.036 177.512 149.593 177.39C148.436 177.069 147.179 177.521 146.122 177.987C144.91 178.516 142.926 178.24 141.597 178.127C139.133 177.919 137.823 177.028 136.711 174.841Z" fill="#95E2F9"/>
</g>
<path d="M133.569 186.322C133.569 187.61 152.789 188.65 176.502 188.65C200.215 188.65 219.435 187.606 219.435 186.322C219.435 185.034 200.215 183.994 176.502 183.994C152.789 183.994 133.569 185.034 133.569 186.322Z" fill="#E6ECEF"/>
<path d="M187.386 179.65C187.386 179.65 187.26 182.959 187.432 183.718C187.567 184.315 189.421 184.373 189.647 184.057C189.873 183.741 190.162 179.899 190.162 179.899" fill="#FFBE9D"/>
<path d="M190.162 184.595C190.162 185.015 190.37 186.267 189.859 186.267H187.743C187.743 186.267 186.907 186.267 186.338 186.267H184.448C183.065 186.267 182.279 186.091 182.242 185.847C182.098 184.853 186.934 183.176 187.395 183.18C187.418 183.18 187.432 183.185 187.454 183.194C187.522 183.216 187.676 183.293 187.793 183.497C188.114 184.048 188.828 184.297 189.407 184.021C189.529 183.962 189.637 183.89 189.732 183.79C189.728 183.786 190.162 183.958 190.162 184.595Z" fill="#4C4051"/>
<path d="M207.406 180.396C207.406 180.396 207.989 181.965 208.242 182.489C208.496 183.013 210.231 182.367 210.322 182.01C210.412 181.648 209.002 178.954 209.002 178.954" fill="#FFBE9D"/>
<path d="M211.122 182.335C211.669 183.429 211.538 183.94 211.366 184.044L209.915 184.916C209.91 184.921 209.91 184.921 209.906 184.921C209.856 184.943 209.241 185.26 208.767 185.554C208.355 185.811 207.628 186.123 207.153 186.232C205.67 186.575 204.522 186.408 204.405 186.205C203.93 185.377 207.601 182.2 208.021 182.028C208.044 182.019 208.057 182.019 208.08 182.019C208.152 182.019 208.324 182.032 208.5 182.182C208.862 182.48 209.359 182.579 209.761 182.331C209.987 182.191 210.195 181.996 210.299 181.743C210.299 181.743 210.851 181.793 211.122 182.335Z" fill="#4C4051"/>
<path d="M209.544 179.257C209.585 179.352 209.549 179.465 209.467 179.524C208.148 180.473 207.221 180.568 207.221 180.568C207.221 180.563 207.216 180.559 207.212 180.559C206.904 180.075 197.276 164.869 195.428 161.918C195.392 161.854 195.351 161.796 195.319 161.741C195.31 161.732 195.301 161.728 195.301 161.71C195.17 161.502 195.071 161.303 195.003 161.122C194.989 161.086 194.971 161.045 194.958 161.018C194.908 160.896 194.872 160.783 194.858 160.702C194.845 160.638 194.831 160.58 194.822 160.512C194.822 160.503 194.813 160.494 194.813 160.48C194.555 159.169 193.941 156.918 193.195 154.301C192.77 152.819 192.309 151.218 191.848 149.6C191.482 148.334 191.115 147.073 190.781 145.88L188.091 135.425C188.055 135.289 188.155 135.154 188.295 135.145L190.451 135C193.19 134.815 196.531 133.436 197.24 133.129C197.326 133.092 197.426 133.115 197.489 133.178C200.626 136.315 200.029 140.252 199.65 142.223C199.65 142.228 199.645 142.232 199.645 142.237C199.473 143.141 199.424 144.067 199.491 144.985C199.708 147.819 200.129 153.103 200.169 156.783C200.169 156.787 200.169 156.787 200.169 156.792C200.178 156.896 200.328 159.084 202.42 161.683C202.818 162.112 203.198 162.578 203.532 163.088C206.656 167.803 207.809 175.13 209.544 179.257Z" fill="#285FAF"/>
<path opacity="0.35" d="M207.207 180.559C206.9 180.075 197.272 164.869 195.423 161.918C195.387 161.854 195.346 161.796 195.315 161.741C195.306 161.732 195.297 161.728 195.297 161.71C195.166 161.502 195.066 161.303 194.998 161.122C194.985 161.086 194.967 161.045 194.953 161.018C194.903 160.896 194.867 160.783 194.854 160.702C194.84 160.638 194.827 160.58 194.818 160.512C194.818 160.503 194.809 160.494 194.809 160.48C194.551 159.178 193.945 156.959 193.208 154.369C193.195 154.324 193.195 154.274 193.213 154.229L197.512 142.698C197.543 142.612 197.629 142.553 197.72 142.553H198.85C199.003 142.553 199.112 142.702 199.062 142.847C198.678 144.004 197.263 148.321 196.63 150.427C195.898 152.864 195.699 156.683 195.631 158.08C195.487 161.149 199.261 166.361 200.341 168.26C201.498 170.294 206.778 179.714 207.207 180.559Z" fill="#5275A0"/>
<path d="M197.34 144.442C197.661 144.293 198.958 143.561 199.781 141.242C199.817 141.143 199.781 141.03 199.69 140.975C198.438 140.18 189.714 134.728 187.626 135.393C186.984 135.601 185.773 155.892 185.782 156.326C185.786 156.538 185.773 158.74 185.782 158.993C185.917 162.451 187.133 179.655 187.264 181.562C187.273 181.666 187.346 181.747 187.45 181.766C187.784 181.82 188.607 181.928 189.818 181.924C189.904 181.851 189.958 181.802 190.044 181.729C190.591 177.114 192.969 168.422 191.771 162.975C191.757 162.907 191.748 162.839 191.735 162.772C191.726 162.663 191.712 162.523 191.694 162.342C191.405 159.933 191.396 160.638 192.056 157.601C192.06 157.587 192.06 157.578 192.065 157.569C193.538 153.772 196.318 146.852 197.231 144.56C197.254 144.501 197.29 144.465 197.34 144.442Z" fill="#285FAF"/>
<path d="M200.965 120.834C200.956 121.991 200.884 123.143 200.793 124.255C200.671 125.616 200.504 126.913 200.332 128.089C199.925 130.891 199.478 132.97 199.523 133.472C199.555 133.779 199.668 134.082 199.808 134.367C200.002 134.778 199.672 135.059 199.672 135.059C199.487 135.14 199.293 135.212 199.094 135.289C194.207 137.075 187.011 135.556 187.011 135.556C186.713 135.579 186.415 135.343 186.532 134.778C186.622 134.354 187.07 132.274 187.056 131.84C187.038 131.433 187.156 130.059 187.386 128.152C187.468 127.474 187.563 126.737 187.676 125.946C187.766 125.277 187.875 124.576 187.983 123.849C188.119 123.003 188.227 122.176 188.34 121.372C188.462 120.458 188.58 119.573 188.706 118.7C188.941 117.19 189.208 115.739 189.615 114.334C189.945 113.172 190.374 112.037 190.944 110.934C192.304 108.313 195.604 107.901 196.174 107.852C196.228 107.847 196.282 107.856 196.323 107.888C198.782 109.533 200.038 112.358 200.59 115.563C200.893 117.258 200.988 119.057 200.965 120.834Z" fill="#389FE5"/>
<path opacity="0.08" d="M196.07 113.967C195.875 116.408 194.967 124.278 191.21 127.772C191.192 127.785 191.179 127.799 191.161 127.808C190.966 127.912 189.8 128.472 187.612 128.183C187.49 128.165 187.4 128.057 187.413 127.934C187.558 126.746 187.748 125.372 187.974 123.907C187.978 123.871 187.997 123.835 188.019 123.803L188.959 117.208C188.959 117.208 189.918 114.017 191.201 112.729C192.015 111.915 195.667 113.813 195.667 113.813C195.803 113.642 196.088 113.746 196.07 113.967Z" fill="black"/>
<path d="M177.519 138.187C177.519 138.187 176.515 138.652 176.158 139.366H177.596" fill="#F2A181"/>
<path d="M168.677 162.374L168.695 177.327L153.435 177.345V162.392L168.677 162.374Z" fill="#FDCF33"/>
<path d="M153.435 162.374V177.331H149.878L149.864 162.379L153.435 162.374Z" fill="#FFD86C"/>
<path d="M170.626 166.157H155.365L153.435 162.374H168.695L170.626 166.157Z" fill="#F4BF2A"/>
<path d="M138.166 178.357H173.568C174.712 178.357 175.643 177.426 175.643 176.283V140.695C175.643 140.415 175.874 140.184 176.154 140.184H182.224C182.518 140.184 182.758 139.945 182.758 139.651C182.758 139.357 182.518 139.118 182.224 139.118H176.154C175.281 139.118 174.576 139.827 174.576 140.695V176.283C174.576 176.839 174.124 177.291 173.568 177.291H138.166C137.872 177.291 137.633 177.53 137.633 177.824C137.633 178.118 137.872 178.357 138.166 178.357Z" fill="#C1CED6"/>
<path d="M172.531 183.673C173.223 181.667 172.158 179.48 170.152 178.788C168.146 178.096 165.959 179.161 165.267 181.167C164.575 183.173 165.641 185.36 167.646 186.052C169.652 186.744 171.839 185.679 172.531 183.673Z" fill="#B3EAFF"/>
<path d="M168.912 184.396C170.001 184.396 170.883 183.514 170.883 182.425C170.883 181.337 170.001 180.455 168.912 180.455C167.824 180.455 166.942 181.337 166.942 182.425C166.942 183.514 167.824 184.396 168.912 184.396Z" fill="white"/>
<path d="M147.677 183.903C148.494 181.944 147.568 179.695 145.609 178.878C143.65 178.062 141.4 178.988 140.584 180.947C139.768 182.906 140.694 185.155 142.653 185.972C144.611 186.788 146.861 185.862 147.677 183.903Z" fill="#B3EAFF"/>
<path d="M142.148 182.425C142.148 183.515 143.03 184.396 144.119 184.396C145.209 184.396 146.09 183.515 146.09 182.425C146.09 181.336 145.209 180.455 144.119 180.455C143.03 180.455 142.148 181.341 142.148 182.425Z" fill="white"/>
<path d="M195.206 115.558C195.392 114.587 195.482 113.872 195.464 113.615C195.251 111.63 193.154 111.992 192.774 112.232C192.336 112.498 191.238 113.357 190.004 117.014C189.154 119.532 188.648 121.475 188.331 122.687C188.232 123.048 188.092 123.487 187.979 123.858L190.505 127.483C192.585 126.181 194.528 119.12 195.206 115.558Z" fill="#FFBE9D"/>
<path d="M186.609 126.732C185.501 128.342 181.451 134.607 179.625 136.876L181.027 137.979C181.085 137.884 181.144 137.78 181.216 137.68C181.221 137.671 181.836 137.269 181.849 137.26C183.074 135.917 184.444 134.783 186.406 132.789C188.435 130.719 190.311 128.55 191.07 127.216C191.156 127.062 192.268 125.281 192.282 125.078L188.236 123.044C188.29 123.121 187.414 125.566 186.609 126.732Z" fill="#FFBE9D"/>
<path d="M180.172 136.162C180.172 136.162 179.521 137.052 179.087 137.274C178.658 137.495 178.021 137.965 177.591 138.141C177.162 138.318 176.308 140.37 176.579 140.623C176.845 140.876 178.495 141.306 179.485 140.822C180.43 140.356 180.077 139.724 180.312 139.339C180.891 138.381 181.84 137.255 181.84 137.255L181.515 136.609L180.172 136.162Z" fill="#FFBE9D"/>
<path d="M196.382 107.888C196.282 108.064 196.16 108.227 196.015 108.362C196.011 108.367 196.006 108.371 196.006 108.371C195.129 109.221 193.57 109.379 192.901 109.407C192.752 109.411 192.643 109.28 192.675 109.135C192.729 108.855 192.752 108.353 192.512 107.576C192.476 107.454 192.336 107.391 192.218 107.436C191.084 107.856 190.013 108.06 189.33 107.793C189.294 107.779 189.262 107.757 189.235 107.725C188.756 107.21 188.349 106.586 188.006 105.899C187.965 105.813 187.875 105.763 187.78 105.777C187.463 105.822 187.011 105.831 186.916 105.569C186.794 105.23 187.025 104.032 187.12 103.585C187.115 103.571 187.111 103.553 187.106 103.535C187.124 103.205 187.224 102.798 187.115 102.396C187.088 102.287 186.853 102.161 186.794 102.075C186.302 101.302 186.089 100.249 186.026 99.878C186.012 99.7921 186.044 99.7153 186.112 99.6656C186.595 99.3175 188.53 97.9298 188.684 97.8982C188.864 97.8575 193.312 97.0393 193.466 97.1026C193.62 97.1659 195.871 99.8102 196.165 102.69C196.278 103.806 196.043 104.633 195.69 105.239H195.694C195.694 105.243 195.654 107.264 196.382 107.888Z" fill="#FFBE9D"/>
<path d="M189.38 117.516C190.171 118.474 193.321 119.545 194.632 119.636C195.365 117.733 197.756 111.581 195.093 110.514C192.155 109.334 190.392 113.895 189.38 117.516Z" fill="#389FE5"/>
<path opacity="0.5" d="M196.007 108.371C195.13 109.221 193.57 109.379 192.901 109.407C192.752 109.411 192.643 109.28 192.675 109.135C192.734 108.846 192.752 108.322 192.49 107.504C192.463 107.413 192.49 107.314 192.562 107.255C192.752 107.106 193.127 106.789 193.453 106.423C193.593 106.265 193.85 106.369 193.841 106.581L193.746 108.611C193.742 108.733 193.828 108.837 193.95 108.846C194.384 108.878 195.365 108.891 196.007 108.371Z" fill="#FFBE9D"/>
<path d="M186.51 100.927C188.123 101.853 190.844 100.94 191.527 101.342C192.21 101.74 192.463 103.426 192.775 103.476C193.109 103.53 193.032 103.024 192.992 102.409C192.951 101.794 192.851 101.098 193.932 101.302C194.411 101.388 194.691 102.775 195.035 103.86C195.297 104.683 195.505 105.063 195.654 105.23C195.753 105.343 195.939 105.316 196.011 105.189C197.751 102.156 197.403 95.4481 192.779 95.4933C192.729 95.4933 192.684 95.4797 192.643 95.4481C192.381 95.2402 191.238 94.4265 189.791 94.5802C189.782 94.5847 189.769 94.5802 189.76 94.5847C188.444 94.7203 184.543 96.0312 183.865 97.333C183.074 98.8654 185.678 100.443 186.51 100.927Z" fill="#153351"/>
<g opacity="0.6">
<path d="M199.03 93.7214L197.069 94.7656L198.049 92.2207" fill="#389FE5"/>
<path d="M200.969 94.6074C203.259 94.6074 205.114 92.7516 205.114 90.4624C205.114 88.1732 203.259 86.3174 200.969 86.3174C198.68 86.3174 196.824 88.1732 196.824 90.4624C196.824 92.7516 198.68 94.6074 200.969 94.6074Z" fill="#389FE5"/>
</g>
<path opacity="0.5" d="M203.266 90.8872C203.311 90.7154 203.338 90.5346 203.338 90.3493C203.338 90.1775 203.316 90.0103 203.279 89.8476L202.9 89.8882C202.854 89.6939 202.778 89.5085 202.678 89.3413L202.981 89.1017C202.891 88.948 202.782 88.8034 202.651 88.6723C202.601 88.6226 202.547 88.5729 202.493 88.5277C202.479 88.5141 202.466 88.5051 202.448 88.4915C202.384 88.4418 202.321 88.4011 202.253 88.3604L202.014 88.6633C201.996 88.6497 201.973 88.6407 201.955 88.6271C201.932 88.6136 201.91 88.6 201.887 88.591C201.756 88.5231 201.616 88.4689 201.471 88.4282L201.512 88.044C201.34 87.9988 201.159 87.9717 200.974 87.9717C200.802 87.9717 200.635 87.9943 200.472 88.0304L200.513 88.4147C200.319 88.4599 200.133 88.5367 199.966 88.6316L199.726 88.3288C199.573 88.4192 199.428 88.5277 199.297 88.6588C199.175 88.7808 199.071 88.9164 198.985 89.0565L199.284 89.2961C199.18 89.4633 199.103 89.6442 199.048 89.8385L198.669 89.7978C198.624 89.9696 198.596 90.1504 198.596 90.3357C198.596 90.5075 198.619 90.6748 198.655 90.8375L199.035 90.7968C199.08 90.9912 199.157 91.1765 199.256 91.3437L198.958 91.5833C199.048 91.737 199.157 91.8816 199.288 92.0127C199.41 92.1348 199.546 92.2387 199.686 92.3246L199.925 92.0263C200.093 92.1303 200.273 92.2071 200.468 92.2613L200.427 92.641C200.599 92.6862 200.78 92.7134 200.965 92.7134C201.137 92.7134 201.304 92.6908 201.467 92.6546L201.426 92.2794C201.62 92.2342 201.806 92.1574 201.973 92.0579L202.213 92.3563C202.366 92.2659 202.511 92.1574 202.642 92.0263C202.764 91.9042 202.868 91.7686 202.954 91.6285L202.656 91.3889C202.76 91.2217 202.836 91.0409 202.886 90.8465L203.266 90.8872ZM202.185 90.39C202.167 91.0273 201.648 91.5472 201.01 91.5652C200.305 91.5878 199.731 91.0138 199.754 90.3086C199.772 89.6713 200.292 89.1515 200.929 89.1334C201.634 89.1108 202.208 89.6848 202.185 90.39Z" fill="white"/>
<path d="M88.1322 9.34776C87.6893 9.52857 87.3502 9.94894 87.2689 10.419C87.1875 10.8891 87.3683 11.3999 87.7254 11.7163C87.3141 11.7299 87.0383 12.2 87.0881 12.6113C87.1378 13.0227 87.4135 13.3617 87.6983 13.6645C88.0237 14.0081 88.417 14.3516 88.8916 14.3606C89.2352 14.3652 89.5561 14.1934 89.8092 13.9629C89.99 13.7956 90.1437 13.5967 90.2341 13.3707C90.3381 13.1131 90.3652 12.8328 90.3878 12.5526C90.4692 11.5762 90.5505 10.6044 90.6364 9.62801C90.6545 9.42912 90.659 9.20311 90.5234 9.06299" fill="#153351"/>
<path d="M96.5305 15.7847C96.5938 17.0503 96.5034 19.2562 96.8695 19.5861C97.2312 19.9116 99.7851 19.9026 99.7851 19.9026C99.7851 19.9026 94.2117 25.155 93.841 24.8612C93.4658 24.5719 88.5162 20.5354 89.6282 20.3275C90.7402 20.1195 91.8295 20.1647 91.7979 19.5861C91.7663 19.0121 91.7346 18.4335 91.703 17.8594" fill="#FFBE9D"/>
<g opacity="0.5">
<path d="M96.5305 15.7847C96.5938 17.0503 96.5034 19.2562 96.8695 19.5861C97.2312 19.9116 99.7851 19.9026 99.7851 19.9026C99.7851 19.9026 94.2117 25.155 93.841 24.8612C93.4658 24.5719 88.5162 20.5354 89.6282 20.3275C90.7402 20.1195 91.8295 20.1647 91.7979 19.5861C91.7663 19.0121 91.7346 18.4335 91.703 17.8594" fill="#FFBE9D"/>
</g>
<path d="M104.663 34.878L102.163 43.1047L101.3 44.0494C101.3 44.0494 93.8141 44.8992 91.5269 45.0032C91.4275 45.0077 91.3371 45.0123 91.2557 45.0123C89.3753 45.0529 89.4702 44.0721 89.4702 44.0721C89.4521 43.6336 89.4205 43.0641 89.3798 42.4267C89.2216 40.0717 88.9414 36.772 88.634 35.4747C88.2724 33.9288 88.1097 33.3592 87.7932 31.8947C87.0926 28.6356 87.1242 28.0163 86.3784 23.9934L91.2557 20.0744C91.2557 20.0744 91.762 21.5751 93.8051 21.5977C96.5398 21.6338 97.3896 19.7173 97.3896 19.7173L104.039 24.138L104.663 34.878Z" fill="#B0EEFF"/>
<path d="M96.6211 14.6367C96.4719 15.2741 96.2821 15.9024 96.047 16.5126C95.6176 17.6336 94.9803 18.0359 93.796 18.063C92.9643 18.0811 92.128 18.1037 91.2963 18.1218C90.6545 18.1353 89.8589 18.1579 89.3436 17.7104C88.8328 17.2675 88.8193 16.5171 88.7063 15.8978C88.5616 15.1068 88.4441 14.3158 88.3537 13.5202C88.1774 11.9608 88.1006 10.3877 88.1322 8.81471C88.1367 8.59774 88.1412 8.38077 88.1864 8.17284C88.2045 8.08696 88.2316 7.99655 88.2949 7.93779C88.3718 7.86095 88.4893 7.83835 88.5932 7.82027C90.1527 7.57166 91.7393 7.47221 93.3214 7.51741C94.4379 7.54905 95.6221 7.68014 96.5036 8.36269C97.3941 9.04976 97.8144 10.1662 98.1941 11.224C98.2574 11.3957 98.3026 11.6217 98.1534 11.7257" fill="#FFBE9D"/>
<path d="M78.7571 71.5548C78.7571 71.5548 79.0192 73.1233 79.2272 73.6612C79.4351 74.1991 81.198 73.7019 81.311 73.3584C81.4285 73.0103 80.755 70.4609 80.755 70.4609" fill="#ED9C80"/>
<path d="M81.9258 73.8013C82.0795 74.3799 82.2694 75.4918 82.2694 75.4918L80.511 76.2603L80.2217 75.9891C80.2217 75.9891 79.7833 76.5179 79.2454 76.7665C78.8431 76.9519 77.9797 77.1914 77.5413 77.2366C76.0044 77.4039 74.8744 77.1146 74.784 76.9021C74.4043 76.0117 76.4429 75.7721 76.8452 75.6681C78.0068 75.3607 78.6532 74.3753 78.7753 73.7335C78.8657 73.2679 78.7482 73.1865 79.0103 73.2001C79.0103 73.2001 79.2409 73.1865 79.4488 73.408C79.7742 73.7425 80.2624 73.8962 80.7009 73.6973C80.9495 73.5843 81.1845 73.4171 81.3247 73.1775C81.3247 73.173 81.7722 73.2227 81.9258 73.8013Z" fill="#1F3A71"/>
<path d="M91.5268 45.0033L86.532 51.0468C86.3331 51.0874 86.1342 51.1236 85.9353 51.1552C84.6516 51.3677 83.2413 51.4807 81.8355 51.4988C80.3529 51.5214 78.8748 51.4355 77.5504 51.2592C77.9391 52.3757 78.8929 53.8041 79.2545 55.3726C80.4523 60.5527 80.8682 67.5138 81.1756 71.817C81.1756 71.817 80.597 72.9199 78.7527 72.0792C75.9999 65.2763 71.1905 51.4852 71.2357 48.4974C71.2447 47.7922 71.6244 47.1458 72.3069 46.5582C72.3431 46.522 72.3793 46.4949 72.4154 46.4633C73.1748 45.844 74.2732 45.288 75.6428 44.8044C75.6835 44.7953 75.7197 44.7773 75.7604 44.7637C79.0239 43.6201 83.7656 42.8517 89.0181 42.4539C89.0588 42.4494 89.0994 42.4494 89.1401 42.4448C89.217 42.4403 89.2983 42.4313 89.3797 42.4268V42.4313C89.4204 43.0686 89.452 43.6336 89.4701 44.0721C89.4701 44.0721 89.3752 45.053 91.2556 45.0123C91.3369 45.0123 91.4273 45.0078 91.5268 45.0033Z" fill="#285FAF"/>
<g opacity="0.35">
<path d="M91.5267 45.0031L86.5319 51.0466C86.333 51.0873 86.1342 51.1235 85.9353 51.1551C84.5566 51.3902 83.2006 51.4986 81.8355 51.4986C81.6863 51.2139 81.5507 50.9201 81.4874 50.6082C81.4015 50.1923 81.4467 49.7584 81.3744 49.3425C81.2343 48.5289 80.6466 47.8373 79.9415 47.4124C79.2364 46.983 78.4137 46.7841 77.6 46.653C75.7649 46.3592 72.6369 46.5355 72.3069 46.5581C72.2888 46.5581 72.2798 46.5581 72.2798 46.5581C72.325 46.5264 72.3702 46.4903 72.4154 46.4632C73.333 45.8077 74.4359 45.2608 75.6428 44.8043C75.6835 44.7952 75.7196 44.7771 75.7603 44.7636C80.0997 43.1589 85.759 42.6707 89.018 42.4538C89.0587 42.4492 89.0994 42.4492 89.1401 42.4447C89.2214 42.4402 89.3028 42.4357 89.3797 42.4312C89.4203 43.0685 89.452 43.6335 89.4701 44.072C89.4701 44.072 89.3751 45.0529 91.2555 45.0122C91.3369 45.0122 91.4273 45.0077 91.5267 45.0031Z" fill="#5275A0"/>
</g>
<path d="M83.3001 75.18C83.3001 75.18 83.2865 76.7711 83.3995 77.3362C83.5125 77.9012 85.3296 77.7204 85.5059 77.3994C85.6822 77.0785 85.4607 74.4478 85.4607 74.4478" fill="#ED9C80"/>
<path d="M86.0303 77.9375C86.08 78.5341 86.0755 79.6597 86.0755 79.6597L84.2086 80.1072L83.9691 79.7908C83.9691 79.7908 83.4493 80.2382 82.8707 80.3874C82.4458 80.5004 81.5508 80.5863 81.1123 80.5592C79.5709 80.4552 78.5087 79.9761 78.4544 79.7501C78.233 78.8099 80.2806 78.9274 80.6965 78.8912C81.8943 78.7918 82.6989 77.933 82.9339 77.3227C83.1012 76.8798 83.0018 76.7803 83.2594 76.8391C83.2594 76.8391 83.4854 76.8662 83.6572 77.1193C83.9193 77.5081 84.3759 77.7431 84.8369 77.6211C85.1036 77.5533 85.3613 77.4312 85.5421 77.2188C85.5511 77.2142 85.9806 77.3408 86.0303 77.9375Z" fill="#1F3A71"/>
<path d="M103.456 43.1048C104.188 44.8089 104.671 47.8961 103.935 49.216C103.288 50.3732 102.985 51.0919 101.883 51.4535C97.1815 53.013 92.7291 52.3711 87.558 51.6841C89.7503 57.601 86.5726 70.2801 86.0799 75.6546C84.0911 76.536 82.9655 75.6004 82.9655 75.6004C83.1915 64.6615 80.7506 49.3788 82.2287 46.7661C83.1237 45.175 93.8321 43.0776 94.0445 43.1048" fill="#285FAF"/>
<path d="M95.2513 12.7199C95.3417 12.3448 95.9248 12.3176 96.1915 12.5979C96.4582 12.8781 96.4853 13.303 96.4989 13.6873C96.517 14.1664 96.2819 14.6546 96.0288 15.0614C95.7757 15.4682 95.4005 15.7033 95.0524 15.3688C95.0253 16.0694 95.5858 16.6344 96.0785 16.6661C96.5667 16.6977 97.0549 16.3587 97.1995 15.8886C99.315 16.6661 99.984 13.6014 100.115 12.069C100.214 10.8667 99.8167 9.40664 99.1613 8.39864C98.8042 7.84717 98.2663 7.39064 97.6289 7.24147C97.5657 6.464 96.9961 5.79953 96.3181 5.41079C95.6401 5.02206 95.0298 4.84577 94.2659 4.69208C93.7913 4.59716 92.5076 4.94069 92.268 5.42435C91.3685 4.90905 90.5684 5.40627 89.8542 5.48764C89.14 5.57352 88.3445 6.23347 88.6518 6.88437C87.5308 6.54536 86.3149 7.82005 86.6494 8.94106C86.9839 10.0621 88.6066 10.5005 89.5062 9.74565C89.8361 10.4779 90.6724 10.8938 91.4724 10.8983C92.277 10.9028 93.0455 10.5593 93.719 10.1253C93.493 10.5412 93.4206 11.1062 93.6376 11.5899C93.8546 12.0735 94.0354 12.4306 94.7496 12.2815C94.7496 12.2815 94.6863 13.3934 94.9394 13.2895C95.188 13.1946 95.2513 12.7199 95.2513 12.7199Z" fill="#153351"/>
<path d="M80.9359 40.3294C83.7882 36.2206 85.3115 32.9796 87.793 28.6357L91.2555 20.0654C91.2555 20.0654 90.0893 20.1287 89.8633 20.1468C88.8914 20.2236 87.9015 20.3502 86.9794 20.6937C85.655 21.1819 84.2899 22.086 83.648 23.3742C83.074 24.5269 82.7214 25.7789 82.2377 26.9678C81.6953 28.2967 81.1167 29.6121 80.5381 30.9274C79.3855 33.5356 78.2057 36.1347 77.2339 38.8197" fill="#B0EEFF"/>
<path d="M87.3139 29.4855L86.8528 26.7056L83.4355 34.1865L84.5701 34.4577L87.3139 29.4855Z" fill="#B0D9EF"/>
<path d="M103.718 23.9886C104.007 29.2907 103.853 34.611 103.239 39.886C103.062 41.3822 102.796 42.8739 102.665 44.3746C102.647 44.569 102.954 44.6051 102.999 44.4198C103.32 43.1361 103.474 41.8026 103.636 40.4918C103.799 39.1764 103.93 37.852 104.03 36.5321C104.233 33.8652 104.314 31.1937 104.274 28.5223C104.251 27.0126 104.17 25.4983 104.061 23.9931C104.052 23.7671 103.709 23.7625 103.718 23.9886Z" fill="black"/>
<path d="M73.061 44.811H99.4363V43.8618H73.061V44.811Z" fill="#AABDE2"/>
<path d="M68.3562 44.8087H89.47L85.6821 32.464C85.4742 31.7815 84.8413 31.3159 84.1317 31.3159H65.6396C64.9299 31.3159 64.4237 31.9985 64.6316 32.6765L68.3562 44.8087Z" fill="#AABDE2"/>
<path d="M68.0896 44.8087H88.887L85.0991 32.464C84.8912 31.7815 84.2629 31.3159 83.5487 31.3159H65.0566C64.3469 31.3159 63.8407 31.9985 64.0486 32.6765L67.6738 44.5013C67.7325 44.6866 67.8998 44.8087 68.0896 44.8087Z" fill="#E1E8F9"/>
<path d="M77.781 38.2047C77.781 39.3799 76.8272 40.3337 75.652 40.3337C74.4767 40.3337 73.5229 39.3799 73.5229 38.2047C73.5229 37.0294 74.4767 36.0757 75.652 36.0757C76.8317 36.0757 77.781 37.0294 77.781 38.2047Z" fill="#AABDE2"/>
<path d="M100.87 26.2264C99.7805 31.1443 99.437 36.8126 99.1296 40.3293C95.0524 40.6322 93.9088 42.1962 90.1706 43.8596C90.1706 43.8596 87.2189 43.3714 86.9116 44.4834C86.7308 45.1253 90.365 45.636 90.365 45.636C93.8274 45.6541 102.221 44.0314 102.836 43.8596C103.455 43.6878 105.996 31.1714 106.068 24.8703C106.077 23.9753 106.046 23.0035 105.485 22.3074C105.191 21.9412 104.775 21.6881 104.359 21.4756C101.923 20.2281 100.12 19.8891 97.3848 19.7173" fill="#B0D9EF"/>
<path d="M90.6859 44.6233C90.2746 44.108 89.5288 44.0311 88.8688 44.0492C88.3806 44.0628 87.8925 44.0989 87.4088 44.1667C87.1873 44.1984 86.9342 44.2481 86.9116 44.4877C86.889 44.7272 87.9829 44.4877 88.5569 44.6549C87.4314 44.7498 86.3059 44.7815 85.1758 44.7453C85.0447 44.7408 84.9091 44.7363 84.7871 44.786C84.6651 44.8357 84.5611 44.9487 84.5701 45.0798C84.5746 45.1838 84.647 45.2697 84.7238 45.3375C85.0402 45.6222 85.4696 45.7307 85.8855 45.8076C87.6077 46.1104 89.4203 46.0562 91.0204 45.3556" fill="#ED9C80"/>
<path d="M100.87 26.2261C100.78 31.4831 100.029 36.2564 100.133 41.5134C96.0559 41.8162 93.9812 42.6073 90.2475 44.2707C90.2475 44.2707 90.026 45.012 90.3696 45.6403C90.6543 45.7443 102.57 45.2425 103.55 44.3385C104.432 43.5249 106 31.1757 106.073 24.8791C106.082 23.9841 106.05 23.0122 105.49 22.3161C105.196 21.95 104.78 21.6969 104.364 21.4844C101.928 20.2369 100.124 19.8978 97.3894 19.7261" fill="#B0EEFF"/>
<path d="M88.86 12.4668C88.86 12.4668 87.6034 14.6726 87.7932 14.9574C87.9876 15.2422 89.4657 14.9574 89.4657 14.9574" fill="#FFBE9D"/>
<g opacity="0.5">
<path d="M82.2107 6.06152L83.8154 6.92036L83.0153 4.83203" fill="#389FE5"/>
<path d="M83.8154 3.39466C83.8154 5.27054 82.2967 6.78932 80.4208 6.78932C78.5449 6.78932 77.0261 5.27054 77.0261 3.39466C77.0261 1.51878 78.5449 0 80.4208 0C82.2967 0 83.8154 1.51878 83.8154 3.39466Z" fill="#389FE5"/>
</g>
<path d="M78.9924 3.06935L80.023 4.35308L81.8537 2.43652" stroke="white" stroke-width="0.75" stroke-miterlimit="10" stroke-linecap="round" stroke-linejoin="round"/>
</g>
<defs>
<clipPath id="clip0_148_1501">
<rect width="230.53" height="188.65" fill="white" transform="translate(0.332031)"/>
</clipPath>
</defs>
</svg>
