<svg width="9" height="11" viewBox="0 0 9 11" fill="none" xmlns="http://www.w3.org/2000/svg">
<path d="M0.736785 6.50162C0.736785 5.66853 0.736271 4.83545 0.737043 4.00236C0.7373 3.73794 0.885698 3.55688 1.13106 3.51533C1.40213 3.46957 1.65624 3.66077 1.67655 3.92643C1.67938 3.96501 1.6781 4.0041 1.6781 4.04293C1.6781 5.67026 1.6781 7.29784 1.6781 8.92518C1.6781 9.46639 2.06157 9.83445 2.62532 9.83469C3.87295 9.83469 5.12083 9.83469 6.36845 9.83469C6.93195 9.83469 7.31568 9.46614 7.31568 8.92518C7.31568 7.28375 7.31568 5.64207 7.31594 4.00063C7.31594 3.74635 7.45739 3.5648 7.6886 3.51904C7.95428 3.46635 8.20144 3.62837 8.2467 3.8871C8.25519 3.93558 8.25699 3.9853 8.25699 4.03452C8.25751 5.66903 8.25776 7.30353 8.25725 8.93779C8.25699 9.8337 7.63408 10.5535 6.719 10.7135C6.61124 10.7323 6.50013 10.739 6.39057 10.7393C5.12803 10.741 3.86575 10.7412 2.60321 10.74C1.55413 10.739 0.738328 9.9554 0.736785 8.94818C0.735757 8.13266 0.736785 7.31714 0.736785 6.50162Z" fill="white"/>
<path d="M6.37398 2.15007C6.49692 2.15007 6.60288 2.15007 6.7091 2.15007C7.21551 2.15007 7.72165 2.14784 8.22806 2.15106C8.57141 2.15328 8.79747 2.43378 8.70411 2.73357C8.64882 2.91117 8.48628 3.03856 8.29441 3.05389C8.26895 3.05587 8.24298 3.05562 8.21751 3.05562C5.73744 3.05562 3.25711 3.05587 0.777036 3.05538C0.477925 3.05538 0.266259 2.86393 0.268573 2.59901C0.270888 2.33954 0.480497 2.1513 0.775493 2.15031C1.34054 2.14858 1.90558 2.14982 2.47037 2.14982C2.51409 2.14982 2.55781 2.14982 2.61928 2.14982C2.61928 2.1048 2.61928 2.06795 2.61928 2.03084C2.61928 1.77681 2.61748 1.52253 2.6198 1.2685C2.62237 0.984293 2.81372 0.79581 3.10923 0.795068C4.03382 0.792595 4.95841 0.792595 5.88275 0.795068C6.17878 0.79581 6.37064 0.983551 6.37321 1.26751C6.37604 1.55642 6.37398 1.84508 6.37398 2.15007ZM3.56059 2.14042C4.18993 2.14042 4.81002 2.14042 5.42856 2.14042C5.42856 1.98879 5.42856 1.84681 5.42856 1.70607C4.80127 1.70607 4.1835 1.70607 3.56059 1.70607C3.56059 1.85225 3.56059 1.99176 3.56059 2.14042Z" fill="white"/>
<path d="M3.0874 6.44542C3.08765 5.91608 3.0856 5.38699 3.08843 4.85766C3.08971 4.63653 3.2502 4.45992 3.47421 4.41787C3.67739 4.37977 3.89729 4.48564 3.9801 4.67338C4.01071 4.74264 4.02639 4.82328 4.02665 4.89897C4.02948 5.92919 4.02948 6.95942 4.02819 7.98964C4.02768 8.27805 3.82682 8.48064 3.55188 8.47816C3.28183 8.47569 3.08791 8.27335 3.0874 7.99038C3.08688 7.47564 3.0874 6.96041 3.0874 6.44542Z" fill="white"/>
<path d="M5.90626 6.44739C5.90626 6.97302 5.9078 7.49889 5.90549 8.02451C5.90446 8.23798 5.76738 8.40568 5.55854 8.46134C5.35767 8.51477 5.13778 8.4371 5.03876 8.2595C4.99555 8.18208 4.96855 8.0861 4.96803 7.99829C4.9634 6.9609 4.96366 5.92375 4.96598 4.88635C4.96649 4.60734 5.17327 4.40772 5.4446 4.41168C5.71054 4.41539 5.90549 4.61649 5.906 4.89154C5.90703 5.40999 5.90626 5.92869 5.90626 6.44739Z" fill="white"/>
</svg>
