<svg width="12" height="11" viewBox="0 0 12 11" fill="none" xmlns="http://www.w3.org/2000/svg">
<path d="M11.111 2.24348C11.0797 2.37362 11.0556 2.50609 11.0154 2.63389C10.9144 2.95418 10.731 3.22744 10.4852 3.46356C9.29575 4.60702 8.10737 5.75126 6.9179 6.89445C6.34585 7.44436 5.65362 7.71685 4.84524 7.71763C4.48225 7.71815 4.11952 7.71841 3.75652 7.71763C3.37975 7.71685 3.15747 7.5067 3.15801 7.14564C3.15855 6.72769 3.15341 6.30922 3.17124 5.89152C3.20095 5.19407 3.49562 4.60312 4.00473 4.11192C5.1969 2.96145 6.39015 1.81202 7.58745 0.666485C8.40176 -0.11279 9.63795 -0.132012 10.4798 0.620767C10.8196 0.924685 11.0149 1.30835 11.0875 1.74916C11.0932 1.78293 11.1032 1.81592 11.111 1.84916C11.111 1.98086 11.111 2.1123 11.111 2.24348ZM7.12587 2.57363C7.11695 2.58038 7.1075 2.58558 7.09994 2.59285C6.31479 3.34771 5.52884 4.10205 4.74504 4.85821C4.52006 5.07536 4.36665 5.33278 4.28724 5.63151C4.2 5.9588 4.24268 6.29155 4.23242 6.62196C4.23187 6.64119 4.2389 6.66067 4.24295 6.68379C4.442 6.68379 4.63593 6.68093 4.82958 6.68431C5.36192 6.69366 5.80703 6.50845 6.1811 6.14583C6.93032 5.4198 7.68441 4.69845 8.43633 3.97529C8.46334 3.94931 8.489 3.92204 8.50818 3.90255C8.04444 3.45681 7.58772 3.01756 7.12587 2.57363ZM7.90561 1.81046C8.37529 2.26218 8.8339 2.70325 9.30034 3.15185C9.47023 2.98093 9.65821 2.80923 9.82459 2.62013C10.1382 2.264 10.0982 1.70708 9.74815 1.37459C9.39542 1.0395 8.82445 1.00599 8.45254 1.31043C8.25916 1.46888 8.08306 1.64707 7.90561 1.81046Z" fill="white"/>
<path d="M0.0696064 5.6076C0.0696064 4.49817 0.0674457 3.38874 0.0704167 2.27931C0.0723073 1.51381 0.60465 0.888049 1.37467 0.742065C1.48325 0.721544 1.59587 0.711673 1.70661 0.711414C2.71998 0.709076 3.73335 0.709595 4.74672 0.710375C5.03382 0.710634 5.24017 0.851683 5.30958 1.08962C5.39169 1.37068 5.21316 1.66291 4.9166 1.72577C4.8507 1.7398 4.78129 1.74317 4.7135 1.74343C3.71444 1.74473 2.71539 1.74395 1.71633 1.74473C1.42977 1.74499 1.21964 1.89461 1.15914 2.14164C1.14537 2.19801 1.14483 2.25801 1.14483 2.31646C1.14429 4.51454 1.14402 6.71287 1.14456 8.91095C1.14456 9.27461 1.36171 9.48137 1.74091 9.48137C3.66718 9.48164 5.59317 9.48164 7.51944 9.48137C7.89675 9.48137 8.11364 9.27149 8.11417 8.90783C8.11472 8.39636 8.11282 7.8849 8.11499 7.37318C8.11634 7.09575 8.28406 6.89314 8.5474 6.84119C8.83072 6.78508 9.11377 6.96276 9.17184 7.23524C9.18264 7.28564 9.18804 7.33811 9.18831 7.38954C9.18939 7.90802 9.19264 8.4265 9.18804 8.94471C9.18129 9.72607 8.63653 10.3534 7.85111 10.4879C7.74551 10.5061 7.63666 10.5137 7.52944 10.5139C5.59615 10.5155 3.66259 10.5163 1.7293 10.5144C0.914982 10.5137 0.271902 10.0227 0.105798 9.27539C0.0790595 9.15486 0.0712269 9.02862 0.0709569 8.90497C0.0685261 7.80593 0.0696064 6.7069 0.0696064 5.6076Z" fill="white"/>
</svg>
