<svg width="35" height="35" viewBox="0 0 35 35" fill="none" xmlns="http://www.w3.org/2000/svg">
<path d="M34.2938 5.1673C34.2938 4.86112 34.2874 4.54741 34.2251 4.24983C33.6804 1.66178 31.6359 0.00302034 28.9877 0.00194602C21.099 -0.00127695 13.2102 -0.00020263 5.32037 0.00302034C4.81329 0.00302034 4.30943 0.0664055 3.81524 0.195324C1.68056 0.752899 -0.0265455 2.79197 0.000312623 5.2468C0.041137 8.84901 0.00998154 12.4523 0.0121302 16.0556C0.0132045 17.0998 0.0207248 18.1441 0.0260964 19.1894C0.932826 19.1905 1.83848 19.1915 2.74521 19.1937C2.75058 17.5467 2.75918 15.8998 2.7624 14.2529C2.76562 12.8734 2.77744 11.494 2.75381 10.1146C2.74736 9.73318 2.8376 9.6236 3.23403 9.62467C11.242 9.63756 19.2511 9.63434 27.2591 9.63434C28.558 9.63434 29.8569 9.64616 31.1557 9.62682C31.4823 9.62145 31.5543 9.72673 31.5532 10.0351C31.5457 11.8023 31.5586 13.5696 31.565 15.3369C31.5597 18.3235 31.5521 21.3101 31.5532 24.2967C31.5532 25.067 31.2836 25.7052 30.7013 26.209C30.3027 26.5539 29.8407 26.7537 29.3133 26.7591C28.2013 26.7709 27.0894 26.7591 25.9786 26.773C25.7164 26.7763 25.6681 26.6817 25.6906 26.4421C25.8765 24.4901 25.421 22.6756 24.3262 21.0684C22.4429 18.3031 19.7861 16.9956 16.4439 17.2062C12.6419 17.4458 9.33619 20.485 8.71631 24.2312C8.59168 24.9854 8.50037 25.7417 8.62069 26.5055C8.65077 26.6957 8.59061 26.772 8.39079 26.7698C7.21225 26.7601 6.03264 26.7827 4.85518 26.7473C3.85284 26.7172 2.74629 25.6568 2.7581 24.4557C2.77422 22.8625 2.76133 21.2682 2.75918 19.6739C2.75918 19.5138 2.75058 19.3527 2.74629 19.1926C1.83956 19.1915 0.9339 19.1894 0.0271707 19.1883C0.0271707 21.0501 0.0271707 22.9108 0.0282451 24.7726C0.0282451 24.9198 0.0239478 25.0702 0.0529545 25.2131C0.580448 27.8538 2.64745 29.5416 5.35367 29.5448C6.58592 29.5459 7.81817 29.5577 9.05042 29.5362C9.36735 29.5308 9.5199 29.6393 9.66493 29.9111C11.371 33.1126 15.2181 34.91 18.7763 34.1751C21.3257 33.6498 23.2713 32.2757 24.5658 30.01C24.7667 29.6587 24.9988 29.5319 25.4145 29.5319C26.8992 29.5308 28.3872 29.6275 29.8698 29.4793C32.1516 29.2504 34.2304 27.1018 34.268 24.8145C34.3196 21.655 34.2831 18.4932 34.2842 15.3326C34.2895 15.2659 34.2981 15.1993 34.2981 15.1327C34.297 11.8109 34.2981 8.48911 34.2938 5.1673ZM31.1944 6.89911C30.1093 6.88299 29.0243 6.89266 27.9392 6.89266C24.3359 6.89266 20.7316 6.89266 17.1283 6.89266C12.4936 6.89266 7.85792 6.88837 3.22329 6.90018C2.86876 6.90126 2.72158 6.82928 2.75488 6.44467C2.79141 6.01924 2.77422 5.58736 2.76133 5.15978C2.72373 3.91034 3.86358 2.78874 5.13773 2.78982C13.149 2.79197 21.1591 2.78874 29.1704 2.79304C30.4843 2.79412 31.5328 3.85662 31.5446 5.1716C31.5489 5.62711 31.5296 6.0837 31.5511 6.53814C31.565 6.81746 31.4791 6.90341 31.1944 6.89911ZM17.1626 31.5763C13.9268 31.5785 11.342 29.0033 11.3463 25.7718C11.3505 22.5155 13.7796 19.9564 17.1659 19.9274C20.3641 19.8995 22.9629 22.5391 22.9651 25.7546C22.9661 28.9883 20.3899 31.5742 17.1626 31.5763Z" fill="#0062BD"/>
<path d="M8.43062 15.1521C14.3502 15.1542 20.2697 15.1532 26.1903 15.1542C26.4342 15.1542 26.6716 15.1252 26.8983 15.0393C27.545 14.7954 27.8888 14.1573 27.7599 13.4525C27.6449 12.8197 27.0723 12.3664 26.3579 12.3653C23.3584 12.3621 20.3578 12.3642 17.3583 12.3642C14.3448 12.3642 11.3313 12.3621 8.31782 12.3653C7.44009 12.3664 6.83525 12.983 6.86533 13.8296C6.89219 14.6074 7.52712 15.1521 8.43062 15.1521Z" fill="#0062BD"/>
<path d="M29.1521 3.44292C28.4055 3.44937 27.7662 4.09181 27.7705 4.83095C27.7748 5.59587 28.4398 6.25335 29.1865 6.23187C29.9203 6.21038 30.5756 5.53463 30.5563 4.81805C30.538 4.07784 29.8827 3.43647 29.1521 3.44292Z" fill="#0062BD"/>
<path d="M25.3887 3.44312C24.6528 3.44312 24.0028 4.08664 23.9942 4.8247C23.9856 5.57243 24.6614 6.24818 25.4048 6.23314C26.1343 6.2181 26.7939 5.54449 26.7832 4.82685C26.7714 4.08664 26.1235 3.44419 25.3887 3.44312Z" fill="#0062BD"/>
<path d="M20.7057 22.9215C20.1674 22.7227 19.6722 22.8473 19.2661 23.2459C18.398 24.0989 17.5364 24.9584 16.6855 25.8297C16.5104 26.0091 16.4137 26.0112 16.2504 25.8275C16.0205 25.5675 15.7724 25.3215 15.5124 25.0905C15.0708 24.6973 14.553 24.6146 14.0191 24.8499C13.4991 25.0787 13.2273 25.5063 13.2112 26.0832C13.1951 26.4689 13.339 26.7966 13.599 27.0641C14.1405 27.6195 14.683 28.1749 15.2449 28.7099C15.9658 29.3964 16.9509 29.4211 17.6632 28.7325C18.8643 27.5701 20.0364 26.3765 21.2138 25.1894C21.5093 24.8918 21.6489 24.5179 21.606 24.0946C21.549 23.5199 21.2396 23.1191 20.7057 22.9215Z" fill="#0062BD"/>
</svg>
