<svg width="16" height="16" viewBox="0 0 16 16" fill="none" xmlns="http://www.w3.org/2000/svg">
<g clip-path="url(#clip0_204_4216)">
<path d="M0 6.53283C0 6.25171 0 5.97028 0 5.68916C0.0303796 5.48411 0.0576272 5.27844 0.0914518 5.07402C0.66835 1.60792 4.14509 -0.669205 7.56576 0.177909C11.5683 1.16903 13.4663 5.72766 11.3472 9.26075C9.67229 12.0538 6.06557 13.0386 3.20301 11.4787C3.05737 11.3992 2.93648 11.3886 2.78114 11.4327C1.90076 11.6825 1.01725 11.922 0.134672 12.1643C0.103666 12.1727 0.0707812 12.174 0.0263081 12.1806C0.288136 11.2367 0.543387 10.3101 0.804275 9.38472C0.837473 9.26638 0.826198 9.17372 0.7645 9.06415C0.478556 8.55889 0.268405 8.02201 0.152524 7.45226C0.0908255 7.14797 0.0501106 6.83931 0 6.53283ZM6.5814 7.52363C6.5814 7.32328 6.572 7.13107 6.58578 6.94042C6.59142 6.86247 6.62869 6.76918 6.6835 6.71565C6.92904 6.47554 7.194 6.25515 7.43735 6.01285C8.19026 5.26404 8.16427 4.0325 7.38787 3.31718C6.59831 2.58965 5.37843 2.6604 4.68471 3.47777C4.39282 3.82181 4.24124 4.2197 4.24124 4.68239C4.30293 4.68521 4.34897 4.68896 4.3947 4.68896C4.64901 4.68959 4.90332 4.68928 5.16452 4.68928C5.17361 4.63293 5.18144 4.58753 5.18833 4.54214C5.25096 4.11076 5.63118 3.77016 6.06871 3.75326C6.45675 3.73823 6.81348 3.95862 6.96913 4.30923C7.12541 4.6611 7.05588 5.07433 6.77464 5.34699C6.48713 5.62592 6.19649 5.90422 5.88706 6.15779C5.69382 6.31589 5.62022 6.48775 5.63932 6.73224C5.65968 6.99364 5.64402 7.25785 5.64402 7.52332C5.96723 7.52363 6.26696 7.52363 6.5814 7.52363ZM6.5742 9.39849C6.5742 9.08826 6.5742 8.78836 6.5742 8.48C6.26351 8.48 5.95972 8.48 5.65091 8.48C5.65091 8.78961 5.65091 9.08951 5.65091 9.39849C5.95721 9.39849 6.25662 9.39849 6.5742 9.39849Z" fill="#0062BD"/>
<path d="M10.4429 16.0002C10.1169 15.9382 9.78398 15.8997 9.46547 15.8099C8.05861 15.4126 7.00159 14.5652 6.2847 13.2929C6.26465 13.2573 6.24805 13.2194 6.21924 13.1612C8.11467 13.097 9.74828 12.4264 11.085 11.0938C12.4248 9.75767 13.0994 8.1248 13.1668 6.21582C13.23 6.24838 13.2848 6.27311 13.3362 6.30379C15.1489 7.38632 16.0469 8.98381 15.9983 11.0935C15.9802 11.8902 15.7487 12.6409 15.3557 13.3368C15.3059 13.4251 15.2965 13.5024 15.324 13.5997C15.5445 14.3799 15.7597 15.1615 15.9845 15.9711C15.9106 15.9532 15.8539 15.9417 15.7982 15.926C15.0766 15.7257 14.3547 15.5262 13.6337 15.3231C13.5238 15.2921 13.4323 15.2971 13.3268 15.3563C12.7104 15.7006 12.0487 15.906 11.3446 15.973C11.3042 15.9767 11.2644 15.9908 11.2247 15.9999C10.9641 16.0002 10.7035 16.0002 10.4429 16.0002Z" fill="#0062BD"/>
</g>
<defs>
<clipPath id="clip0_204_4216">
<rect width="16" height="16" fill="white"/>
</clipPath>
</defs>
</svg>
