<svg width="20" height="18" viewBox="0 0 20 18" fill="none" xmlns="http://www.w3.org/2000/svg">
<path d="M20.0002 9.68249C19.9512 10.0103 19.9194 10.3412 19.8511 10.6649C19.13 14.0733 17.1069 16.3967 13.7609 17.5364C10.0177 18.8118 5.73685 17.3776 3.50101 14.1685C3.2231 13.77 3.29714 13.2834 3.67725 13.0124C4.05997 12.7394 4.56731 12.827 4.85983 13.2276C6.01216 14.8083 7.54773 15.8174 9.48949 16.2072C13.3016 16.9719 17.1095 14.6306 18.0866 10.9303C19.1138 7.04096 16.8331 3.12349 12.8813 2.04475C8.88412 0.953714 4.79986 3.30328 3.74921 7.19617C3.74139 7.22587 3.73669 7.2561 3.72522 7.315C4.15696 7.02969 4.56366 6.75617 4.97506 6.49084C5.34996 6.24907 5.80985 6.31105 6.08463 6.63119C6.39071 6.98718 6.34691 7.53628 5.9548 7.80315C5.01416 8.4424 4.06466 9.06987 3.10839 9.68556C2.73661 9.92477 2.25743 9.82335 2.00246 9.45404C1.36112 8.52333 0.731765 7.58494 0.112322 6.6404C-0.0931168 6.32744 -0.0195969 5.79934 0.366773 5.55449C0.740629 5.31733 1.23076 5.39366 1.49668 5.75272C1.6797 6.00064 1.84343 6.26238 2.01602 6.51747C2.0546 6.57484 2.09579 6.63067 2.13646 6.68804C2.2882 6.27417 2.41021 5.86234 2.58645 5.47459C3.96507 2.44479 6.32031 0.615135 9.65791 0.100864C13.7422 -0.528145 17.8332 1.83422 19.3406 5.61391C19.6775 6.45805 19.8944 7.32729 19.9674 8.23085C19.9715 8.28054 19.9887 8.3292 19.9997 8.37838C20.0002 8.81376 20.0002 9.24813 20.0002 9.68249Z" fill="white"/>
<path d="M11.6769 6.70138C11.6769 7.30171 11.6727 7.90254 11.6821 8.50236C11.6836 8.592 11.729 8.70161 11.7926 8.76564C12.496 9.47455 13.2078 10.1758 13.9153 10.8806C14.1552 11.1193 14.236 11.4046 14.1301 11.7253C14.0264 12.0387 13.7938 12.2206 13.4659 12.2744C13.1911 12.3194 12.9465 12.2375 12.752 12.0454C11.9162 11.2223 11.0845 10.3955 10.2534 9.56829C10.0808 9.39618 10.0078 9.18412 10.0078 8.94236C10.0094 7.5947 10.0073 6.24704 10.0094 4.89887C10.0099 4.41482 10.3587 4.05319 10.8217 4.04602C11.2994 4.03834 11.6664 4.38819 11.6743 4.88094C11.6836 5.48742 11.6763 6.0944 11.6769 6.70138Z" fill="white"/>
</svg>
