<svg width="268" height="199" viewBox="0 0 268 199" fill="none" xmlns="http://www.w3.org/2000/svg">
<g clip-path="url(#clip0_148_123)">
<path d="M267.518 174.881H0.482422V175.015H267.518V174.881Z" fill="#EBEBEB"/>
<path d="M240.761 183.475H223.072V183.608H240.761V183.475Z" fill="#EBEBEB"/>
<path d="M177.377 184.927H172.736V185.061H177.377V184.927Z" fill="#EBEBEB"/>
<path d="M222.538 178.519H212.29V178.652H222.538V178.519Z" fill="#EBEBEB"/>
<path d="M51.5663 179.416H28.4998V179.549H51.5663V179.416Z" fill="#EBEBEB"/>
<path d="M59.7056 179.416H56.325V179.549H59.7056V179.416Z" fill="#EBEBEB"/>
<path d="M120.728 181.669H70.6968V181.803H120.728V181.669Z" fill="#EBEBEB"/>
<path d="M96.9195 38.5601C96.9195 36.1674 94.9809 34.2234 92.5829 34.2234C92.1503 34.2234 91.7337 34.2875 91.3385 34.405C91.4026 33.9724 91.4346 33.5238 91.4346 33.0752C91.4346 28.0068 87.3223 23.8945 82.254 23.8945C81.6772 23.8945 81.1111 23.9479 80.561 24.0547C79.151 21.7475 76.6142 20.1987 73.7088 20.1987C69.3134 20.1987 65.7458 23.7289 65.6818 28.1137C65.639 28.1137 65.591 28.1083 65.5482 28.1083C61.4626 28.1083 58.1514 31.4196 58.1514 35.5052C58.1514 39.5908 61.4626 42.9021 65.5482 42.9021H92.7111L92.7057 42.8967C95.045 42.822 96.9195 40.91 96.9195 38.5601Z" fill="#F0F0F0"/>
<path d="M206.356 82.8931C206.356 80.5004 204.417 78.5564 202.019 78.5564C201.587 78.5564 201.17 78.6205 200.775 78.738C200.839 78.3054 200.871 77.8568 200.871 77.4082C200.871 72.3398 196.759 68.2275 191.69 68.2275C191.114 68.2275 190.548 68.2809 189.997 68.3877C188.588 66.0805 186.051 64.5317 183.145 64.5317C178.75 64.5317 175.182 68.0619 175.118 72.4467C175.076 72.4467 175.027 72.4413 174.985 72.4413C170.899 72.4413 167.588 75.7526 167.588 79.8382C167.588 83.9238 170.899 87.2351 174.985 87.2351H202.148L202.142 87.2297C204.481 87.1603 206.356 85.2483 206.356 82.8931Z" fill="#F0F0F0"/>
<path d="M70.4137 116.588C70.4137 114.195 68.475 112.251 66.077 112.251C65.6444 112.251 65.2279 112.315 64.8326 112.433C64.8967 112 64.9288 111.552 64.9288 111.103C64.9288 106.035 60.8164 101.922 55.7481 101.922C55.1713 101.922 54.6052 101.976 54.0551 102.083C52.6452 99.7754 50.1083 98.2266 47.203 98.2266C42.8076 98.2266 39.24 101.757 39.1759 106.141C39.1332 106.141 39.0851 106.136 39.0424 106.136C34.9567 106.136 31.6455 109.447 31.6455 113.533C31.6455 117.619 34.9567 120.93 39.0424 120.93H66.2052L66.1999 120.925C68.5391 120.855 70.4137 118.943 70.4137 116.588Z" fill="#F0F0F0"/>
<path d="M234.176 120.107C234.176 117.715 232.237 115.771 229.839 115.771C229.406 115.771 228.99 115.835 228.595 115.952C228.659 115.52 228.691 115.071 228.691 114.623C228.691 109.554 224.578 105.442 219.51 105.442C218.933 105.442 218.367 105.495 217.817 105.602C216.407 103.295 213.87 101.746 210.965 101.746C206.57 101.746 203.002 105.276 202.938 109.661C202.895 109.661 202.847 109.656 202.804 109.656C198.719 109.656 195.407 112.967 195.407 117.053C195.407 121.138 198.719 124.449 202.804 124.449H229.967L229.962 124.444C232.301 124.369 234.176 122.457 234.176 120.107Z" fill="#F0F0F0"/>
<path d="M144.671 93.8417C144.671 92.2288 143.362 90.9203 141.75 90.9203C141.456 90.9203 141.178 90.9631 140.911 91.0432C140.954 90.7494 140.975 90.4504 140.975 90.1459C140.975 86.7279 138.203 83.9614 134.791 83.9614C134.401 83.9614 134.022 83.9988 133.653 84.0682C132.702 82.5141 130.993 81.4673 129.033 81.4673C126.069 81.4673 123.666 83.8492 123.623 86.7973C123.591 86.7973 123.564 86.792 123.532 86.792C120.782 86.792 118.55 89.0244 118.55 91.7748C118.55 94.5253 120.782 96.7577 123.532 96.7577H141.835L141.83 96.7524C143.411 96.715 144.671 95.4279 144.671 93.8417Z" fill="#F0F0F0"/>
<path d="M226.886 38.5175C226.886 36.9046 225.577 35.5961 223.964 35.5961C223.67 35.5961 223.393 35.6388 223.126 35.7189C223.168 35.4252 223.19 35.1261 223.19 34.8217C223.19 31.4037 220.418 28.6372 217.005 28.6372C216.615 28.6372 216.236 28.6746 215.868 28.744C214.917 27.1898 213.208 26.1431 211.248 26.1431C208.284 26.1431 205.881 28.525 205.838 31.4731C205.806 31.4731 205.779 31.4677 205.747 31.4677C202.997 31.4677 200.764 33.7002 200.764 36.4506C200.764 39.2011 202.997 41.4335 205.747 41.4335H224.05L224.044 41.4282C225.62 41.3908 226.886 40.1037 226.886 38.5175Z" fill="#F0F0F0"/>
<path d="M31.9766 167.405V142.293H34.1235V130.329H37.2639V88.7306H41.8035V83.3578L51.4915 78.8396V73.4295H52.832V88.7306H54.7119V130.329H56.5919V108.454H61.6869V97.1849H63.1129V130.329H66.9849V117.715H69.5324V114.494H75.4392V103.492H78.6703V95.7056H82.6492V84.3672H84.0645V95.7056H88.0433V103.492H91.2744V114.494H97.1812V117.715H99.7287V130.329H102.752V114.494H108.658V80.4098H110.538V76.6499H123.153V80.4098H125.834V105.1H136.569V107.514H140.596V109.394H136.569V119.055H147.843V86.8507H150.257V80.0039H155.491V55.7144H156.97V80.0039H160.725V86.8507H182.755V84.5969H184.096V99.8927H185.976V100.165H187.103V115.461H188.983V119.621H192.956V108.352H194.377V135.189H195.963V123.915H197.384V141.497H198.249V128.882H200.802V125.662H206.703V114.654H209.94V106.873H213.913V95.5347H215.328V106.873H219.307V114.654H222.538V125.662H228.445V128.882H230.993V141.23H231.452V141.497H232.712V167.405H31.9766Z" fill="#F5F5F5"/>
<path d="M170.466 88.3569H168.944V89.879H170.466V88.3569Z" fill="#FAFAFA"/>
<path d="M170.466 90.9043H168.944V92.4264H170.466V90.9043Z" fill="#FAFAFA"/>
<path d="M170.466 101.105H168.944V102.627H170.466V101.105Z" fill="#FAFAFA"/>
<path d="M170.466 103.653H168.944V105.175H170.466V103.653Z" fill="#FAFAFA"/>
<path d="M170.466 106.2H168.944V107.722H170.466V106.2Z" fill="#FAFAFA"/>
<path d="M170.466 113.854H168.944V115.376H170.466V113.854Z" fill="#FAFAFA"/>
<path d="M170.466 116.401H168.944V117.923H170.466V116.401Z" fill="#FAFAFA"/>
<path d="M168.047 98.5522H166.525V100.074H168.047V98.5522Z" fill="#FAFAFA"/>
<path d="M168.047 101.105H166.525V102.627H168.047V101.105Z" fill="#FAFAFA"/>
<path d="M168.047 103.653H166.525V105.175H168.047V103.653Z" fill="#FAFAFA"/>
<path d="M168.047 106.2H166.525V107.722H168.047V106.2Z" fill="#FAFAFA"/>
<path d="M168.047 108.753H166.525V110.275H168.047V108.753Z" fill="#FAFAFA"/>
<path d="M168.047 113.854H166.525V115.376H168.047V113.854Z" fill="#FAFAFA"/>
<path d="M168.047 116.401H166.525V117.923H168.047V116.401Z" fill="#FAFAFA"/>
<path d="M165.633 88.3569H164.111V89.879H165.633V88.3569Z" fill="#FAFAFA"/>
<path d="M165.633 90.9043H164.111V92.4264H165.633V90.9043Z" fill="#FAFAFA"/>
<path d="M165.633 93.4517H164.111V94.9738H165.633V93.4517Z" fill="#FAFAFA"/>
<path d="M165.633 96.0049H164.111V97.527H165.633V96.0049Z" fill="#FAFAFA"/>
<path d="M165.633 98.5522H164.111V100.074H165.633V98.5522Z" fill="#FAFAFA"/>
<path d="M165.633 101.105H164.111V102.627H165.633V101.105Z" fill="#FAFAFA"/>
<path d="M165.633 103.653H164.111V105.175H165.633V103.653Z" fill="#FAFAFA"/>
<path d="M165.633 106.2H164.111V107.722H165.633V106.2Z" fill="#FAFAFA"/>
<path d="M165.633 108.753H164.111V110.275H165.633V108.753Z" fill="#FAFAFA"/>
<path d="M165.633 111.3H164.111V112.822H165.633V111.3Z" fill="#FAFAFA"/>
<path d="M165.633 116.401H164.111V117.923H165.633V116.401Z" fill="#FAFAFA"/>
<path d="M163.219 88.3569H161.697V89.879H163.219V88.3569Z" fill="#FAFAFA"/>
<path d="M163.219 90.9043H161.697V92.4264H163.219V90.9043Z" fill="#FAFAFA"/>
<path d="M163.219 93.4517H161.697V94.9738H163.219V93.4517Z" fill="#FAFAFA"/>
<path d="M163.219 96.0049H161.697V97.527H163.219V96.0049Z" fill="#FAFAFA"/>
<path d="M163.219 98.5522H161.697V100.074H163.219V98.5522Z" fill="#FAFAFA"/>
<path d="M163.219 101.105H161.697V102.627H163.219V101.105Z" fill="#FAFAFA"/>
<path d="M163.219 103.653H161.697V105.175H163.219V103.653Z" fill="#FAFAFA"/>
<path d="M163.219 126.602H161.697V128.124H163.219V126.602Z" fill="#FAFAFA"/>
<path d="M160.805 88.3569H159.283V89.879H160.805V88.3569Z" fill="#FAFAFA"/>
<path d="M160.805 90.9043H159.283V92.4264H160.805V90.9043Z" fill="#FAFAFA"/>
<path d="M160.805 93.4517H159.283V94.9738H160.805V93.4517Z" fill="#FAFAFA"/>
<path d="M160.805 96.0049H159.283V97.527H160.805V96.0049Z" fill="#FAFAFA"/>
<path d="M160.805 98.5522H159.283V100.074H160.805V98.5522Z" fill="#FAFAFA"/>
<path d="M160.805 101.105H159.283V102.627H160.805V101.105Z" fill="#FAFAFA"/>
<path d="M160.805 103.653H159.283V105.175H160.805V103.653Z" fill="#FAFAFA"/>
<path d="M160.805 106.2H159.283V107.722H160.805V106.2Z" fill="#FAFAFA"/>
<path d="M160.805 121.501H159.283V123.024H160.805V121.501Z" fill="#FAFAFA"/>
<path d="M160.805 124.049H159.283V125.571H160.805V124.049Z" fill="#FAFAFA"/>
<path d="M160.805 126.602H159.283V128.124H160.805V126.602Z" fill="#FAFAFA"/>
<path d="M160.805 129.149H159.283V130.671H160.805V129.149Z" fill="#FAFAFA"/>
<path d="M160.805 139.35H159.283V140.872H160.805V139.35Z" fill="#FAFAFA"/>
<path d="M158.386 88.3569H156.864V89.879H158.386V88.3569Z" fill="#FAFAFA"/>
<path d="M158.386 90.9043H156.864V92.4264H158.386V90.9043Z" fill="#FAFAFA"/>
<path d="M158.386 93.4517H156.864V94.9738H158.386V93.4517Z" fill="#FAFAFA"/>
<path d="M158.386 96.0049H156.864V97.527H158.386V96.0049Z" fill="#FAFAFA"/>
<path d="M158.386 98.5522H156.864V100.074H158.386V98.5522Z" fill="#FAFAFA"/>
<path d="M158.386 101.105H156.864V102.627H158.386V101.105Z" fill="#FAFAFA"/>
<path d="M158.386 103.653H156.864V105.175H158.386V103.653Z" fill="#FAFAFA"/>
<path d="M158.386 106.2H156.864V107.722H158.386V106.2Z" fill="#FAFAFA"/>
<path d="M158.386 108.753H156.864V110.275H158.386V108.753Z" fill="#FAFAFA"/>
<path d="M158.386 111.3H156.864V112.822H158.386V111.3Z" fill="#FAFAFA"/>
<path d="M158.386 118.954H156.864V120.476H158.386V118.954Z" fill="#FAFAFA"/>
<path d="M158.386 121.501H156.864V123.024H158.386V121.501Z" fill="#FAFAFA"/>
<path d="M158.386 124.049H156.864V125.571H158.386V124.049Z" fill="#FAFAFA"/>
<path d="M158.386 126.602H156.864V128.124H158.386V126.602Z" fill="#FAFAFA"/>
<path d="M158.386 129.149H156.864V130.671H158.386V129.149Z" fill="#FAFAFA"/>
<path d="M158.386 139.35H156.864V140.872H158.386V139.35Z" fill="#FAFAFA"/>
<path d="M155.972 88.3569H154.449V89.879H155.972V88.3569Z" fill="#FAFAFA"/>
<path d="M155.972 90.9043H154.449V92.4264H155.972V90.9043Z" fill="#FAFAFA"/>
<path d="M155.972 93.4517H154.449V94.9738H155.972V93.4517Z" fill="#FAFAFA"/>
<path d="M155.972 96.0049H154.449V97.527H155.972V96.0049Z" fill="#FAFAFA"/>
<path d="M155.972 98.5522H154.449V100.074H155.972V98.5522Z" fill="#FAFAFA"/>
<path d="M155.972 101.105H154.449V102.627H155.972V101.105Z" fill="#FAFAFA"/>
<path d="M155.972 103.653H154.449V105.175H155.972V103.653Z" fill="#FAFAFA"/>
<path d="M155.972 106.2H154.449V107.722H155.972V106.2Z" fill="#FAFAFA"/>
<path d="M155.972 108.753H154.449V110.275H155.972V108.753Z" fill="#FAFAFA"/>
<path d="M155.972 111.3H154.449V112.822H155.972V111.3Z" fill="#FAFAFA"/>
<path d="M155.972 113.854H154.449V115.376H155.972V113.854Z" fill="#FAFAFA"/>
<path d="M155.972 116.401H154.449V117.923H155.972V116.401Z" fill="#FAFAFA"/>
<path d="M155.972 118.954H154.449V120.476H155.972V118.954Z" fill="#FAFAFA"/>
<path d="M155.972 121.501H154.449V123.024H155.972V121.501Z" fill="#FAFAFA"/>
<path d="M155.972 124.049H154.449V125.571H155.972V124.049Z" fill="#FAFAFA"/>
<path d="M155.972 126.602H154.449V128.124H155.972V126.602Z" fill="#FAFAFA"/>
<path d="M155.972 129.149H154.449V130.671H155.972V129.149Z" fill="#FAFAFA"/>
<path d="M155.972 131.702H154.449V133.224H155.972V131.702Z" fill="#FAFAFA"/>
<path d="M153.558 88.3569H152.035V89.879H153.558V88.3569Z" fill="#FAFAFA"/>
<path d="M153.558 90.9043H152.035V92.4264H153.558V90.9043Z" fill="#FAFAFA"/>
<path d="M153.558 93.4517H152.035V94.9738H153.558V93.4517Z" fill="#FAFAFA"/>
<path d="M153.558 96.0049H152.035V97.527H153.558V96.0049Z" fill="#FAFAFA"/>
<path d="M153.558 98.5522H152.035V100.074H153.558V98.5522Z" fill="#FAFAFA"/>
<path d="M153.558 101.105H152.035V102.627H153.558V101.105Z" fill="#FAFAFA"/>
<path d="M153.558 103.653H152.035V105.175H153.558V103.653Z" fill="#FAFAFA"/>
<path d="M153.558 106.2H152.035V107.722H153.558V106.2Z" fill="#FAFAFA"/>
<path d="M153.558 108.753H152.035V110.275H153.558V108.753Z" fill="#FAFAFA"/>
<path d="M153.558 111.3H152.035V112.822H153.558V111.3Z" fill="#FAFAFA"/>
<path d="M153.558 118.954H152.035V120.476H153.558V118.954Z" fill="#FAFAFA"/>
<path d="M153.558 121.501H152.035V123.024H153.558V121.501Z" fill="#FAFAFA"/>
<path d="M153.558 124.049H152.035V125.571H153.558V124.049Z" fill="#FAFAFA"/>
<path d="M153.558 126.602H152.035V128.124H153.558V126.602Z" fill="#FAFAFA"/>
<path d="M151.138 88.3569H149.616V89.879H151.138V88.3569Z" fill="#FAFAFA"/>
<path d="M151.138 90.9043H149.616V92.4264H151.138V90.9043Z" fill="#FAFAFA"/>
<path d="M151.138 93.4517H149.616V94.9738H151.138V93.4517Z" fill="#FAFAFA"/>
<path d="M151.138 96.0049H149.616V97.527H151.138V96.0049Z" fill="#FAFAFA"/>
<path d="M151.138 98.5522H149.616V100.074H151.138V98.5522Z" fill="#FAFAFA"/>
<path d="M151.138 101.105H149.616V102.627H151.138V101.105Z" fill="#FAFAFA"/>
<path d="M151.138 103.653H149.616V105.175H151.138V103.653Z" fill="#FAFAFA"/>
<path d="M151.138 106.2H149.616V107.722H151.138V106.2Z" fill="#FAFAFA"/>
<path d="M151.138 108.753H149.616V110.275H151.138V108.753Z" fill="#FAFAFA"/>
<path d="M151.138 111.3H149.616V112.822H151.138V111.3Z" fill="#FAFAFA"/>
<path d="M151.138 118.954H149.616V120.476H151.138V118.954Z" fill="#FAFAFA"/>
<path d="M151.138 121.501H149.616V123.024H151.138V121.501Z" fill="#FAFAFA"/>
<path d="M151.138 124.049H149.616V125.571H151.138V124.049Z" fill="#FAFAFA"/>
<path d="M123.943 81.7344H122.421V83.2565H123.943V81.7344Z" fill="#FAFAFA"/>
<path d="M123.943 84.2817H122.421V85.8038H123.943V84.2817Z" fill="#FAFAFA"/>
<path d="M123.943 86.835H122.421V88.3571H123.943V86.835Z" fill="#FAFAFA"/>
<path d="M123.943 89.3823H122.421V90.9044H123.943V89.3823Z" fill="#FAFAFA"/>
<path d="M123.943 91.9351H122.421V93.4572H123.943V91.9351Z" fill="#FAFAFA"/>
<path d="M123.943 94.4824H122.421V96.0045H123.943V94.4824Z" fill="#FAFAFA"/>
<path d="M123.943 97.0303H122.421V98.5524H123.943V97.0303Z" fill="#FAFAFA"/>
<path d="M123.943 99.583H122.421V101.105H123.943V99.583Z" fill="#FAFAFA"/>
<path d="M123.943 107.231H122.421V108.753H123.943V107.231Z" fill="#FAFAFA"/>
<path d="M123.943 109.784H122.421V111.306H123.943V109.784Z" fill="#FAFAFA"/>
<path d="M121.529 81.7344H120.007V83.2565H121.529V81.7344Z" fill="#FAFAFA"/>
<path d="M121.529 84.2817H120.007V85.8038H121.529V84.2817Z" fill="#FAFAFA"/>
<path d="M121.529 86.835H120.007V88.3571H121.529V86.835Z" fill="#FAFAFA"/>
<path d="M121.529 89.3823H120.007V90.9044H121.529V89.3823Z" fill="#FAFAFA"/>
<path d="M121.529 91.9351H120.007V93.4572H121.529V91.9351Z" fill="#FAFAFA"/>
<path d="M121.529 94.4824H120.007V96.0045H121.529V94.4824Z" fill="#FAFAFA"/>
<path d="M121.529 97.0303H120.007V98.5524H121.529V97.0303Z" fill="#FAFAFA"/>
<path d="M121.529 99.583H120.007V101.105H121.529V99.583Z" fill="#FAFAFA"/>
<path d="M121.529 109.784H120.007V111.306H121.529V109.784Z" fill="#FAFAFA"/>
<path d="M119.11 81.7344H117.588V83.2565H119.11V81.7344Z" fill="#FAFAFA"/>
<path d="M119.11 84.2817H117.588V85.8038H119.11V84.2817Z" fill="#FAFAFA"/>
<path d="M119.11 86.835H117.588V88.3571H119.11V86.835Z" fill="#FAFAFA"/>
<path d="M119.11 89.3823H117.588V90.9044H119.11V89.3823Z" fill="#FAFAFA"/>
<path d="M119.11 91.9351H117.588V93.4572H119.11V91.9351Z" fill="#FAFAFA"/>
<path d="M119.11 94.4824H117.588V96.0045H119.11V94.4824Z" fill="#FAFAFA"/>
<path d="M119.11 97.0303H117.588V98.5524H119.11V97.0303Z" fill="#FAFAFA"/>
<path d="M119.11 99.583H117.588V101.105H119.11V99.583Z" fill="#FAFAFA"/>
<path d="M116.696 81.7344H115.174V83.2565H116.696V81.7344Z" fill="#FAFAFA"/>
<path d="M116.696 84.2817H115.174V85.8038H116.696V84.2817Z" fill="#FAFAFA"/>
<path d="M116.696 86.835H115.174V88.3571H116.696V86.835Z" fill="#FAFAFA"/>
<path d="M116.696 89.3823H115.174V90.9044H116.696V89.3823Z" fill="#FAFAFA"/>
<path d="M116.696 91.9351H115.174V93.4572H116.696V91.9351Z" fill="#FAFAFA"/>
<path d="M116.696 94.4824H115.174V96.0045H116.696V94.4824Z" fill="#FAFAFA"/>
<path d="M116.696 99.583H115.174V101.105H116.696V99.583Z" fill="#FAFAFA"/>
<path d="M116.696 102.13H115.174V103.652H116.696V102.13Z" fill="#FAFAFA"/>
<path d="M116.696 109.784H115.174V111.306H116.696V109.784Z" fill="#FAFAFA"/>
<path d="M116.696 112.331H115.174V113.853H116.696V112.331Z" fill="#FAFAFA"/>
<path d="M116.696 114.879H115.174V116.401H116.696V114.879Z" fill="#FAFAFA"/>
<path d="M116.696 117.432H115.174V118.954H116.696V117.432Z" fill="#FAFAFA"/>
<path d="M116.696 119.979H115.174V121.501H116.696V119.979Z" fill="#FAFAFA"/>
<path d="M116.696 122.532H115.174V124.054H116.696V122.532Z" fill="#FAFAFA"/>
<path d="M116.696 125.08H115.174V126.602H116.696V125.08Z" fill="#FAFAFA"/>
<path d="M114.282 81.7344H112.76V83.2565H114.282V81.7344Z" fill="#FAFAFA"/>
<path d="M114.282 84.2817H112.76V85.8038H114.282V84.2817Z" fill="#FAFAFA"/>
<path d="M114.282 86.835H112.76V88.3571H114.282V86.835Z" fill="#FAFAFA"/>
<path d="M114.282 89.3823H112.76V90.9044H114.282V89.3823Z" fill="#FAFAFA"/>
<path d="M114.282 91.9351H112.76V93.4572H114.282V91.9351Z" fill="#FAFAFA"/>
<path d="M114.282 94.4824H112.76V96.0045H114.282V94.4824Z" fill="#FAFAFA"/>
<path d="M114.282 102.13H112.76V103.652H114.282V102.13Z" fill="#FAFAFA"/>
<path d="M114.282 104.684H112.76V106.206H114.282V104.684Z" fill="#FAFAFA"/>
<path d="M114.282 107.231H112.76V108.753H114.282V107.231Z" fill="#FAFAFA"/>
<path d="M114.282 109.784H112.76V111.306H114.282V109.784Z" fill="#FAFAFA"/>
<path d="M114.282 112.331H112.76V113.853H114.282V112.331Z" fill="#FAFAFA"/>
<path d="M114.282 114.879H112.76V116.401H114.282V114.879Z" fill="#FAFAFA"/>
<path d="M114.282 117.432H112.76V118.954H114.282V117.432Z" fill="#FAFAFA"/>
<path d="M114.282 119.979H112.76V121.501H114.282V119.979Z" fill="#FAFAFA"/>
<path d="M114.282 122.532H112.76V124.054H114.282V122.532Z" fill="#FAFAFA"/>
<path d="M114.282 125.08H112.76V126.602H114.282V125.08Z" fill="#FAFAFA"/>
<path d="M114.282 127.627H112.76V129.149H114.282V127.627Z" fill="#FAFAFA"/>
<path d="M114.282 132.728H112.76V134.25H114.282V132.728Z" fill="#FAFAFA"/>
<path d="M111.863 81.7344H110.341V83.2565H111.863V81.7344Z" fill="#FAFAFA"/>
<path d="M111.863 84.2817H110.341V85.8038H111.863V84.2817Z" fill="#FAFAFA"/>
<path d="M111.863 86.835H110.341V88.3571H111.863V86.835Z" fill="#FAFAFA"/>
<path d="M111.863 89.3823H110.341V90.9044H111.863V89.3823Z" fill="#FAFAFA"/>
<path d="M111.863 91.9351H110.341V93.4572H111.863V91.9351Z" fill="#FAFAFA"/>
<path d="M111.863 94.4824H110.341V96.0045H111.863V94.4824Z" fill="#FAFAFA"/>
<path d="M111.863 102.13H110.341V103.652H111.863V102.13Z" fill="#FAFAFA"/>
<path d="M111.863 104.684H110.341V106.206H111.863V104.684Z" fill="#FAFAFA"/>
<path d="M111.863 107.231H110.341V108.753H111.863V107.231Z" fill="#FAFAFA"/>
<path d="M111.863 109.784H110.341V111.306H111.863V109.784Z" fill="#FAFAFA"/>
<path d="M111.863 117.432H110.341V118.954H111.863V117.432Z" fill="#FAFAFA"/>
<path d="M111.863 119.979H110.341V121.501H111.863V119.979Z" fill="#FAFAFA"/>
<path d="M111.863 122.532H110.341V124.054H111.863V122.532Z" fill="#FAFAFA"/>
<path d="M111.863 125.08H110.341V126.602H111.863V125.08Z" fill="#FAFAFA"/>
<path d="M111.863 127.627H110.341V129.149H111.863V127.627Z" fill="#FAFAFA"/>
<path d="M111.863 132.728H110.341V134.25H111.863V132.728Z" fill="#FAFAFA"/>
<path d="M111.863 135.28H110.341V136.802H111.863V135.28Z" fill="#FAFAFA"/>
<path d="M89.9445 105.442H88.4224V106.964H89.9445V105.442Z" fill="#FAFAFA"/>
<path d="M89.9445 107.995H88.4224V109.517H89.9445V107.995Z" fill="#FAFAFA"/>
<path d="M89.9445 110.542H88.4224V112.064H89.9445V110.542Z" fill="#FAFAFA"/>
<path d="M89.9445 113.09H88.4224V114.612H89.9445V113.09Z" fill="#FAFAFA"/>
<path d="M89.9445 115.643H88.4224V117.165H89.9445V115.643Z" fill="#FAFAFA"/>
<path d="M89.9445 118.19H88.4224V119.712H89.9445V118.19Z" fill="#FAFAFA"/>
<path d="M89.9445 120.743H88.4224V122.265H89.9445V120.743Z" fill="#FAFAFA"/>
<path d="M89.9445 128.391H88.4224V129.913H89.9445V128.391Z" fill="#FAFAFA"/>
<path d="M89.9445 130.938H88.4224V132.461H89.9445V130.938Z" fill="#FAFAFA"/>
<path d="M89.9445 133.491H88.4224V135.013H89.9445V133.491Z" fill="#FAFAFA"/>
<path d="M87.5304 105.442H86.0083V106.964H87.5304V105.442Z" fill="#FAFAFA"/>
<path d="M87.5304 107.995H86.0083V109.517H87.5304V107.995Z" fill="#FAFAFA"/>
<path d="M87.5304 110.542H86.0083V112.064H87.5304V110.542Z" fill="#FAFAFA"/>
<path d="M87.5304 113.09H86.0083V114.612H87.5304V113.09Z" fill="#FAFAFA"/>
<path d="M87.5304 115.643H86.0083V117.165H87.5304V115.643Z" fill="#FAFAFA"/>
<path d="M87.5304 118.19H86.0083V119.712H87.5304V118.19Z" fill="#FAFAFA"/>
<path d="M87.5304 120.743H86.0083V122.265H87.5304V120.743Z" fill="#FAFAFA"/>
<path d="M85.1166 105.442H83.5945V106.964H85.1166V105.442Z" fill="#FAFAFA"/>
<path d="M85.1166 107.995H83.5945V109.517H85.1166V107.995Z" fill="#FAFAFA"/>
<path d="M85.1166 110.542H83.5945V112.064H85.1166V110.542Z" fill="#FAFAFA"/>
<path d="M85.1166 113.09H83.5945V114.612H85.1166V113.09Z" fill="#FAFAFA"/>
<path d="M85.1166 115.643H83.5945V117.165H85.1166V115.643Z" fill="#FAFAFA"/>
<path d="M85.1166 118.19H83.5945V119.712H85.1166V118.19Z" fill="#FAFAFA"/>
<path d="M85.1166 120.743H83.5945V122.265H85.1166V120.743Z" fill="#FAFAFA"/>
<path d="M82.7025 105.442H81.1804V106.964H82.7025V105.442Z" fill="#FAFAFA"/>
<path d="M82.7025 107.995H81.1804V109.517H82.7025V107.995Z" fill="#FAFAFA"/>
<path d="M82.7025 110.542H81.1804V112.064H82.7025V110.542Z" fill="#FAFAFA"/>
<path d="M82.7025 113.09H81.1804V114.612H82.7025V113.09Z" fill="#FAFAFA"/>
<path d="M82.7025 115.643H81.1804V117.165H82.7025V115.643Z" fill="#FAFAFA"/>
<path d="M82.7025 118.19H81.1804V119.712H82.7025V118.19Z" fill="#FAFAFA"/>
<path d="M82.7025 120.743H81.1804V122.265H82.7025V120.743Z" fill="#FAFAFA"/>
<path d="M82.7025 123.291H81.1804V124.813H82.7025V123.291Z" fill="#FAFAFA"/>
<path d="M82.7025 125.838H81.1804V127.36H82.7025V125.838Z" fill="#FAFAFA"/>
<path d="M82.7025 128.391H81.1804V129.913H82.7025V128.391Z" fill="#FAFAFA"/>
<path d="M82.7025 130.938H81.1804V132.461H82.7025V130.938Z" fill="#FAFAFA"/>
<path d="M80.2831 105.442H78.761V106.964H80.2831V105.442Z" fill="#FAFAFA"/>
<path d="M80.2831 107.995H78.761V109.517H80.2831V107.995Z" fill="#FAFAFA"/>
<path d="M80.2831 110.542H78.761V112.064H80.2831V110.542Z" fill="#FAFAFA"/>
<path d="M80.2831 113.09H78.761V114.612H80.2831V113.09Z" fill="#FAFAFA"/>
<path d="M80.2831 115.643H78.761V117.165H80.2831V115.643Z" fill="#FAFAFA"/>
<path d="M80.2831 118.19H78.761V119.712H80.2831V118.19Z" fill="#FAFAFA"/>
<path d="M80.2831 120.743H78.761V122.265H80.2831V120.743Z" fill="#FAFAFA"/>
<path d="M80.2831 123.291H78.761V124.813H80.2831V123.291Z" fill="#FAFAFA"/>
<path d="M80.2831 125.838H78.761V127.36H80.2831V125.838Z" fill="#FAFAFA"/>
<path d="M80.2831 128.391H78.761V129.913H80.2831V128.391Z" fill="#FAFAFA"/>
<path d="M80.2831 130.938H78.761V132.461H80.2831V130.938Z" fill="#FAFAFA"/>
<path d="M80.2831 133.491H78.761V135.013H80.2831V133.491Z" fill="#FAFAFA"/>
<path d="M80.2831 141.139H78.761V142.661H80.2831V141.139Z" fill="#FAFAFA"/>
<path d="M80.2831 143.687H78.761V145.209H80.2831V143.687Z" fill="#FAFAFA"/>
<path d="M77.869 105.442H76.3469V106.964H77.869V105.442Z" fill="#FAFAFA"/>
<path d="M77.869 107.995H76.3469V109.517H77.869V107.995Z" fill="#FAFAFA"/>
<path d="M77.869 110.542H76.3469V112.064H77.869V110.542Z" fill="#FAFAFA"/>
<path d="M77.869 118.19H76.3469V119.712H77.869V118.19Z" fill="#FAFAFA"/>
<path d="M77.869 120.743H76.3469V122.265H77.869V120.743Z" fill="#FAFAFA"/>
<path d="M77.869 123.291H76.3469V124.813H77.869V123.291Z" fill="#FAFAFA"/>
<path d="M77.869 125.838H76.3469V127.36H77.869V125.838Z" fill="#FAFAFA"/>
<path d="M77.869 128.391H76.3469V129.913H77.869V128.391Z" fill="#FAFAFA"/>
<path d="M77.869 130.938H76.3469V132.461H77.869V130.938Z" fill="#FAFAFA"/>
<path d="M77.869 133.491H76.3469V135.013H77.869V133.491Z" fill="#FAFAFA"/>
<path d="M77.869 141.139H76.3469V142.661H77.869V141.139Z" fill="#FAFAFA"/>
<path d="M77.869 143.687H76.3469V145.209H77.869V143.687Z" fill="#FAFAFA"/>
<path d="M77.869 146.239H76.3469V147.761H77.869V146.239Z" fill="#FAFAFA"/>
<path d="M52.549 90.146H51.0269V91.6681H52.549V90.146Z" fill="#FAFAFA"/>
<path d="M52.549 92.6934H51.0269V94.2155H52.549V92.6934Z" fill="#FAFAFA"/>
<path d="M52.549 95.2412H51.0269V96.7633H52.549V95.2412Z" fill="#FAFAFA"/>
<path d="M52.549 97.7939H51.0269V99.316H52.549V97.7939Z" fill="#FAFAFA"/>
<path d="M52.549 100.341H51.0269V101.863H52.549V100.341Z" fill="#FAFAFA"/>
<path d="M52.549 102.894H51.0269V104.416H52.549V102.894Z" fill="#FAFAFA"/>
<path d="M52.549 105.442H51.0269V106.964H52.549V105.442Z" fill="#FAFAFA"/>
<path d="M52.549 107.995H51.0269V109.517H52.549V107.995Z" fill="#FAFAFA"/>
<path d="M52.549 110.542H51.0269V112.064H52.549V110.542Z" fill="#FAFAFA"/>
<path d="M52.549 113.09H51.0269V114.612H52.549V113.09Z" fill="#FAFAFA"/>
<path d="M52.549 115.643H51.0269V117.165H52.549V115.643Z" fill="#FAFAFA"/>
<path d="M52.549 118.19H51.0269V119.712H52.549V118.19Z" fill="#FAFAFA"/>
<path d="M52.549 120.743H51.0269V122.265H52.549V120.743Z" fill="#FAFAFA"/>
<path d="M52.549 123.291H51.0269V124.813H52.549V123.291Z" fill="#FAFAFA"/>
<path d="M52.549 125.838H51.0269V127.36H52.549V125.838Z" fill="#FAFAFA"/>
<path d="M52.549 128.391H51.0269V129.913H52.549V128.391Z" fill="#FAFAFA"/>
<path d="M52.549 130.938H51.0269V132.461H52.549V130.938Z" fill="#FAFAFA"/>
<path d="M52.549 133.491H51.0269V135.013H52.549V133.491Z" fill="#FAFAFA"/>
<path d="M52.549 136.039H51.0269V137.561H52.549V136.039Z" fill="#FAFAFA"/>
<path d="M52.549 138.591H51.0269V140.113H52.549V138.591Z" fill="#FAFAFA"/>
<path d="M52.549 141.139H51.0269V142.661H52.549V141.139Z" fill="#FAFAFA"/>
<path d="M52.549 143.687H51.0269V145.209H52.549V143.687Z" fill="#FAFAFA"/>
<path d="M52.549 146.239H51.0269V147.761H52.549V146.239Z" fill="#FAFAFA"/>
<path d="M50.1349 90.146H48.6128V91.6681H50.1349V90.146Z" fill="#FAFAFA"/>
<path d="M50.1349 92.6934H48.6128V94.2155H50.1349V92.6934Z" fill="#FAFAFA"/>
<path d="M50.1349 95.2412H48.6128V96.7633H50.1349V95.2412Z" fill="#FAFAFA"/>
<path d="M50.1349 97.7939H48.6128V99.316H50.1349V97.7939Z" fill="#FAFAFA"/>
<path d="M50.1349 100.341H48.6128V101.863H50.1349V100.341Z" fill="#FAFAFA"/>
<path d="M50.1349 102.894H48.6128V104.416H50.1349V102.894Z" fill="#FAFAFA"/>
<path d="M50.1349 105.442H48.6128V106.964H50.1349V105.442Z" fill="#FAFAFA"/>
<path d="M50.1349 107.995H48.6128V109.517H50.1349V107.995Z" fill="#FAFAFA"/>
<path d="M50.1349 110.542H48.6128V112.064H50.1349V110.542Z" fill="#FAFAFA"/>
<path d="M50.1349 113.09H48.6128V114.612H50.1349V113.09Z" fill="#FAFAFA"/>
<path d="M50.1349 115.643H48.6128V117.165H50.1349V115.643Z" fill="#FAFAFA"/>
<path d="M50.1349 118.19H48.6128V119.712H50.1349V118.19Z" fill="#FAFAFA"/>
<path d="M50.1349 120.743H48.6128V122.265H50.1349V120.743Z" fill="#FAFAFA"/>
<path d="M50.1349 123.291H48.6128V124.813H50.1349V123.291Z" fill="#FAFAFA"/>
<path d="M50.1349 125.838H48.6128V127.36H50.1349V125.838Z" fill="#FAFAFA"/>
<path d="M50.1349 128.391H48.6128V129.913H50.1349V128.391Z" fill="#FAFAFA"/>
<path d="M50.1349 130.938H48.6128V132.461H50.1349V130.938Z" fill="#FAFAFA"/>
<path d="M50.1349 133.491H48.6128V135.013H50.1349V133.491Z" fill="#FAFAFA"/>
<path d="M50.1349 136.039H48.6128V137.561H50.1349V136.039Z" fill="#FAFAFA"/>
<path d="M47.7208 90.146H46.1987V91.6681H47.7208V90.146Z" fill="#FAFAFA"/>
<path d="M47.7208 92.6934H46.1987V94.2155H47.7208V92.6934Z" fill="#FAFAFA"/>
<path d="M47.7208 95.2412H46.1987V96.7633H47.7208V95.2412Z" fill="#FAFAFA"/>
<path d="M47.7208 97.7939H46.1987V99.316H47.7208V97.7939Z" fill="#FAFAFA"/>
<path d="M47.7208 100.341H46.1987V101.863H47.7208V100.341Z" fill="#FAFAFA"/>
<path d="M47.7208 102.894H46.1987V104.416H47.7208V102.894Z" fill="#FAFAFA"/>
<path d="M47.7208 105.442H46.1987V106.964H47.7208V105.442Z" fill="#FAFAFA"/>
<path d="M47.7208 107.995H46.1987V109.517H47.7208V107.995Z" fill="#FAFAFA"/>
<path d="M47.7208 110.542H46.1987V112.064H47.7208V110.542Z" fill="#FAFAFA"/>
<path d="M47.7208 113.09H46.1987V114.612H47.7208V113.09Z" fill="#FAFAFA"/>
<path d="M47.7208 115.643H46.1987V117.165H47.7208V115.643Z" fill="#FAFAFA"/>
<path d="M47.7208 118.19H46.1987V119.712H47.7208V118.19Z" fill="#FAFAFA"/>
<path d="M47.7208 120.743H46.1987V122.265H47.7208V120.743Z" fill="#FAFAFA"/>
<path d="M47.7208 123.291H46.1987V124.813H47.7208V123.291Z" fill="#FAFAFA"/>
<path d="M47.7208 125.838H46.1987V127.36H47.7208V125.838Z" fill="#FAFAFA"/>
<path d="M47.7208 128.391H46.1987V129.913H47.7208V128.391Z" fill="#FAFAFA"/>
<path d="M47.7208 130.938H46.1987V132.461H47.7208V130.938Z" fill="#FAFAFA"/>
<path d="M47.7208 133.491H46.1987V135.013H47.7208V133.491Z" fill="#FAFAFA"/>
<path d="M47.7208 136.039H46.1987V137.561H47.7208V136.039Z" fill="#FAFAFA"/>
<path d="M45.3014 90.146H43.7793V91.6681H45.3014V90.146Z" fill="#FAFAFA"/>
<path d="M45.3014 92.6934H43.7793V94.2155H45.3014V92.6934Z" fill="#FAFAFA"/>
<path d="M45.3014 95.2412H43.7793V96.7633H45.3014V95.2412Z" fill="#FAFAFA"/>
<path d="M45.3014 97.7939H43.7793V99.316H45.3014V97.7939Z" fill="#FAFAFA"/>
<path d="M45.3014 100.341H43.7793V101.863H45.3014V100.341Z" fill="#FAFAFA"/>
<path d="M45.3014 102.894H43.7793V104.416H45.3014V102.894Z" fill="#FAFAFA"/>
<path d="M45.3014 105.442H43.7793V106.964H45.3014V105.442Z" fill="#FAFAFA"/>
<path d="M45.3014 107.995H43.7793V109.517H45.3014V107.995Z" fill="#FAFAFA"/>
<path d="M45.3014 110.542H43.7793V112.064H45.3014V110.542Z" fill="#FAFAFA"/>
<path d="M45.3014 113.09H43.7793V114.612H45.3014V113.09Z" fill="#FAFAFA"/>
<path d="M45.3014 115.643H43.7793V117.165H45.3014V115.643Z" fill="#FAFAFA"/>
<path d="M45.3014 118.19H43.7793V119.712H45.3014V118.19Z" fill="#FAFAFA"/>
<path d="M45.3014 120.743H43.7793V122.265H45.3014V120.743Z" fill="#FAFAFA"/>
<path d="M45.3014 123.291H43.7793V124.813H45.3014V123.291Z" fill="#FAFAFA"/>
<path d="M45.3014 125.838H43.7793V127.36H45.3014V125.838Z" fill="#FAFAFA"/>
<path d="M42.8876 90.146H41.3655V91.6681H42.8876V90.146Z" fill="#FAFAFA"/>
<path d="M42.8876 92.6934H41.3655V94.2155H42.8876V92.6934Z" fill="#FAFAFA"/>
<path d="M42.8876 95.2412H41.3655V96.7633H42.8876V95.2412Z" fill="#FAFAFA"/>
<path d="M42.8876 97.7939H41.3655V99.316H42.8876V97.7939Z" fill="#FAFAFA"/>
<path d="M42.8876 100.341H41.3655V101.863H42.8876V100.341Z" fill="#FAFAFA"/>
<path d="M42.8876 102.894H41.3655V104.416H42.8876V102.894Z" fill="#FAFAFA"/>
<path d="M42.8876 105.442H41.3655V106.964H42.8876V105.442Z" fill="#FAFAFA"/>
<path d="M42.8876 107.995H41.3655V109.517H42.8876V107.995Z" fill="#FAFAFA"/>
<path d="M42.8876 110.542H41.3655V112.064H42.8876V110.542Z" fill="#FAFAFA"/>
<path d="M42.8876 113.09H41.3655V114.612H42.8876V113.09Z" fill="#FAFAFA"/>
<path d="M42.8876 115.643H41.3655V117.165H42.8876V115.643Z" fill="#FAFAFA"/>
<path d="M42.8876 118.19H41.3655V119.712H42.8876V118.19Z" fill="#FAFAFA"/>
<path d="M42.8876 120.743H41.3655V122.265H42.8876V120.743Z" fill="#FAFAFA"/>
<path d="M40.4735 90.146H38.9514V91.6681H40.4735V90.146Z" fill="#FAFAFA"/>
<path d="M40.4735 92.6934H38.9514V94.2155H40.4735V92.6934Z" fill="#FAFAFA"/>
<path d="M40.4735 95.2412H38.9514V96.7633H40.4735V95.2412Z" fill="#FAFAFA"/>
<path d="M40.4735 97.7939H38.9514V99.316H40.4735V97.7939Z" fill="#FAFAFA"/>
<path d="M40.4735 100.341H38.9514V101.863H40.4735V100.341Z" fill="#FAFAFA"/>
<path d="M40.4735 102.894H38.9514V104.416H40.4735V102.894Z" fill="#FAFAFA"/>
<path d="M40.4735 105.442H38.9514V106.964H40.4735V105.442Z" fill="#FAFAFA"/>
<path d="M40.4735 107.995H38.9514V109.517H40.4735V107.995Z" fill="#FAFAFA"/>
<path d="M40.4735 110.542H38.9514V112.064H40.4735V110.542Z" fill="#FAFAFA"/>
<path d="M40.4735 113.09H38.9514V114.612H40.4735V113.09Z" fill="#FAFAFA"/>
<path d="M40.4735 115.643H38.9514V117.165H40.4735V115.643Z" fill="#FAFAFA"/>
<path d="M40.4735 118.19H38.9514V119.712H40.4735V118.19Z" fill="#FAFAFA"/>
<path d="M217.972 108.753H216.45V110.275H217.972V108.753Z" fill="#FAFAFA"/>
<path d="M217.972 111.3H216.45V112.822H217.972V111.3Z" fill="#FAFAFA"/>
<path d="M217.972 113.854H216.45V115.376H217.972V113.854Z" fill="#FAFAFA"/>
<path d="M217.972 116.401H216.45V117.923H217.972V116.401Z" fill="#FAFAFA"/>
<path d="M217.972 118.954H216.45V120.476H217.972V118.954Z" fill="#FAFAFA"/>
<path d="M217.972 121.501H216.45V123.024H217.972V121.501Z" fill="#FAFAFA"/>
<path d="M217.972 124.049H216.45V125.571H217.972V124.049Z" fill="#FAFAFA"/>
<path d="M217.972 126.602H216.45V128.124H217.972V126.602Z" fill="#FAFAFA"/>
<path d="M217.972 129.149H216.45V130.671H217.972V129.149Z" fill="#FAFAFA"/>
<path d="M217.972 131.702H216.45V133.224H217.972V131.702Z" fill="#FAFAFA"/>
<path d="M217.972 134.25H216.45V135.772H217.972V134.25Z" fill="#FAFAFA"/>
<path d="M217.972 136.797H216.45V138.319H217.972V136.797Z" fill="#FAFAFA"/>
<path d="M217.972 139.35H216.45V140.872H217.972V139.35Z" fill="#FAFAFA"/>
<path d="M217.972 141.897H216.45V143.42H217.972V141.897Z" fill="#FAFAFA"/>
<path d="M217.972 144.45H216.45V145.972H217.972V144.45Z" fill="#FAFAFA"/>
<path d="M217.972 146.998H216.45V148.52H217.972V146.998Z" fill="#FAFAFA"/>
<path d="M217.972 149.551H216.45V151.073H217.972V149.551Z" fill="#FAFAFA"/>
<path d="M217.972 152.098H216.45V153.62H217.972V152.098Z" fill="#FAFAFA"/>
<path d="M217.972 154.646H216.45V156.168H217.972V154.646Z" fill="#FAFAFA"/>
<path d="M217.972 157.199H216.45V158.721H217.972V157.199Z" fill="#FAFAFA"/>
<path d="M215.553 108.753H214.031V110.275H215.553V108.753Z" fill="#FAFAFA"/>
<path d="M215.553 111.3H214.031V112.822H215.553V111.3Z" fill="#FAFAFA"/>
<path d="M215.553 113.854H214.031V115.376H215.553V113.854Z" fill="#FAFAFA"/>
<path d="M215.553 116.401H214.031V117.923H215.553V116.401Z" fill="#FAFAFA"/>
<path d="M215.553 118.954H214.031V120.476H215.553V118.954Z" fill="#FAFAFA"/>
<path d="M215.553 121.501H214.031V123.024H215.553V121.501Z" fill="#FAFAFA"/>
<path d="M215.553 124.049H214.031V125.571H215.553V124.049Z" fill="#FAFAFA"/>
<path d="M215.553 126.602H214.031V128.124H215.553V126.602Z" fill="#FAFAFA"/>
<path d="M215.553 129.149H214.031V130.671H215.553V129.149Z" fill="#FAFAFA"/>
<path d="M215.553 131.702H214.031V133.224H215.553V131.702Z" fill="#FAFAFA"/>
<path d="M215.553 134.25H214.031V135.772H215.553V134.25Z" fill="#FAFAFA"/>
<path d="M215.553 136.797H214.031V138.319H215.553V136.797Z" fill="#FAFAFA"/>
<path d="M215.553 139.35H214.031V140.872H215.553V139.35Z" fill="#FAFAFA"/>
<path d="M215.553 141.897H214.031V143.42H215.553V141.897Z" fill="#FAFAFA"/>
<path d="M215.553 144.45H214.031V145.972H215.553V144.45Z" fill="#FAFAFA"/>
<path d="M215.553 146.998H214.031V148.52H215.553V146.998Z" fill="#FAFAFA"/>
<path d="M215.553 149.551H214.031V151.073H215.553V149.551Z" fill="#FAFAFA"/>
<path d="M215.553 152.098H214.031V153.62H215.553V152.098Z" fill="#FAFAFA"/>
<path d="M213.139 108.753H211.616V110.275H213.139V108.753Z" fill="#FAFAFA"/>
<path d="M213.139 111.3H211.616V112.822H213.139V111.3Z" fill="#FAFAFA"/>
<path d="M213.139 113.854H211.616V115.376H213.139V113.854Z" fill="#FAFAFA"/>
<path d="M213.139 116.401H211.616V117.923H213.139V116.401Z" fill="#FAFAFA"/>
<path d="M213.139 118.954H211.616V120.476H213.139V118.954Z" fill="#FAFAFA"/>
<path d="M213.139 121.501H211.616V123.024H213.139V121.501Z" fill="#FAFAFA"/>
<path d="M213.139 124.049H211.616V125.571H213.139V124.049Z" fill="#FAFAFA"/>
<path d="M213.139 126.602H211.616V128.124H213.139V126.602Z" fill="#FAFAFA"/>
<path d="M213.139 129.149H211.616V130.671H213.139V129.149Z" fill="#FAFAFA"/>
<path d="M213.139 131.702H211.616V133.224H213.139V131.702Z" fill="#FAFAFA"/>
<path d="M213.139 134.25H211.616V135.772H213.139V134.25Z" fill="#FAFAFA"/>
<path d="M213.139 136.797H211.616V138.319H213.139V136.797Z" fill="#FAFAFA"/>
<path d="M213.139 139.35H211.616V140.872H213.139V139.35Z" fill="#FAFAFA"/>
<path d="M213.139 141.897H211.616V143.42H213.139V141.897Z" fill="#FAFAFA"/>
<path d="M213.139 144.45H211.616V145.972H213.139V144.45Z" fill="#FAFAFA"/>
<path d="M213.139 146.998H211.616V148.52H213.139V146.998Z" fill="#FAFAFA"/>
<path d="M213.139 149.551H211.616V151.073H213.139V149.551Z" fill="#FAFAFA"/>
<path d="M213.139 152.098H211.616V153.62H213.139V152.098Z" fill="#FAFAFA"/>
<path d="M227.008 127.36H225.486V128.882H227.008V127.36Z" fill="#FAFAFA"/>
<path d="M227.008 129.913H225.486V131.435H227.008V129.913Z" fill="#FAFAFA"/>
<path d="M227.008 132.46H225.486V133.983H227.008V132.46Z" fill="#FAFAFA"/>
<path d="M227.008 135.008H225.486V136.53H227.008V135.008Z" fill="#FAFAFA"/>
<path d="M227.008 137.561H225.486V139.083H227.008V137.561Z" fill="#FAFAFA"/>
<path d="M227.008 140.108H225.486V141.631H227.008V140.108Z" fill="#FAFAFA"/>
<path d="M227.008 142.661H225.486V144.183H227.008V142.661Z" fill="#FAFAFA"/>
<path d="M227.008 145.208H225.486V146.731H227.008V145.208Z" fill="#FAFAFA"/>
<path d="M227.008 147.762H225.486V149.284H227.008V147.762Z" fill="#FAFAFA"/>
<path d="M227.008 150.309H225.486V151.831H227.008V150.309Z" fill="#FAFAFA"/>
<path d="M227.008 152.856H225.486V154.379H227.008V152.856Z" fill="#FAFAFA"/>
<path d="M227.008 155.409H225.486V156.931H227.008V155.409Z" fill="#FAFAFA"/>
<path d="M227.008 157.957H225.486V159.479H227.008V157.957Z" fill="#FAFAFA"/>
<path d="M224.589 127.36H223.067V128.882H224.589V127.36Z" fill="#FAFAFA"/>
<path d="M224.589 129.913H223.067V131.435H224.589V129.913Z" fill="#FAFAFA"/>
<path d="M224.589 132.46H223.067V133.983H224.589V132.46Z" fill="#FAFAFA"/>
<path d="M224.589 135.008H223.067V136.53H224.589V135.008Z" fill="#FAFAFA"/>
<path d="M224.589 137.561H223.067V139.083H224.589V137.561Z" fill="#FAFAFA"/>
<path d="M224.589 140.108H223.067V141.631H224.589V140.108Z" fill="#FAFAFA"/>
<path d="M224.589 142.661H223.067V144.183H224.589V142.661Z" fill="#FAFAFA"/>
<path d="M224.589 145.208H223.067V146.731H224.589V145.208Z" fill="#FAFAFA"/>
<path d="M224.589 147.762H223.067V149.284H224.589V147.762Z" fill="#FAFAFA"/>
<path d="M224.589 150.309H223.067V151.831H224.589V150.309Z" fill="#FAFAFA"/>
<path d="M224.589 152.856H223.067V154.379H224.589V152.856Z" fill="#FAFAFA"/>
<path d="M224.589 155.409H223.067V156.931H224.589V155.409Z" fill="#FAFAFA"/>
<path d="M224.589 157.957H223.067V159.479H224.589V157.957Z" fill="#FAFAFA"/>
<path d="M222.175 127.36H220.653V128.882H222.175V127.36Z" fill="#FAFAFA"/>
<path d="M222.175 129.913H220.653V131.435H222.175V129.913Z" fill="#FAFAFA"/>
<path d="M222.175 132.46H220.653V133.983H222.175V132.46Z" fill="#FAFAFA"/>
<path d="M222.175 135.008H220.653V136.53H222.175V135.008Z" fill="#FAFAFA"/>
<path d="M222.175 137.561H220.653V139.083H222.175V137.561Z" fill="#FAFAFA"/>
<path d="M222.175 140.108H220.653V141.631H222.175V140.108Z" fill="#FAFAFA"/>
<path d="M222.175 142.661H220.653V144.183H222.175V142.661Z" fill="#FAFAFA"/>
<path d="M222.175 145.208H220.653V146.731H222.175V145.208Z" fill="#FAFAFA"/>
<path d="M222.175 147.762H220.653V149.284H222.175V147.762Z" fill="#FAFAFA"/>
<path d="M222.175 150.309H220.653V151.831H222.175V150.309Z" fill="#FAFAFA"/>
<path d="M222.175 152.856H220.653V154.379H222.175V152.856Z" fill="#FAFAFA"/>
<path d="M222.175 155.409H220.653V156.931H222.175V155.409Z" fill="#FAFAFA"/>
<path d="M222.175 157.957H220.653V159.479H222.175V157.957Z" fill="#FAFAFA"/>
<path d="M222.175 160.51H220.653V162.032H222.175V160.51Z" fill="#FAFAFA"/>
<path d="M208.754 128.124H207.232V129.646H208.754V128.124Z" fill="#FAFAFA"/>
<path d="M208.754 130.671H207.232V132.193H208.754V130.671Z" fill="#FAFAFA"/>
<path d="M208.754 133.219H207.232V134.741H208.754V133.219Z" fill="#FAFAFA"/>
<path d="M208.754 135.771H207.232V137.294H208.754V135.771Z" fill="#FAFAFA"/>
<path d="M208.754 138.319H207.232V139.841H208.754V138.319Z" fill="#FAFAFA"/>
<path d="M208.754 140.872H207.232V142.394H208.754V140.872Z" fill="#FAFAFA"/>
<path d="M208.754 143.419H207.232V144.942H208.754V143.419Z" fill="#FAFAFA"/>
<path d="M208.754 145.972H207.232V147.494H208.754V145.972Z" fill="#FAFAFA"/>
<path d="M208.754 148.52H207.232V150.042H208.754V148.52Z" fill="#FAFAFA"/>
<path d="M208.754 151.067H207.232V152.589H208.754V151.067Z" fill="#FAFAFA"/>
<path d="M208.754 158.721H207.232V160.243H208.754V158.721Z" fill="#FAFAFA"/>
<path d="M206.34 128.124H204.818V129.646H206.34V128.124Z" fill="#FAFAFA"/>
<path d="M206.34 130.671H204.818V132.193H206.34V130.671Z" fill="#FAFAFA"/>
<path d="M206.34 133.219H204.818V134.741H206.34V133.219Z" fill="#FAFAFA"/>
<path d="M206.34 135.771H204.818V137.294H206.34V135.771Z" fill="#FAFAFA"/>
<path d="M206.34 138.319H204.818V139.841H206.34V138.319Z" fill="#FAFAFA"/>
<path d="M206.34 140.872H204.818V142.394H206.34V140.872Z" fill="#FAFAFA"/>
<path d="M206.34 143.419H204.818V144.942H206.34V143.419Z" fill="#FAFAFA"/>
<path d="M206.34 145.972H204.818V147.494H206.34V145.972Z" fill="#FAFAFA"/>
<path d="M206.34 148.52H204.818V150.042H206.34V148.52Z" fill="#FAFAFA"/>
<path d="M206.34 156.168H204.818V157.69H206.34V156.168Z" fill="#FAFAFA"/>
<path d="M206.34 158.721H204.818V160.243H206.34V158.721Z" fill="#FAFAFA"/>
<path d="M203.926 128.124H202.404V129.646H203.926V128.124Z" fill="#FAFAFA"/>
<path d="M203.926 130.671H202.404V132.193H203.926V130.671Z" fill="#FAFAFA"/>
<path d="M203.926 133.219H202.404V134.741H203.926V133.219Z" fill="#FAFAFA"/>
<path d="M203.926 135.771H202.404V137.294H203.926V135.771Z" fill="#FAFAFA"/>
<path d="M203.926 138.319H202.404V139.841H203.926V138.319Z" fill="#FAFAFA"/>
<path d="M203.926 140.872H202.404V142.394H203.926V140.872Z" fill="#FAFAFA"/>
<path d="M203.926 143.419H202.404V144.942H203.926V143.419Z" fill="#FAFAFA"/>
<path d="M203.926 145.972H202.404V147.494H203.926V145.972Z" fill="#FAFAFA"/>
<path d="M203.926 153.62H202.404V155.142H203.926V153.62Z" fill="#FAFAFA"/>
<path d="M203.926 156.168H202.404V157.69H203.926V156.168Z" fill="#FAFAFA"/>
<path d="M203.926 158.721H202.404V160.243H203.926V158.721Z" fill="#FAFAFA"/>
<path d="M181.468 89.3823H179.946V90.9044H181.468V89.3823Z" fill="#FAFAFA"/>
<path d="M181.468 91.9351H179.946V93.4572H181.468V91.9351Z" fill="#FAFAFA"/>
<path d="M181.468 94.4824H179.946V96.0045H181.468V94.4824Z" fill="#FAFAFA"/>
<path d="M181.468 97.0303H179.946V98.5524H181.468V97.0303Z" fill="#FAFAFA"/>
<path d="M181.468 99.583H179.946V101.105H181.468V99.583Z" fill="#FAFAFA"/>
<path d="M181.468 102.13H179.946V103.652H181.468V102.13Z" fill="#FAFAFA"/>
<path d="M181.468 104.684H179.946V106.206H181.468V104.684Z" fill="#FAFAFA"/>
<path d="M181.468 107.231H179.946V108.753H181.468V107.231Z" fill="#FAFAFA"/>
<path d="M181.468 109.784H179.946V111.306H181.468V109.784Z" fill="#FAFAFA"/>
<path d="M181.468 112.331H179.946V113.853H181.468V112.331Z" fill="#FAFAFA"/>
<path d="M181.468 114.879H179.946V116.401H181.468V114.879Z" fill="#FAFAFA"/>
<path d="M181.468 117.432H179.946V118.954H181.468V117.432Z" fill="#FAFAFA"/>
<path d="M181.468 119.979H179.946V121.501H181.468V119.979Z" fill="#FAFAFA"/>
<path d="M181.468 122.532H179.946V124.054H181.468V122.532Z" fill="#FAFAFA"/>
<path d="M181.468 125.08H179.946V126.602H181.468V125.08Z" fill="#FAFAFA"/>
<path d="M181.468 127.627H179.946V129.149H181.468V127.627Z" fill="#FAFAFA"/>
<path d="M181.468 130.18H179.946V131.702H181.468V130.18Z" fill="#FAFAFA"/>
<path d="M181.468 135.28H179.946V136.802H181.468V135.28Z" fill="#FAFAFA"/>
<path d="M181.468 137.828H179.946V139.35H181.468V137.828Z" fill="#FAFAFA"/>
<path d="M181.468 140.381H179.946V141.903H181.468V140.381Z" fill="#FAFAFA"/>
<path d="M181.468 142.928H179.946V144.45H181.468V142.928Z" fill="#FAFAFA"/>
<path d="M181.468 145.476H179.946V146.998H181.468V145.476Z" fill="#FAFAFA"/>
<path d="M179.054 89.3823H177.532V90.9044H179.054V89.3823Z" fill="#FAFAFA"/>
<path d="M179.054 91.9351H177.532V93.4572H179.054V91.9351Z" fill="#FAFAFA"/>
<path d="M179.054 94.4824H177.532V96.0045H179.054V94.4824Z" fill="#FAFAFA"/>
<path d="M179.054 97.0303H177.532V98.5524H179.054V97.0303Z" fill="#FAFAFA"/>
<path d="M179.054 99.583H177.532V101.105H179.054V99.583Z" fill="#FAFAFA"/>
<path d="M179.054 102.13H177.532V103.652H179.054V102.13Z" fill="#FAFAFA"/>
<path d="M179.054 104.684H177.532V106.206H179.054V104.684Z" fill="#FAFAFA"/>
<path d="M179.054 107.231H177.532V108.753H179.054V107.231Z" fill="#FAFAFA"/>
<path d="M179.054 109.784H177.532V111.306H179.054V109.784Z" fill="#FAFAFA"/>
<path d="M179.054 112.331H177.532V113.853H179.054V112.331Z" fill="#FAFAFA"/>
<path d="M179.054 114.879H177.532V116.401H179.054V114.879Z" fill="#FAFAFA"/>
<path d="M179.054 117.432H177.532V118.954H179.054V117.432Z" fill="#FAFAFA"/>
<path d="M179.054 119.979H177.532V121.501H179.054V119.979Z" fill="#FAFAFA"/>
<path d="M179.054 122.532H177.532V124.054H179.054V122.532Z" fill="#FAFAFA"/>
<path d="M179.054 125.08H177.532V126.602H179.054V125.08Z" fill="#FAFAFA"/>
<path d="M179.054 127.627H177.532V129.149H179.054V127.627Z" fill="#FAFAFA"/>
<path d="M179.054 142.928H177.532V144.45H179.054V142.928Z" fill="#FAFAFA"/>
<path d="M179.054 145.476H177.532V146.998H179.054V145.476Z" fill="#FAFAFA"/>
<path d="M176.64 89.3823H175.118V90.9044H176.64V89.3823Z" fill="#FAFAFA"/>
<path d="M176.64 91.9351H175.118V93.4572H176.64V91.9351Z" fill="#FAFAFA"/>
<path d="M176.64 94.4824H175.118V96.0045H176.64V94.4824Z" fill="#FAFAFA"/>
<path d="M176.64 97.0303H175.118V98.5524H176.64V97.0303Z" fill="#FAFAFA"/>
<path d="M176.64 99.583H175.118V101.105H176.64V99.583Z" fill="#FAFAFA"/>
<path d="M176.64 102.13H175.118V103.652H176.64V102.13Z" fill="#FAFAFA"/>
<path d="M176.64 104.684H175.118V106.206H176.64V104.684Z" fill="#FAFAFA"/>
<path d="M176.64 107.231H175.118V108.753H176.64V107.231Z" fill="#FAFAFA"/>
<path d="M176.64 109.784H175.118V111.306H176.64V109.784Z" fill="#FAFAFA"/>
<path d="M176.64 112.331H175.118V113.853H176.64V112.331Z" fill="#FAFAFA"/>
<path d="M176.64 114.879H175.118V116.401H176.64V114.879Z" fill="#FAFAFA"/>
<path d="M176.64 117.432H175.118V118.954H176.64V117.432Z" fill="#FAFAFA"/>
<path d="M176.64 119.979H175.118V121.501H176.64V119.979Z" fill="#FAFAFA"/>
<path d="M176.64 122.532H175.118V124.054H176.64V122.532Z" fill="#FAFAFA"/>
<path d="M176.64 125.08H175.118V126.602H176.64V125.08Z" fill="#FAFAFA"/>
<path d="M176.64 127.627H175.118V129.149H176.64V127.627Z" fill="#FAFAFA"/>
<path d="M176.64 132.728H175.118V134.25H176.64V132.728Z" fill="#FAFAFA"/>
<path d="M176.64 135.28H175.118V136.802H176.64V135.28Z" fill="#FAFAFA"/>
<path d="M176.64 137.828H175.118V139.35H176.64V137.828Z" fill="#FAFAFA"/>
<path d="M176.64 140.381H175.118V141.903H176.64V140.381Z" fill="#FAFAFA"/>
<path d="M176.64 145.476H175.118V146.998H176.64V145.476Z" fill="#FAFAFA"/>
<path d="M190.238 121.501H188.716V123.024H190.238V121.501Z" fill="#FAFAFA"/>
<path d="M190.238 124.049H188.716V125.571H190.238V124.049Z" fill="#FAFAFA"/>
<path d="M190.238 126.602H188.716V128.124H190.238V126.602Z" fill="#FAFAFA"/>
<path d="M190.238 129.149H188.716V130.671H190.238V129.149Z" fill="#FAFAFA"/>
<path d="M190.238 131.702H188.716V133.224H190.238V131.702Z" fill="#FAFAFA"/>
<path d="M190.238 134.25H188.716V135.772H190.238V134.25Z" fill="#FAFAFA"/>
<path d="M190.238 136.797H188.716V138.319H190.238V136.797Z" fill="#FAFAFA"/>
<path d="M190.238 141.897H188.716V143.42H190.238V141.897Z" fill="#FAFAFA"/>
<path d="M190.238 144.45H188.716V145.972H190.238V144.45Z" fill="#FAFAFA"/>
<path d="M190.238 146.998H188.716V148.52H190.238V146.998Z" fill="#FAFAFA"/>
<path d="M190.238 149.551H188.716V151.073H190.238V149.551Z" fill="#FAFAFA"/>
<path d="M190.238 152.098H188.716V153.62H190.238V152.098Z" fill="#FAFAFA"/>
<path d="M190.238 154.646H188.716V156.168H190.238V154.646Z" fill="#FAFAFA"/>
<path d="M190.238 157.199H188.716V158.721H190.238V157.199Z" fill="#FAFAFA"/>
<path d="M190.238 159.746H188.716V161.268H190.238V159.746Z" fill="#FAFAFA"/>
<path d="M187.818 121.501H186.296V123.024H187.818V121.501Z" fill="#FAFAFA"/>
<path d="M187.818 124.049H186.296V125.571H187.818V124.049Z" fill="#FAFAFA"/>
<path d="M187.818 126.602H186.296V128.124H187.818V126.602Z" fill="#FAFAFA"/>
<path d="M187.818 129.149H186.296V130.671H187.818V129.149Z" fill="#FAFAFA"/>
<path d="M187.818 131.702H186.296V133.224H187.818V131.702Z" fill="#FAFAFA"/>
<path d="M187.818 134.25H186.296V135.772H187.818V134.25Z" fill="#FAFAFA"/>
<path d="M187.818 141.897H186.296V143.42H187.818V141.897Z" fill="#FAFAFA"/>
<path d="M187.818 144.45H186.296V145.972H187.818V144.45Z" fill="#FAFAFA"/>
<path d="M187.818 146.998H186.296V148.52H187.818V146.998Z" fill="#FAFAFA"/>
<path d="M187.818 149.551H186.296V151.073H187.818V149.551Z" fill="#FAFAFA"/>
<path d="M187.818 152.098H186.296V153.62H187.818V152.098Z" fill="#FAFAFA"/>
<path d="M187.818 154.646H186.296V156.168H187.818V154.646Z" fill="#FAFAFA"/>
<path d="M187.818 157.199H186.296V158.721H187.818V157.199Z" fill="#FAFAFA"/>
<path d="M187.818 159.746H186.296V161.268H187.818V159.746Z" fill="#FAFAFA"/>
<path d="M185.404 121.501H183.882V123.024H185.404V121.501Z" fill="#FAFAFA"/>
<path d="M185.404 124.049H183.882V125.571H185.404V124.049Z" fill="#FAFAFA"/>
<path d="M185.404 126.602H183.882V128.124H185.404V126.602Z" fill="#FAFAFA"/>
<path d="M185.404 129.149H183.882V130.671H185.404V129.149Z" fill="#FAFAFA"/>
<path d="M185.404 131.702H183.882V133.224H185.404V131.702Z" fill="#FAFAFA"/>
<path d="M185.404 134.25H183.882V135.772H185.404V134.25Z" fill="#FAFAFA"/>
<path d="M185.404 139.35H183.882V140.872H185.404V139.35Z" fill="#FAFAFA"/>
<path d="M185.404 141.897H183.882V143.42H185.404V141.897Z" fill="#FAFAFA"/>
<path d="M185.404 144.45H183.882V145.972H185.404V144.45Z" fill="#FAFAFA"/>
<path d="M185.404 146.998H183.882V148.52H185.404V146.998Z" fill="#FAFAFA"/>
<path d="M185.404 149.551H183.882V151.073H185.404V149.551Z" fill="#FAFAFA"/>
<path d="M185.404 152.098H183.882V153.62H185.404V152.098Z" fill="#FAFAFA"/>
<path d="M185.404 154.646H183.882V156.168H185.404V154.646Z" fill="#FAFAFA"/>
<path d="M185.404 157.199H183.882V158.721H185.404V157.199Z" fill="#FAFAFA"/>
<path d="M185.404 159.746H183.882V161.268H185.404V159.746Z" fill="#FAFAFA"/>
<path d="M134.502 107.231H132.98V108.753H134.502V107.231Z" fill="#FAFAFA"/>
<path d="M134.502 109.784H132.98V111.306H134.502V109.784Z" fill="#FAFAFA"/>
<path d="M134.502 112.331H132.98V113.853H134.502V112.331Z" fill="#FAFAFA"/>
<path d="M134.502 114.879H132.98V116.401H134.502V114.879Z" fill="#FAFAFA"/>
<path d="M134.502 117.432H132.98V118.954H134.502V117.432Z" fill="#FAFAFA"/>
<path d="M134.502 119.979H132.98V121.501H134.502V119.979Z" fill="#FAFAFA"/>
<path d="M134.502 122.532H132.98V124.054H134.502V122.532Z" fill="#FAFAFA"/>
<path d="M134.502 125.08H132.98V126.602H134.502V125.08Z" fill="#FAFAFA"/>
<path d="M134.502 127.627H132.98V129.149H134.502V127.627Z" fill="#FAFAFA"/>
<path d="M134.502 130.18H132.98V131.702H134.502V130.18Z" fill="#FAFAFA"/>
<path d="M134.502 132.728H132.98V134.25H134.502V132.728Z" fill="#FAFAFA"/>
<path d="M134.502 135.28H132.98V136.802H134.502V135.28Z" fill="#FAFAFA"/>
<path d="M134.502 137.828H132.98V139.35H134.502V137.828Z" fill="#FAFAFA"/>
<path d="M134.502 142.928H132.98V144.45H134.502V142.928Z" fill="#FAFAFA"/>
<path d="M134.502 145.476H132.98V146.998H134.502V145.476Z" fill="#FAFAFA"/>
<path d="M134.502 148.028H132.98V149.55H134.502V148.028Z" fill="#FAFAFA"/>
<path d="M134.502 150.576H132.98V152.098H134.502V150.576Z" fill="#FAFAFA"/>
<path d="M134.502 155.676H132.98V157.198H134.502V155.676Z" fill="#FAFAFA"/>
<path d="M134.502 158.224H132.98V159.746H134.502V158.224Z" fill="#FAFAFA"/>
<path d="M134.502 160.777H132.98V162.299H134.502V160.777Z" fill="#FAFAFA"/>
<path d="M132.083 107.231H130.561V108.753H132.083V107.231Z" fill="#FAFAFA"/>
<path d="M132.083 109.784H130.561V111.306H132.083V109.784Z" fill="#FAFAFA"/>
<path d="M132.083 112.331H130.561V113.853H132.083V112.331Z" fill="#FAFAFA"/>
<path d="M132.083 114.879H130.561V116.401H132.083V114.879Z" fill="#FAFAFA"/>
<path d="M132.083 117.432H130.561V118.954H132.083V117.432Z" fill="#FAFAFA"/>
<path d="M132.083 119.979H130.561V121.501H132.083V119.979Z" fill="#FAFAFA"/>
<path d="M132.083 122.532H130.561V124.054H132.083V122.532Z" fill="#FAFAFA"/>
<path d="M132.083 125.08H130.561V126.602H132.083V125.08Z" fill="#FAFAFA"/>
<path d="M132.083 127.627H130.561V129.149H132.083V127.627Z" fill="#FAFAFA"/>
<path d="M132.083 130.18H130.561V131.702H132.083V130.18Z" fill="#FAFAFA"/>
<path d="M132.083 132.728H130.561V134.25H132.083V132.728Z" fill="#FAFAFA"/>
<path d="M132.083 135.28H130.561V136.802H132.083V135.28Z" fill="#FAFAFA"/>
<path d="M132.083 137.828H130.561V139.35H132.083V137.828Z" fill="#FAFAFA"/>
<path d="M132.083 145.476H130.561V146.998H132.083V145.476Z" fill="#FAFAFA"/>
<path d="M132.083 148.028H130.561V149.55H132.083V148.028Z" fill="#FAFAFA"/>
<path d="M132.083 153.129H130.561V154.651H132.083V153.129Z" fill="#FAFAFA"/>
<path d="M132.083 155.676H130.561V157.198H132.083V155.676Z" fill="#FAFAFA"/>
<path d="M132.083 158.224H130.561V159.746H132.083V158.224Z" fill="#FAFAFA"/>
<path d="M132.083 160.777H130.561V162.299H132.083V160.777Z" fill="#FAFAFA"/>
<path d="M129.669 107.231H128.146V108.753H129.669V107.231Z" fill="#FAFAFA"/>
<path d="M129.669 109.784H128.146V111.306H129.669V109.784Z" fill="#FAFAFA"/>
<path d="M129.669 112.331H128.146V113.853H129.669V112.331Z" fill="#FAFAFA"/>
<path d="M129.669 114.879H128.146V116.401H129.669V114.879Z" fill="#FAFAFA"/>
<path d="M129.669 117.432H128.146V118.954H129.669V117.432Z" fill="#FAFAFA"/>
<path d="M129.669 119.979H128.146V121.501H129.669V119.979Z" fill="#FAFAFA"/>
<path d="M129.669 122.532H128.146V124.054H129.669V122.532Z" fill="#FAFAFA"/>
<path d="M129.669 125.08H128.146V126.602H129.669V125.08Z" fill="#FAFAFA"/>
<path d="M129.669 127.627H128.146V129.149H129.669V127.627Z" fill="#FAFAFA"/>
<path d="M129.669 130.18H128.146V131.702H129.669V130.18Z" fill="#FAFAFA"/>
<path d="M129.669 132.728H128.146V134.25H129.669V132.728Z" fill="#FAFAFA"/>
<path d="M129.669 135.28H128.146V136.802H129.669V135.28Z" fill="#FAFAFA"/>
<path d="M129.669 137.828H128.146V139.35H129.669V137.828Z" fill="#FAFAFA"/>
<path d="M129.669 140.381H128.146V141.903H129.669V140.381Z" fill="#FAFAFA"/>
<path d="M129.669 145.476H128.146V146.998H129.669V145.476Z" fill="#FAFAFA"/>
<path d="M129.669 150.576H128.146V152.098H129.669V150.576Z" fill="#FAFAFA"/>
<path d="M129.669 153.129H128.146V154.651H129.669V153.129Z" fill="#FAFAFA"/>
<path d="M129.669 155.676H128.146V157.198H129.669V155.676Z" fill="#FAFAFA"/>
<path d="M129.669 158.224H128.146V159.746H129.669V158.224Z" fill="#FAFAFA"/>
<path d="M129.669 160.777H128.146V162.299H129.669V160.777Z" fill="#FAFAFA"/>
<path d="M144.339 121.768H142.817V123.29H144.339V121.768Z" fill="#FAFAFA"/>
<path d="M144.339 124.321H142.817V125.843H144.339V124.321Z" fill="#FAFAFA"/>
<path d="M144.339 126.869H142.817V128.391H144.339V126.869Z" fill="#FAFAFA"/>
<path d="M144.339 129.421H142.817V130.943H144.339V129.421Z" fill="#FAFAFA"/>
<path d="M144.339 131.969H142.817V133.491H144.339V131.969Z" fill="#FAFAFA"/>
<path d="M144.339 134.517H142.817V136.039H144.339V134.517Z" fill="#FAFAFA"/>
<path d="M144.339 142.17H142.817V143.692H144.339V142.17Z" fill="#FAFAFA"/>
<path d="M144.339 144.717H142.817V146.239H144.339V144.717Z" fill="#FAFAFA"/>
<path d="M144.339 147.265H142.817V148.787H144.339V147.265Z" fill="#FAFAFA"/>
<path d="M144.339 149.818H142.817V151.34H144.339V149.818Z" fill="#FAFAFA"/>
<path d="M144.339 152.365H142.817V153.887H144.339V152.365Z" fill="#FAFAFA"/>
<path d="M144.339 154.918H142.817V156.44H144.339V154.918Z" fill="#FAFAFA"/>
<path d="M144.339 157.466H142.817V158.988H144.339V157.466Z" fill="#FAFAFA"/>
<path d="M141.925 121.768H140.403V123.29H141.925V121.768Z" fill="#FAFAFA"/>
<path d="M141.925 124.321H140.403V125.843H141.925V124.321Z" fill="#FAFAFA"/>
<path d="M141.925 126.869H140.403V128.391H141.925V126.869Z" fill="#FAFAFA"/>
<path d="M141.925 129.421H140.403V130.943H141.925V129.421Z" fill="#FAFAFA"/>
<path d="M141.925 131.969H140.403V133.491H141.925V131.969Z" fill="#FAFAFA"/>
<path d="M141.925 134.517H140.403V136.039H141.925V134.517Z" fill="#FAFAFA"/>
<path d="M141.925 142.17H140.403V143.692H141.925V142.17Z" fill="#FAFAFA"/>
<path d="M141.925 144.717H140.403V146.239H141.925V144.717Z" fill="#FAFAFA"/>
<path d="M141.925 147.265H140.403V148.787H141.925V147.265Z" fill="#FAFAFA"/>
<path d="M141.925 149.818H140.403V151.34H141.925V149.818Z" fill="#FAFAFA"/>
<path d="M141.925 152.365H140.403V153.887H141.925V152.365Z" fill="#FAFAFA"/>
<path d="M141.925 154.918H140.403V156.44H141.925V154.918Z" fill="#FAFAFA"/>
<path d="M141.925 160.013H140.403V161.535H141.925V160.013Z" fill="#FAFAFA"/>
<path d="M61.6762 110.542H60.1541V112.064H61.6762V110.542Z" fill="#FAFAFA"/>
<path d="M61.6762 113.09H60.1541V114.612H61.6762V113.09Z" fill="#FAFAFA"/>
<path d="M61.6762 115.643H60.1541V117.165H61.6762V115.643Z" fill="#FAFAFA"/>
<path d="M61.6762 118.19H60.1541V119.712H61.6762V118.19Z" fill="#FAFAFA"/>
<path d="M61.6762 120.743H60.1541V122.265H61.6762V120.743Z" fill="#FAFAFA"/>
<path d="M61.6762 123.291H60.1541V124.813H61.6762V123.291Z" fill="#FAFAFA"/>
<path d="M61.6762 125.838H60.1541V127.36H61.6762V125.838Z" fill="#FAFAFA"/>
<path d="M61.6762 128.391H60.1541V129.913H61.6762V128.391Z" fill="#FAFAFA"/>
<path d="M61.6762 130.938H60.1541V132.461H61.6762V130.938Z" fill="#FAFAFA"/>
<path d="M61.6762 133.491H60.1541V135.013H61.6762V133.491Z" fill="#FAFAFA"/>
<path d="M61.6762 136.039H60.1541V137.561H61.6762V136.039Z" fill="#FAFAFA"/>
<path d="M61.6762 141.139H60.1541V142.661H61.6762V141.139Z" fill="#FAFAFA"/>
<path d="M61.6762 143.687H60.1541V145.209H61.6762V143.687Z" fill="#FAFAFA"/>
<path d="M61.6762 146.239H60.1541V147.761H61.6762V146.239Z" fill="#FAFAFA"/>
<path d="M61.6762 148.787H60.1541V150.309H61.6762V148.787Z" fill="#FAFAFA"/>
<path d="M61.6762 151.34H60.1541V152.862H61.6762V151.34Z" fill="#FAFAFA"/>
<path d="M61.6762 153.887H60.1541V155.409H61.6762V153.887Z" fill="#FAFAFA"/>
<path d="M61.6762 156.435H60.1541V157.957H61.6762V156.435Z" fill="#FAFAFA"/>
<path d="M61.6762 158.988H60.1541V160.51H61.6762V158.988Z" fill="#FAFAFA"/>
<path d="M59.2621 110.542H57.74V112.064H59.2621V110.542Z" fill="#FAFAFA"/>
<path d="M59.2621 113.09H57.74V114.612H59.2621V113.09Z" fill="#FAFAFA"/>
<path d="M59.2621 115.643H57.74V117.165H59.2621V115.643Z" fill="#FAFAFA"/>
<path d="M59.2621 118.19H57.74V119.712H59.2621V118.19Z" fill="#FAFAFA"/>
<path d="M59.2621 120.743H57.74V122.265H59.2621V120.743Z" fill="#FAFAFA"/>
<path d="M59.2621 123.291H57.74V124.813H59.2621V123.291Z" fill="#FAFAFA"/>
<path d="M59.2621 125.838H57.74V127.36H59.2621V125.838Z" fill="#FAFAFA"/>
<path d="M59.2621 128.391H57.74V129.913H59.2621V128.391Z" fill="#FAFAFA"/>
<path d="M59.2621 130.938H57.74V132.461H59.2621V130.938Z" fill="#FAFAFA"/>
<path d="M59.2621 133.491H57.74V135.013H59.2621V133.491Z" fill="#FAFAFA"/>
<path d="M59.2621 136.039H57.74V137.561H59.2621V136.039Z" fill="#FAFAFA"/>
<path d="M59.2621 138.591H57.74V140.113H59.2621V138.591Z" fill="#FAFAFA"/>
<path d="M59.2621 141.139H57.74V142.661H59.2621V141.139Z" fill="#FAFAFA"/>
<path d="M59.2621 143.687H57.74V145.209H59.2621V143.687Z" fill="#FAFAFA"/>
<path d="M59.2621 146.239H57.74V147.761H59.2621V146.239Z" fill="#FAFAFA"/>
<path d="M59.2621 148.787H57.74V150.309H59.2621V148.787Z" fill="#FAFAFA"/>
<path d="M59.2621 151.34H57.74V152.862H59.2621V151.34Z" fill="#FAFAFA"/>
<path d="M59.2621 153.887H57.74V155.409H59.2621V153.887Z" fill="#FAFAFA"/>
<path d="M59.2621 156.435H57.74V157.957H59.2621V156.435Z" fill="#FAFAFA"/>
<path d="M59.2621 158.988H57.74V160.51H59.2621V158.988Z" fill="#FAFAFA"/>
<path d="M73.5753 120.471H72.0532V121.993H73.5753V120.471Z" fill="#FAFAFA"/>
<path d="M73.5753 123.023H72.0532V124.546H73.5753V123.023Z" fill="#FAFAFA"/>
<path d="M73.5753 125.571H72.0532V127.093H73.5753V125.571Z" fill="#FAFAFA"/>
<path d="M73.5753 128.124H72.0532V129.646H73.5753V128.124Z" fill="#FAFAFA"/>
<path d="M73.5753 130.671H72.0532V132.193H73.5753V130.671Z" fill="#FAFAFA"/>
<path d="M73.5753 133.219H72.0532V134.741H73.5753V133.219Z" fill="#FAFAFA"/>
<path d="M73.5753 135.771H72.0532V137.294H73.5753V135.771Z" fill="#FAFAFA"/>
<path d="M73.5753 138.319H72.0532V139.841H73.5753V138.319Z" fill="#FAFAFA"/>
<path d="M73.5753 140.872H72.0532V142.394H73.5753V140.872Z" fill="#FAFAFA"/>
<path d="M73.5753 143.419H72.0532V144.942H73.5753V143.419Z" fill="#FAFAFA"/>
<path d="M71.1613 120.471H69.6392V121.993H71.1613V120.471Z" fill="#FAFAFA"/>
<path d="M71.1613 123.023H69.6392V124.546H71.1613V123.023Z" fill="#FAFAFA"/>
<path d="M71.1613 125.571H69.6392V127.093H71.1613V125.571Z" fill="#FAFAFA"/>
<path d="M71.1613 128.124H69.6392V129.646H71.1613V128.124Z" fill="#FAFAFA"/>
<path d="M71.1613 130.671H69.6392V132.193H71.1613V130.671Z" fill="#FAFAFA"/>
<path d="M71.1613 133.219H69.6392V134.741H71.1613V133.219Z" fill="#FAFAFA"/>
<path d="M71.1613 135.771H69.6392V137.294H71.1613V135.771Z" fill="#FAFAFA"/>
<path d="M71.1613 138.319H69.6392V139.841H71.1613V138.319Z" fill="#FAFAFA"/>
<path d="M71.1613 140.872H69.6392V142.394H71.1613V140.872Z" fill="#FAFAFA"/>
<path d="M134 199C191.19 199 237.551 196.293 237.551 192.954C237.551 189.615 191.19 186.909 134 186.909C76.8105 186.909 30.4492 189.615 30.4492 192.954C30.4492 196.293 76.8105 199 134 199Z" fill="#F5F5F5"/>
<path d="M164.052 12.7749C164.052 12.7749 164.245 22.495 168.528 23.3388C172.811 24.1826 178.691 12.7749 178.691 12.7749C178.691 12.7749 175.108 24.1025 176.282 25.8329C177.457 27.5633 192.668 20.802 192.668 20.802C192.668 20.802 183.46 31.6436 184.475 33.5129C185.485 35.3821 192.668 34.5383 192.668 34.5383C192.668 34.5383 185.191 35.5957 184.913 39.1847C184.641 42.779 200.695 47.6337 200.695 47.6337C200.695 47.6337 185.575 46.7899 184.47 49.3213C183.37 51.8582 188.016 57.6368 188.016 57.6368C188.016 57.6368 183.856 52.7501 179.829 53.5458C175.802 54.3416 180.897 72.5534 180.897 72.5534C180.897 72.5534 171.374 60.5689 169.131 60.5422C166.888 60.5155 166.183 70.2729 166.183 70.2729C166.183 70.2729 165.275 60.681 163.438 60.7077C161.601 60.7291 158.963 72.5534 158.963 72.5534C158.963 72.5534 160.762 59.9547 158.963 59.1803C157.163 58.4059 144.949 73.8832 144.949 73.8832C144.949 73.8832 151.731 56.8998 150.962 55.5379C150.193 54.176 138.582 59.1429 138.582 59.1429C138.582 59.1429 147.87 51.8528 147.026 48.8941C146.182 45.9353 127.8 45.7271 127.8 45.7271C127.8 45.7271 143.298 42.9819 144.949 41.2889C146.599 39.6013 135.8 29.6676 135.8 29.6676C135.8 29.6676 147.411 32.8346 148.799 31.9908C150.188 31.1469 144.751 18.89 142.716 15.9313C142.716 15.9313 151.667 26.4097 154.418 25.8169C157.168 25.2241 156.768 15.0821 156.768 15.0821C156.768 15.0821 159.908 21.2079 162.023 21.2079C164.143 21.2239 164.052 12.7749 164.052 12.7749Z" fill="#407BFF"/>
<path opacity="0.8" d="M164.052 12.7749C164.052 12.7749 164.245 22.495 168.528 23.3388C172.811 24.1826 178.691 12.7749 178.691 12.7749C178.691 12.7749 175.108 24.1025 176.282 25.8329C177.457 27.5633 192.668 20.802 192.668 20.802C192.668 20.802 183.46 31.6436 184.475 33.5129C185.485 35.3821 192.668 34.5383 192.668 34.5383C192.668 34.5383 185.191 35.5957 184.913 39.1847C184.641 42.779 200.695 47.6337 200.695 47.6337C200.695 47.6337 185.575 46.7899 184.47 49.3213C183.37 51.8582 188.016 57.6368 188.016 57.6368C188.016 57.6368 183.856 52.7501 179.829 53.5458C175.802 54.3416 180.897 72.5534 180.897 72.5534C180.897 72.5534 171.374 60.5689 169.131 60.5422C166.888 60.5155 166.183 70.2729 166.183 70.2729C166.183 70.2729 165.275 60.681 163.438 60.7077C161.601 60.7291 158.963 72.5534 158.963 72.5534C158.963 72.5534 160.762 59.9547 158.963 59.1803C157.163 58.4059 144.949 73.8832 144.949 73.8832C144.949 73.8832 151.731 56.8998 150.962 55.5379C150.193 54.176 138.582 59.1429 138.582 59.1429C138.582 59.1429 147.87 51.8528 147.026 48.8941C146.182 45.9353 127.8 45.7271 127.8 45.7271C127.8 45.7271 143.298 42.9819 144.949 41.2889C146.599 39.6013 135.8 29.6676 135.8 29.6676C135.8 29.6676 147.411 32.8346 148.799 31.9908C150.188 31.1469 144.751 18.89 142.716 15.9313C142.716 15.9313 151.667 26.4097 154.418 25.8169C157.168 25.2241 156.768 15.0821 156.768 15.0821C156.768 15.0821 159.908 21.2079 162.023 21.2079C164.143 21.2239 164.052 12.7749 164.052 12.7749Z" fill="white"/>
<path opacity="0.4" d="M182.027 45.1162C184.093 36.3697 178.676 27.605 169.93 25.5397C161.183 23.4744 152.419 28.8906 150.353 37.6371C148.288 46.3836 153.704 55.1484 162.451 57.2137C171.197 59.279 179.962 53.8628 182.027 45.1162Z" fill="white"/>
<path d="M237.551 158.341H27.0525V185.84H237.551V158.341Z" fill="#263238"/>
<path opacity="0.6" d="M237.551 158.341H27.0525V185.84H237.551V158.341Z" fill="white"/>
<path opacity="0.2" d="M49.6597 161.914H30.4492V167.853H49.6597V161.914Z" fill="white"/>
<path opacity="0.2" d="M69.7781 161.914H50.5676V167.853H69.7781V161.914Z" fill="white"/>
<path opacity="0.2" d="M117.145 170.966H97.9343V176.905H117.145V170.966Z" fill="white"/>
<path opacity="0.2" d="M152.864 161.188H133.653V167.126H152.864V161.188Z" fill="white"/>
<path opacity="0.2" d="M163.422 168.392H144.212V174.331H163.422V168.392Z" fill="white"/>
<path opacity="0.2" d="M233.567 178.102H214.356V184.04H233.567V178.102Z" fill="white"/>
<path opacity="0.2" d="M212.968 178.203H193.757V184.142H212.968V178.203Z" fill="white"/>
<path opacity="0.2" d="M222.57 170.966H203.36V176.905H222.57V170.966Z" fill="white"/>
<path opacity="0.2" d="M59.2623 168.392H40.0518V174.331H59.2623V168.392Z" fill="white"/>
<path opacity="0.2" d="M108.909 178.102H89.699V184.04H108.909V178.102Z" fill="white"/>
<path d="M238.625 154.426H26.0752V160.119H238.625V154.426Z" fill="#263238"/>
<path opacity="0.7" d="M238.625 154.426H26.0752V160.119H238.625V154.426Z" fill="white"/>
<path d="M76.3204 183.811H74.7876V191.288H76.3204V183.811Z" fill="#407BFF"/>
<path d="M118.368 183.811H116.835V191.288H118.368V183.811Z" fill="#407BFF"/>
<path d="M136.339 132.508H129.204V191.315H136.339V132.508Z" fill="#407BFF"/>
<path opacity="0.6" d="M76.3204 183.811H74.7876V191.288H76.3204V183.811Z" fill="white"/>
<path opacity="0.6" d="M118.368 183.811H116.835V191.288H118.368V183.811Z" fill="white"/>
<path opacity="0.6" d="M136.339 132.508H129.204V191.315H136.339V132.508Z" fill="white"/>
<path d="M146.059 192.591H66.1677L68.4322 189.99H143.79L146.059 192.591Z" fill="#407BFF"/>
<path opacity="0.2" d="M146.059 192.591H122.865L125.135 189.99H143.79L146.059 192.591Z" fill="white"/>
<path d="M97.8701 128.263L72.9824 185.51C72.6192 186.343 73.2281 187.267 74.136 187.267H116.792C117.428 187.267 118.01 186.888 118.261 186.305L143.149 129.058C143.512 128.225 142.903 127.301 141.995 127.301H99.3388C98.7032 127.301 98.1264 127.675 97.8701 128.263Z" fill="#407BFF"/>
<path opacity="0.7" d="M97.8701 128.263L72.9824 185.51C72.6192 186.343 73.2281 187.267 74.136 187.267H116.792C117.428 187.267 118.01 186.888 118.261 186.305L143.149 129.058C143.512 128.225 142.903 127.301 141.995 127.301H99.3388C98.7032 127.301 98.1264 127.675 97.8701 128.263Z" fill="white"/>
<path opacity="0.2" d="M112.498 164.157L120.029 146.832H103.521L95.9902 164.157H112.498Z" fill="black"/>
<path opacity="0.2" d="M75.6421 184.554C75.2896 184.554 75.0012 184.842 75.0012 185.195C75.0012 185.547 75.2896 185.835 75.6421 185.835C75.9946 185.835 76.283 185.547 76.283 185.195C76.283 184.842 75.9946 184.554 75.6421 184.554Z" fill="black"/>
<path opacity="0.2" d="M115.414 184.554C115.062 184.554 114.773 184.842 114.773 185.195C114.773 185.547 115.062 185.835 115.414 185.835C115.767 185.835 116.055 185.547 116.055 185.195C116.061 184.842 115.772 184.554 115.414 184.554Z" fill="black"/>
<path opacity="0.2" d="M99.9905 128.903C99.638 128.903 99.3496 129.192 99.3496 129.544C99.3496 129.897 99.638 130.185 99.9905 130.185C100.343 130.185 100.631 129.897 100.631 129.544C100.631 129.192 100.343 128.903 99.9905 128.903Z" fill="black"/>
<path opacity="0.2" d="M139.763 128.903C139.41 128.903 139.122 129.192 139.122 129.544C139.122 129.897 139.41 130.185 139.763 130.185C140.115 130.185 140.404 129.897 140.404 129.544C140.404 129.192 140.121 128.903 139.763 128.903Z" fill="black"/>
<path d="M146.471 183.811H144.938V191.288H146.471V183.811Z" fill="#407BFF"/>
<path d="M188.513 183.811H186.98V191.288H188.513V183.811Z" fill="#407BFF"/>
<path d="M206.489 132.508H199.354V191.315H206.489V132.508Z" fill="#407BFF"/>
<path opacity="0.6" d="M146.471 183.811H144.938V191.288H146.471V183.811Z" fill="white"/>
<path opacity="0.6" d="M188.513 183.811H186.98V191.288H188.513V183.811Z" fill="white"/>
<path opacity="0.6" d="M206.489 132.508H199.354V191.315H206.489V132.508Z" fill="white"/>
<path d="M222.645 106.521L187.322 187.769H135.063L170.386 106.521H222.645Z" fill="#263238"/>
<path opacity="0.6" d="M222.645 106.521L187.322 187.769H135.063L170.386 106.521H222.645Z" fill="white"/>
<path d="M200.951 153.529H189.175L184.566 164.136H196.342L200.951 153.529Z" fill="#263238"/>
<path d="M179.487 175.821H191.263L195.872 165.215H184.096L179.487 175.821Z" fill="#263238"/>
<path d="M188.117 153.529H176.341L171.732 164.136H183.508L188.117 153.529Z" fill="#263238"/>
<path d="M216.193 118.467H204.417L199.808 129.074H211.584L216.193 118.467Z" fill="#263238"/>
<path d="M166.647 175.821H178.424L183.038 165.215H171.262L166.647 175.821Z" fill="#263238"/>
<path d="M206.035 141.844H194.259L189.645 152.445H201.421L206.035 141.844Z" fill="#263238"/>
<path d="M211.114 130.153H199.338L194.724 140.759H206.505L211.114 130.153Z" fill="#263238"/>
<path d="M162.92 152.445L167.529 141.844H156.089L151.475 152.445H162.92Z" fill="#263238"/>
<path d="M157.841 164.136L162.45 153.529H151.01L146.396 164.136H157.841Z" fill="#263238"/>
<path d="M177.692 118.467H166.252L161.638 129.074H173.078L177.692 118.467Z" fill="#263238"/>
<path d="M152.756 175.821L157.371 165.215H145.926L141.317 175.821H152.756Z" fill="#263238"/>
<path d="M167.999 140.759L172.613 130.153H161.168L156.559 140.759H167.999Z" fill="#263238"/>
<path d="M220.92 107.599H209.144L204.887 117.389H216.663L220.92 107.599Z" fill="#263238"/>
<path d="M190.793 176.9H179.017L174.76 186.684H186.536L190.793 176.9Z" fill="#263238"/>
<path d="M152.286 176.9H140.847L136.59 186.684H148.035L152.286 176.9Z" fill="#263238"/>
<path d="M178.162 117.389L182.419 107.599H170.974L166.717 117.389H178.162Z" fill="#263238"/>
<path d="M180.363 141.844H168.586L163.977 152.445H175.754L180.363 141.844Z" fill="#263238"/>
<path d="M175.283 153.529H163.507L158.898 164.136H170.674L175.283 153.529Z" fill="#263238"/>
<path d="M208.086 107.599H196.31L192.053 117.389H203.829L208.086 107.599Z" fill="#263238"/>
<path d="M177.954 176.9H166.177L161.926 186.684H173.703L177.954 176.9Z" fill="#263238"/>
<path d="M203.36 118.467H191.583L186.974 129.074H198.751L203.36 118.467Z" fill="#263238"/>
<path d="M198.281 130.153H186.504L181.89 140.759H193.666L198.281 130.153Z" fill="#263238"/>
<path d="M153.814 175.821H165.59L170.205 165.215H158.428L153.814 175.821Z" fill="#263238"/>
<path d="M160.869 186.684L165.12 176.9H153.344L149.093 186.684H160.869Z" fill="#263238"/>
<path d="M195.252 107.599H183.476L179.219 117.389H190.996L195.252 107.599Z" fill="#263238"/>
<path d="M193.196 141.844H181.42L176.811 152.445H188.587L193.196 141.844Z" fill="#263238"/>
<path d="M190.526 118.467H178.75L174.141 129.074H185.917L190.526 118.467Z" fill="#263238"/>
<path d="M185.447 130.153H173.671L169.056 140.759H180.832L185.447 130.153Z" fill="#263238"/>
<g opacity="0.1">
<path d="M204.102 106.521L157.312 136.599L170.391 106.521H204.102Z" fill="white"/>
<path d="M219.077 106.521L151.501 149.962L154.685 142.64L210.874 106.521H219.077Z" fill="white"/>
<path d="M219.611 113.496L218.015 117.165L145.488 163.789L147.085 160.12L219.611 113.496Z" fill="white"/>
</g>
<g opacity="0.1">
<path d="M190.024 181.558L187.321 187.769H180.357L190.024 181.558Z" fill="white"/>
<path d="M194.612 170.999L192.096 176.788L175.017 187.769H168.528L194.612 170.999Z" fill="white"/>
<path d="M199.349 160.099L198.094 162.988L159.545 187.769H156.308L199.349 160.099Z" fill="white"/>
</g>
<path d="M218.372 192.591H138.475L140.745 189.99H216.102L218.372 192.591Z" fill="#407BFF"/>
<path opacity="0.2" d="M218.372 192.591H195.177L197.447 189.99H216.102L218.372 192.591Z" fill="white"/>
<path d="M119.11 178.892H107.136V179.773H108.578L111.542 183.453H112.066L109.107 179.773H119.11V178.892Z" fill="#263238"/>
<path opacity="0.2" d="M119.11 178.892H107.136V179.773H108.578L111.542 183.453H112.066L109.107 179.773H119.11V178.892Z" fill="white"/>
<path d="M135.159 175.667C134.112 172.553 131.479 171.378 131.479 171.378H113.486L111.211 172.457L114.715 182.855H132.708L134.983 181.776C134.988 181.776 136.286 179.01 135.159 175.667Z" fill="#263238"/>
<path d="M132.772 182.855H103.809V194.599H132.772V182.855Z" fill="#263238"/>
<path opacity="0.2" d="M132.772 182.855H114.773V194.599H132.772V182.855Z" fill="white"/>
<path opacity="0.2" d="M134.988 181.776H116.995C116.995 181.776 118.293 179.01 117.166 175.667C116.119 172.553 113.486 171.378 113.486 171.378H131.485C131.485 171.378 134.112 172.553 135.159 175.667C136.286 179.01 134.988 181.776 134.988 181.776Z" fill="white"/>
<path opacity="0.1" d="M134.988 181.776L132.708 182.855H114.715L116.995 181.776H134.988Z" fill="white"/>
<path opacity="0.2" d="M122.277 175.821C122.277 175.821 124.99 177.189 127.874 177.29C130.764 177.397 131.608 175.821 131.608 175.821L131.212 174.588C131.212 174.588 130.518 175.72 128.44 175.944C126.363 176.168 121.925 174.545 121.925 174.545L122.277 175.821Z" fill="black"/>
<path d="M121.93 174.545C121.93 174.545 124.782 173.135 127.351 173.381C129.92 173.626 131.212 174.588 131.212 174.588L131.608 175.821C131.608 175.821 127.741 173.429 122.277 175.821L121.93 174.545Z" fill="#263238"/>
<path d="M65.5792 59.1519L64.5691 138.678L116.823 139.341L117.833 59.8156L65.5792 59.1519Z" fill="#263238"/>
<path opacity="0.6" d="M65.5792 59.1519L64.5691 138.678L116.823 139.341L117.833 59.8156L65.5792 59.1519Z" fill="white"/>
<path d="M104.218 105.657L104.086 116.039L115.861 116.188L115.993 105.807L104.218 105.657Z" fill="#263238"/>
<path d="M104.068 117.098L103.936 127.479L115.711 127.629L115.843 117.248L104.068 117.098Z" fill="#263238"/>
<path d="M91.3833 105.494L91.2515 115.875L103.027 116.025L103.158 105.643L91.3833 105.494Z" fill="#263238"/>
<path d="M104.652 71.3428L104.52 81.7241L116.295 81.8737L116.427 71.4924L104.652 71.3428Z" fill="#263238"/>
<path d="M91.2388 116.93L91.1069 127.311L102.882 127.461L103.014 117.079L91.2388 116.93Z" fill="#263238"/>
<path d="M104.362 94.2208L104.23 104.602L116.006 104.752L116.137 94.3703L104.362 94.2208Z" fill="#263238"/>
<path d="M104.508 82.7847L104.376 93.166L116.151 93.3156L116.283 82.9343L104.508 82.7847Z" fill="#263238"/>
<path d="M66.2002 93.7315L66.0684 104.113L77.507 104.258L77.6389 93.8768L66.2002 93.7315Z" fill="#263238"/>
<path d="M66.0554 105.173L65.9236 115.554L77.3622 115.699L77.4941 105.318L66.0554 105.173Z" fill="#263238"/>
<path d="M66.4893 70.8589L66.3574 81.2402L77.7961 81.3855L77.9279 71.0042L66.4893 70.8589Z" fill="#263238"/>
<path d="M65.9058 116.609L65.7739 126.99L77.2126 127.136L77.3444 116.754L65.9058 116.609Z" fill="#263238"/>
<path d="M66.3452 82.2955L66.2134 92.6768L77.652 92.822L77.7839 82.4407L66.3452 82.2955Z" fill="#263238"/>
<path d="M104.791 60.7083L104.67 70.2886L116.445 70.4381L116.566 60.8579L104.791 60.7083Z" fill="#263238"/>
<path d="M103.924 128.534L103.802 138.114L115.577 138.264L115.699 128.684L103.924 128.534Z" fill="#263238"/>
<path d="M65.7613 128.045L65.6396 137.625L77.0783 137.77L77.2 128.19L65.7613 128.045Z" fill="#263238"/>
<path d="M66.629 60.2186L66.5073 69.7988L77.946 69.9441L78.0677 60.3639L66.629 60.2186Z" fill="#263238"/>
<path d="M78.6985 93.8941L78.5667 104.275L90.3417 104.425L90.4736 94.0437L78.6985 93.8941Z" fill="#263238"/>
<path d="M78.5486 105.33L78.4167 115.711L90.1918 115.861L90.3237 105.48L78.5486 105.33Z" fill="#263238"/>
<path d="M91.9566 60.5447L91.835 70.125L103.61 70.2746L103.732 60.6943L91.9566 60.5447Z" fill="#263238"/>
<path d="M91.089 128.371L90.9673 137.951L102.742 138.101L102.864 128.52L91.089 128.371Z" fill="#263238"/>
<path d="M91.8225 71.1797L91.6907 81.561L103.466 81.7106L103.598 71.3293L91.8225 71.1797Z" fill="#263238"/>
<path d="M91.6778 82.6211L91.5459 93.0024L103.321 93.152L103.453 82.7707L91.6778 82.6211Z" fill="#263238"/>
<path d="M78.4043 116.766L78.2725 127.147L90.0475 127.297L90.1794 116.916L78.4043 116.766Z" fill="#263238"/>
<path d="M78.2601 128.208L78.1384 137.788L89.9135 137.938L90.0352 128.357L78.2601 128.208Z" fill="#263238"/>
<path d="M79.1227 60.3816L79.001 69.9619L90.7761 70.1115L90.8977 60.5312L79.1227 60.3816Z" fill="#263238"/>
<path d="M91.5283 94.0577L91.3965 104.439L103.172 104.589L103.303 94.2072L91.5283 94.0577Z" fill="#263238"/>
<path d="M78.9878 71.0162L78.856 81.3975L90.631 81.547L90.7629 71.1657L78.9878 71.0162Z" fill="#263238"/>
<path d="M78.8433 82.4527L78.7114 92.834L90.4865 92.9835L90.6184 82.6022L78.8433 82.4527Z" fill="#263238"/>
<g opacity="0.1">
<path d="M99.3014 59.581L65.2117 88.5917L65.5909 59.1484L99.3014 59.581Z" fill="white"/>
<path d="M114.277 59.7733L65.0461 101.676L65.1369 94.5093L106.073 59.6665L114.277 59.7733Z" fill="white"/>
<path d="M117.754 66.647L117.705 70.2359L64.8699 115.205L64.9179 111.616L117.754 66.647Z" fill="white"/>
</g>
<g opacity="0.1">
<path d="M116.904 133.261L116.824 139.344L109.865 139.253L116.904 133.261Z" fill="white"/>
<path d="M117.038 122.933L116.963 128.594L104.525 139.184L98.041 139.104L117.038 122.933Z" fill="white"/>
<path d="M117.171 112.262L117.134 115.087L89.0526 138.992L85.8162 138.949L117.171 112.262Z" fill="white"/>
</g>
<path d="M62.3491 84.0679C62.3491 84.0679 55.9028 86.9198 53.8146 84.367C51.7317 81.8088 63.1395 68.3075 63.1395 68.3075C63.1395 68.3075 63.3211 64.3393 63.8872 63.6397C64.4533 62.9401 65.7297 62.2778 65.7297 62.2778L66.1517 70.0806L64.966 70.1874C64.966 70.1874 58.8509 78.4121 58.9631 79.1224C59.0752 79.8327 62.3491 78.3427 62.3491 78.3427V84.0679Z" fill="#E4897B"/>
<path d="M77.2978 104.566C77.2978 104.566 82.6438 93.1739 82.2379 90.4769C81.8321 87.7798 72.8597 99.4653 72.8597 99.4653L72.1387 103.465L77.2978 104.566Z" fill="#407BFF"/>
<path opacity="0.4" d="M77.2978 104.566C77.2978 104.566 82.6438 93.1739 82.2379 90.4769C81.8321 87.7798 72.8597 99.4653 72.8597 99.4653L72.1387 103.465L77.2978 104.566Z" fill="white"/>
<path opacity="0.2" d="M76.9345 104.266C76.9345 104.266 82.2806 92.8746 81.8747 90.1776C81.4741 87.4805 72.4964 99.166 72.4964 99.166L71.7754 103.166L76.9345 104.266Z" fill="black"/>
<path d="M85.9871 190.877L90.1849 191.315L90.3931 188.885L90.9699 182.267L86.7775 181.824L86.1366 189.13L85.9871 190.877Z" fill="#E4897B"/>
<path d="M49.5422 190.343H53.6065L53.8041 189.424L53.8308 189.312L55.0966 183.443L55.1233 183.325L55.6093 181.077H51.5397L49.5422 190.343Z" fill="#E4897B"/>
<path opacity="0.2" d="M86.7776 181.824L86.1367 189.13L90.3933 188.885L90.9701 182.267L86.7776 181.824Z" fill="black"/>
<path opacity="0.2" d="M49.6597 189.825H49.665L53.8254 189.312H53.8308L55.0645 183.651H55.0591L50.9254 183.971L49.6971 189.648L49.6597 189.825Z" fill="black"/>
<path d="M54.1672 190.097H49.227C49.0615 190.097 48.9173 190.214 48.8799 190.375L48.0788 193.996C48.0093 194.321 48.2176 194.636 48.5434 194.706C48.5861 194.717 48.6289 194.722 48.6769 194.717C50.2738 194.69 51.4381 194.594 53.4462 194.594C54.6799 194.594 58.413 194.722 60.1167 194.722C61.8258 194.722 62.0447 193.034 61.3451 192.879C58.2101 192.196 55.8548 191.25 54.8508 190.348C54.6639 190.188 54.4182 190.092 54.1672 190.097Z" fill="#263238"/>
<path d="M90.6281 189.969H85.688C85.5224 189.969 85.3782 190.086 85.3408 190.247L84.5397 193.868C84.4703 194.193 84.6786 194.509 85.0044 194.578C85.0471 194.589 85.0898 194.594 85.1379 194.589C86.7347 194.562 87.899 194.466 89.9071 194.466C91.1408 194.466 94.874 194.594 96.5777 194.594C98.2867 194.594 98.5057 192.906 97.806 192.751C94.671 192.068 92.3158 191.123 91.3117 190.22C91.1248 190.054 90.8791 189.964 90.6281 189.969Z" fill="#263238"/>
<path d="M91.3545 187.239L85.3569 187.432C87.5412 147.323 88.556 145.278 69.0891 126.329C68.6351 132.059 68.1224 138.003 67.6204 142.96C67.3053 146.025 67.2091 148.706 66.7018 150.666C63.2357 163.949 54.8988 187.464 54.8988 187.464L49.0454 187.725C49.0454 187.725 56.3729 155.505 57.1259 145C58.1139 131.221 49.5474 115.348 57.8789 100.432L77.3138 104.218L77.1749 108.998C95.7178 136.14 99.1145 142.004 91.3545 187.239Z" fill="#407BFF"/>
<path opacity="0.4" d="M91.3545 187.239L85.3569 187.432C87.5412 147.323 88.556 145.278 69.0891 126.329C68.6351 132.059 68.1224 138.003 67.6204 142.96C67.3053 146.025 67.2091 148.706 66.7018 150.666C63.2357 163.949 54.8988 187.464 54.8988 187.464L49.0454 187.725C49.0454 187.725 56.3729 155.505 57.1259 145C58.1139 131.221 49.5474 115.348 57.8789 100.432L77.3138 104.218L77.1749 108.998C95.7178 136.14 99.1145 142.004 91.3545 187.239Z" fill="white"/>
<path d="M87.5146 89.8306C87.5146 89.8306 98.5646 91.828 100.674 91.4862C102.784 91.1444 113.967 82.3269 113.967 82.3269C113.967 82.3269 117.652 82.124 117.845 80.8743C118.042 79.6245 118.539 77.3921 117.481 77.4615C116.424 77.531 113.337 78.9089 113.337 78.9089L112.936 79.9343C112.936 79.9343 100.626 87.3632 100.167 87.5234C99.7075 87.689 89.1008 84.789 89.1008 84.789L87.5146 89.8306Z" fill="#E4897B"/>
<path d="M67.5242 75.3306C63.8925 75.3306 60.7735 77.6698 57.4463 79.3414L59.8389 85.2963L67.4708 84.8157L67.5242 75.3306Z" fill="#407BFF"/>
<path d="M85.8215 74.4492C85.704 74.5881 85.5812 74.7216 85.453 74.8444C84.6893 75.5868 83.744 76.0461 82.7666 76.2117C82.5103 76.2597 82.2486 76.2811 81.9922 76.2864C80.625 76.3131 79.2792 75.7844 78.3552 74.7002C77.976 74.2623 77.6663 73.7229 77.458 73.0927C76.6248 70.6253 77.6129 68.724 79.0175 65.3861C79.3112 64.6597 79.7652 64.0135 80.3526 63.5061C82.4088 61.6956 85.5385 61.9039 87.3436 63.9547C89.8911 66.8227 87.9578 71.8697 85.8215 74.4492Z" fill="#E4897B"/>
<path opacity="0.2" d="M82.7667 76.2172C82.5103 76.2653 82.2486 76.2866 81.9922 76.292C80.625 76.3187 79.2792 75.79 78.3552 74.7058C78.8893 74.1878 79.4768 73.8887 79.4768 73.8887C79.4768 73.8887 81.565 74.5402 82.7667 76.2172Z" fill="black"/>
<path d="M89.1916 65.6852C88.9994 65.6852 87.5146 66.9509 87.4239 67.4209C87.1728 68.6867 85.7362 70.4812 84.4758 71.0526C83.2207 71.6241 81.2927 74.3371 81.2927 74.3371C81.2927 74.3371 79.1992 72.5801 77.0041 72.5427C77.0041 72.5427 74.4192 67.8268 76.9614 62.2778L89.1916 65.6852Z" fill="#263238"/>
<path opacity="0.2" d="M89.1916 65.6852C88.9994 65.6852 87.5146 66.9509 87.4239 67.4209C87.1728 68.6867 85.7362 70.4812 84.4758 71.0526C83.2207 71.6241 81.2927 74.3371 81.2927 74.3371C81.2927 74.3371 79.1992 72.5801 77.0041 72.5427C77.0041 72.5427 74.4192 67.8268 76.9614 62.2778L89.1916 65.6852Z" fill="white"/>
<path d="M83.5411 69.9526C83.3862 70.7537 83.525 71.464 83.9149 71.9286C84.4383 72.5321 85.3302 71.8165 85.7147 70.7911C86.0458 69.8831 86.1954 68.4411 85.4103 68.2542C84.6252 68.0673 83.7387 68.9699 83.5411 69.9526Z" fill="#E4897B"/>
<path d="M86.5372 66.8174C86.5372 66.8174 86.9217 75.4426 80.2832 75.5174V75.8752C80.2832 75.8752 86.2434 76.4146 87.632 67.485L86.5372 66.8174Z" fill="#263238"/>
<path d="M76.1549 64.6333C76.1549 64.6333 76.518 65.5733 77.7998 66.0486C79.0816 66.5239 85.186 64.9377 85.186 64.9377L86.2809 65.7549C86.2809 65.7549 80.139 67.779 77.7998 67.4425C75.4606 67.106 75.8344 65.3703 75.8344 65.3703L76.1549 64.6333Z" fill="white"/>
<path d="M72.865 76.2917C73.7515 78.5295 80.2886 79.1223 80.2886 79.1223C80.2886 79.1223 80.1764 78.4013 80.3099 77.3972C80.39 76.8151 80.6411 76.2383 80.9722 75.6775C81.1431 75.3838 81.3407 75.0954 81.5436 74.8177L77.2711 72.5532C76.267 74.337 75.2736 75.3411 72.865 76.2917Z" fill="#E4897B"/>
<path d="M90.5053 68.2327C90.5053 68.2327 90.831 68.9484 90.281 69.4291C89.7309 69.9044 88.5506 69.4291 88.5506 69.4291C88.5506 69.4291 84.4703 62.9454 76.3257 63.1644C76.3257 63.1644 75.7275 62.3259 75.8504 61.7545C75.9732 61.1883 77.1482 60.7985 77.1482 60.7985C77.1482 60.7985 77.9172 59.9867 79.2631 59.1802C80.3312 58.5394 81.7732 57.8931 83.4822 57.6795C87.3222 57.1882 91.3064 61.2738 91.4773 62.2779C91.6482 63.2819 90.7189 64.5209 90.7189 64.5209C90.7189 64.5209 91.0554 66.5023 90.5053 68.2327Z" fill="#407BFF"/>
<path opacity="0.2" d="M90.5053 68.2327C86.6119 61.5995 77.1482 60.8038 77.1482 60.8038C77.1482 60.8038 77.9173 59.992 79.2631 59.1855C79.3432 60.0134 80.2832 60.3445 81.0469 60.4246C82.099 60.5314 86.4624 59.3244 88.5559 60.8091C90.6442 62.2885 90.7189 64.5316 90.7189 64.5316C90.7189 64.5316 91.0554 66.5023 90.5053 68.2327Z" fill="black"/>
<path opacity="0.2" d="M69.0839 126.307C68.6299 132.038 68.1172 137.993 67.6152 142.949C66.8782 135.798 65.9809 130.697 65.9809 130.697C65.9809 130.697 65.1371 130.003 62.8192 126.307C60.5014 122.606 62.8192 115.706 62.8192 115.706C62.7498 122.12 69.0839 126.307 69.0839 126.307Z" fill="black"/>
<path d="M92.0222 186.593L91.7338 188.276H84.6841V186.721L92.0222 186.593Z" fill="#407BFF"/>
<path d="M55.5878 187.24L54.9095 188.789H48.4954L48.6129 187.24H55.5878Z" fill="#407BFF"/>
<path d="M86.8309 81.6167C90.2596 83.6782 92.9727 85.6383 92.9727 85.6383L90.5 90.9042L80.625 89.1791C80.625 89.1791 81.4902 86.9895 83.2099 84.2924C84.9243 81.5953 86.8309 81.6167 86.8309 81.6167Z" fill="#407BFF"/>
<path opacity="0.4" d="M92.0222 186.593L91.7338 188.276H84.6841V186.721L92.0222 186.593Z" fill="white"/>
<path opacity="0.4" d="M55.5878 187.24L54.9095 188.789H48.4954L48.6129 187.24H55.5878Z" fill="white"/>
<path d="M57.1794 100.987L63.8927 102.253L63.4815 103.93L56.4478 102.525L57.1794 100.987Z" fill="#263238"/>
<path d="M65.0035 102.467L73.2549 104.037L73.1054 105.842L64.6404 104.154L65.0035 102.467Z" fill="#263238"/>
<path d="M77.6876 104.87L77.6663 106.75L74.2803 106.077L74.3817 104.245L77.6876 104.87Z" fill="#263238"/>
<path d="M57.8735 100.432C57.8735 100.432 62.1942 79.9876 66.6056 75.5548C66.6056 75.5548 77.8317 73.5253 86.8255 81.6112C86.8255 81.6112 79.1936 94.7119 77.3084 104.213L57.8735 100.432Z" fill="#407BFF"/>
<path d="M63.8659 102.563L64.9447 102.803C65.1369 102.846 65.3078 102.67 65.2598 102.477L64.9554 101.345C64.9019 101.142 64.6403 101.083 64.5014 101.238L63.727 102.13C63.5935 102.285 63.6682 102.52 63.8659 102.563Z" stroke="white" stroke-width="0.5" stroke-miterlimit="10" stroke-linecap="round" stroke-linejoin="round"/>
<path d="M70.6805 82.9037L71.6899 83.3523C71.8715 83.4324 72.0745 83.2935 72.0584 83.0906L71.9783 81.921C71.9623 81.7074 71.722 81.6005 71.5511 81.7287L70.6164 82.4497C70.4669 82.5726 70.4936 82.8236 70.6805 82.9037Z" stroke="white" stroke-width="0.5" stroke-miterlimit="10" stroke-linecap="round" stroke-linejoin="round"/>
<path d="M70.7766 82.6416C70.7766 82.6416 67.6309 88.4897 64.2983 100.49L65.5855 100.869C65.5855 100.869 68.9501 88.3722 71.7753 83.1062L70.7766 82.6416Z" fill="#263238"/>
<path d="M64.6401 101.537L64.8004 100.779" stroke="white" stroke-width="0.5" stroke-miterlimit="10" stroke-linecap="round" stroke-linejoin="round"/>
<path d="M64.2983 100.49L65.6495 100.869" stroke="white" stroke-width="0.5" stroke-miterlimit="10" stroke-linecap="round" stroke-linejoin="round"/>
<path d="M71.7754 81.9901C71.7754 81.9901 75.5726 78.8818 81.3139 77.6748L82.7666 78.4439C82.7666 78.4439 78.9052 79.0367 71.8608 83.0208L71.7754 81.9901Z" fill="#263238"/>
<path d="M70.7767 82.5243L71.5725 81.9689C71.5725 81.9689 71.6579 76.548 72.192 75.293L71.2948 75.325C71.2894 75.3304 70.5738 78.9247 70.7767 82.5243Z" fill="#263238"/>
<path d="M112.188 80.0038L113.716 83.08L114.138 82.7062C114.138 82.7062 117.919 82.5406 118.159 82.092C118.4 81.6434 119.318 77.2052 118.704 76.9596C118.09 76.7139 113.321 78.3588 113.144 78.4069C112.968 78.455 112.733 79.678 112.733 79.678L112.188 80.0038Z" fill="#407BFF"/>
<path d="M62.5735 68.3075L64.7899 70.9138L65.121 70.401L66.1624 70.0806L65.7405 62.2778C65.7405 62.2778 63.695 63.4955 63.5882 63.6397C63.4761 63.7839 62.9687 68.2274 62.9687 68.2274L62.5735 68.3075Z" fill="#407BFF"/>
</g>
<defs>
<clipPath id="clip0_148_123">
<rect width="267.035" height="199" fill="white" transform="translate(0.482422)"/>
</clipPath>
</defs>
</svg>
