<svg width="12" height="17" viewBox="0 0 12 17" fill="none" xmlns="http://www.w3.org/2000/svg">
<path d="M3.00767 6.07989C3.11075 6.07989 3.1853 6.07989 3.25986 6.07989C5.53253 6.07989 7.80571 6.07989 10.0784 6.07989C11.2427 6.07989 11.9988 6.84554 11.9993 8.02439C11.9998 9.84382 12.0008 11.6637 11.9988 13.4832C11.9968 15.2135 10.865 16.6086 9.19023 16.9382C8.97758 16.9802 8.75641 16.9954 8.53925 16.9959C6.847 17.0005 5.15526 17.0015 3.46301 16.9975C1.51958 16.9929 0.0129651 15.4641 0.0104632 13.4953C0.00796137 11.6946 0.0349813 9.89344 0.000455837 8.09377C-0.0200593 7.04151 0.652937 6.13863 1.80829 6.06925C1.80829 5.99684 1.80729 5.92291 1.80829 5.84948C1.8188 5.09801 1.78277 4.34249 1.85032 3.5966C2.00543 1.88098 3.36143 0.401332 5.03817 0.098516C6.34814 -0.137964 7.59455 0.0225589 8.66935 0.89556C9.65007 1.6926 10.1579 2.74031 10.198 4.01385C10.2105 4.40275 9.9648 4.67823 9.61755 4.68582C9.25878 4.69392 9.0101 4.42858 9.00059 4.02803C8.96507 2.47547 7.72965 1.24547 6.19652 1.22521C5.66113 1.21812 5.13324 1.24496 4.64438 1.49258C3.61162 2.01669 3.05321 2.86487 3.01218 4.03563C2.98866 4.70911 3.00767 5.38412 3.00767 6.07989ZM6.00839 7.29267C4.64088 7.29267 3.27337 7.29267 1.90586 7.29267C1.43501 7.29267 1.20935 7.52358 1.20885 8.00414C1.20835 9.83015 1.20785 11.6562 1.20885 13.4822C1.20985 14.8008 2.17806 15.7827 3.48002 15.7842C5.15976 15.7857 6.8395 15.7857 8.51924 15.7842C9.83321 15.7832 10.7989 14.8038 10.7994 13.472C10.8004 11.6521 10.7999 9.83268 10.7994 8.01274C10.7994 7.52206 10.5738 7.29267 10.0914 7.29267C8.73089 7.29267 7.36989 7.29267 6.00839 7.29267Z" fill="#0062BD"/>
<path d="M5.5011 11.7309C5.5011 11.4915 5.49609 11.2522 5.5036 11.0132C5.50694 10.9098 5.47481 10.8468 5.39093 10.7822C5.00578 10.4873 4.89311 9.97938 5.10718 9.55108C5.31707 9.13071 5.79278 8.91469 6.24929 9.03146C6.71206 9.1499 7.02586 9.57235 6.99832 10.0519C6.98079 10.353 6.85394 10.6053 6.60858 10.7838C6.52053 10.8481 6.49799 10.9148 6.49883 11.0161C6.50342 11.4945 6.50175 11.9732 6.5005 12.4516C6.49966 12.7714 6.29561 12.9966 6.00727 13C5.71224 13.0037 5.50277 12.7756 5.50151 12.4482C5.50026 12.2097 5.5011 11.9703 5.5011 11.7309Z" fill="#0062BD"/>
</svg>
