<svg width="35" height="34" viewBox="0 0 35 34" fill="none" xmlns="http://www.w3.org/2000/svg">
<path d="M17.0204 0.000136374C26.4177 0.0385478 34.0564 7.69695 34.0024 17.0278C33.9484 26.4344 26.2745 34.0773 16.9623 33.9994C7.55358 33.9216 -0.0176177 26.3306 3.07913e-05 16.9904C0.0176793 7.61182 7.68023 -0.0372369 17.0204 0.000136374ZM31.515 17.0205C31.5493 9.04965 25.0401 2.52283 17.0215 2.4865C9.05474 2.45224 2.51857 8.96868 2.48743 16.979C2.45628 24.9499 8.96442 31.4767 16.9799 31.5131C24.9477 31.5504 31.4818 25.0361 31.515 17.0205Z" fill="#0062BD"/>
<path d="M23.2189 17.0009C23.2189 18.0764 23.223 19.1509 23.2178 20.2264C23.2085 21.9684 21.9658 23.2131 20.2269 23.2173C18.0769 23.2225 15.9259 23.2225 13.7759 23.2173C12.037 23.2131 10.7892 21.9673 10.784 20.2274C10.7777 18.0774 10.7777 15.9274 10.784 13.7774C10.7892 12.0375 12.0318 10.7917 13.7749 10.7855C15.9249 10.7782 18.0759 10.7782 20.2259 10.7855C21.9679 10.7917 23.2095 12.0364 23.2178 13.7764C23.2241 14.8498 23.2189 15.9253 23.2189 17.0009Z" fill="#0062BD"/>
</svg>
