<svg width="22" height="22" viewBox="0 0 22 22" fill="none" xmlns="http://www.w3.org/2000/svg">
<path d="M10.1892 0C10.6118 0 11.0343 0 11.4569 0C11.5104 0.0119032 11.564 0.029758 11.6176 0.0357096C12.9388 0.124984 14.2065 0.434466 15.3909 1.01772C18.7238 2.64846 20.7533 5.29097 21.4675 8.9393C21.5508 9.34996 21.5805 9.77252 21.6401 10.1891C21.6401 10.6117 21.6401 11.0343 21.6401 11.4568C21.6282 11.5163 21.6103 11.5759 21.6043 11.6413C21.5151 12.9626 21.2056 14.2303 20.6104 15.4146C18.6821 19.2534 15.5635 21.3543 11.2724 21.6281C9.14171 21.765 7.12412 21.2472 5.30293 20.1283C2.01765 18.1048 0.244072 15.1409 0.0179114 11.2902C-0.0951689 9.3321 0.327394 7.4633 1.27965 5.74329C2.96395 2.69607 5.52909 0.833223 8.95721 0.184499C9.36192 0.0892739 9.77853 0.0535644 10.1892 0ZM10.8379 12.171C10.8379 12.1591 10.8379 12.1472 10.8379 12.1353C10.1535 12.1353 9.46904 12.1294 8.79056 12.1353C7.04675 12.1472 5.63027 13.2423 5.21961 14.8968C5.07677 15.4801 4.99344 16.0872 5.39815 16.599C5.63027 16.8966 5.9457 17.1465 6.26114 17.3668C7.96329 18.5452 9.84995 19.0034 11.9092 18.7297C13.4447 18.5273 14.7898 17.9024 15.9741 16.9144C16.3491 16.605 16.5217 16.1883 16.5217 15.7063C16.5217 13.9327 15.135 12.3436 13.3673 12.1889C12.5282 12.1055 11.683 12.171 10.8379 12.171ZM7.24315 6.80862C7.24315 8.77265 8.85008 10.3855 10.8141 10.3915C12.7841 10.3974 14.4148 8.7667 14.4029 6.80267C14.391 4.82674 12.79 3.23172 10.8201 3.23767C8.84413 3.24362 7.24315 4.83865 7.24315 6.80862Z" fill="black"/>
</svg>
