<svg width="19" height="19" viewBox="0 0 19 19" fill="none" xmlns="http://www.w3.org/2000/svg">
<path d="M9.65347 19C9.55438 19 9.45567 19 9.35659 19C9.26682 18.9597 9.17518 18.9232 9.08727 18.8791C8.03199 18.3514 6.97745 17.8221 5.92217 17.2939C4.11557 16.3894 2.30933 15.4845 0.501978 14.5822C0.301202 14.4819 0.133951 14.3551 0.0516296 14.1387C-0.0895465 13.7668 0.0654119 13.3841 0.446103 13.192C1.38368 12.7191 2.32386 12.251 3.26292 11.7803C3.31954 11.7519 3.37355 11.7187 3.45066 11.6758C3.3594 11.6284 3.30017 11.5964 3.2402 11.5662C2.32311 11.107 1.4064 10.6471 0.488195 10.1905C0.286675 10.0902 0.124266 9.95704 0.0464146 9.73921C-0.0873116 9.36472 0.0732344 8.99359 0.459513 8.79925C1.39224 8.33002 2.32646 7.86415 3.25994 7.39641C3.31693 7.36769 3.37206 7.33561 3.45178 7.29234C3.36126 7.2446 3.30278 7.21215 3.24318 7.18231C2.32609 6.72315 1.40975 6.26287 0.491548 5.80632C0.283695 5.703 0.117561 5.56685 0.0423172 5.33933C-0.0847041 4.95551 0.0821743 4.60154 0.489313 4.39788C3.32289 2.97937 6.15945 1.56571 8.98856 0.137497C9.35026 -0.0452717 9.66017 -0.0460177 10.0204 0.136378C12.1365 1.208 14.2609 2.26396 16.3822 3.32551C17.1004 3.68471 17.8182 4.04465 18.5368 4.40385C18.7439 4.50754 18.9219 4.64667 18.9655 4.88427C19.0527 5.35686 18.9223 5.60229 18.4928 5.81825C17.5817 6.27555 16.6702 6.73098 15.7587 7.1879C15.7006 7.217 15.6451 7.25094 15.5661 7.29495C15.6462 7.33897 15.7028 7.37254 15.7617 7.402C16.6784 7.86154 17.5951 8.3207 18.5125 8.77911C18.7826 8.91414 18.964 9.09094 18.9778 9.42887C18.9931 9.80336 18.8407 10.0342 18.5166 10.1943C17.5914 10.6508 16.6706 11.1159 15.7486 11.5785C15.692 11.6068 15.638 11.64 15.5616 11.6829C15.6521 11.7303 15.7114 11.762 15.7717 11.7922C16.6828 12.2487 17.5955 12.703 18.5044 13.1644C18.6284 13.2275 18.7554 13.3092 18.8426 13.4144C19.1447 13.7791 18.9949 14.3364 18.539 14.5654C17.1261 15.276 15.7125 15.9843 14.2974 16.6904C12.7504 17.4618 11.2016 18.2301 9.65347 19ZM2.41437 5.098C2.48701 5.13791 2.52352 5.15991 2.56114 5.17856C4.8315 6.31546 7.10224 7.45124 9.37112 8.59112C9.48137 8.64632 9.56332 8.62842 9.66352 8.57807C11.9112 7.45049 14.1599 6.32553 16.4083 5.19945C16.4612 5.17297 16.5111 5.14126 16.583 5.10061C16.5212 5.06555 16.4813 5.04055 16.4392 5.01967C14.1745 3.88463 11.9093 2.75147 9.64639 1.6127C9.52868 1.5534 9.44301 1.5769 9.33759 1.62986C7.44345 2.57989 5.54781 3.52693 3.65292 4.47509C3.251 4.67651 2.84945 4.87905 2.41437 5.098ZM2.414 9.48109C2.48887 9.52287 2.52948 9.54749 2.57194 9.56875C4.83597 10.7027 7.10038 11.8358 9.36329 12.9724C9.46983 13.0261 9.55289 13.0201 9.65608 12.9683C11.9134 11.8343 14.1726 10.7038 16.431 9.57173C16.4772 9.54861 16.5201 9.51951 16.5823 9.48259C16.5063 9.44118 16.4541 9.4106 16.4001 9.38337C15.616 8.9906 14.8304 8.60045 14.0486 8.20283C13.9312 8.14315 13.8403 8.1439 13.723 8.2032C12.4714 8.83432 11.2139 9.45461 9.9645 10.0909C9.64155 10.2554 9.35435 10.2495 9.03326 10.0857C7.78987 9.45163 6.5394 8.83133 5.28893 8.21104C5.21555 8.17448 5.10156 8.14576 5.03712 8.17709C4.17181 8.59933 3.31135 9.03275 2.414 9.48109ZM16.5953 13.8754C16.5067 13.8269 16.4545 13.7963 16.4005 13.7691C15.6164 13.3763 14.8308 12.9862 14.0489 12.5885C13.9316 12.5289 13.8411 12.5292 13.7234 12.5885C12.4662 13.2226 11.2034 13.8459 9.94811 14.4837C9.63782 14.6411 9.3592 14.6359 9.05077 14.4793C7.80663 13.8467 6.55504 13.2286 5.30904 12.5994C5.1809 12.5345 5.08331 12.527 4.95033 12.5949C4.16958 12.994 3.38286 13.3819 2.59839 13.7739C2.54587 13.8 2.49632 13.8321 2.42592 13.8728C2.49446 13.9112 2.53991 13.9395 2.58758 13.9634C4.84082 15.0914 7.09479 16.2182 9.34653 17.3495C9.46536 17.4092 9.55587 17.4039 9.67209 17.3454C11.4657 16.4435 13.2615 15.5464 15.0565 14.6479C15.5579 14.3965 16.0589 14.1443 16.5953 13.8754Z" fill="white"/>
</svg>
