<svg width="38" height="41" viewBox="0 0 38 41" fill="none" xmlns="http://www.w3.org/2000/svg">
<path d="M22.5437 41C21.8426 40.9059 21.122 40.8822 20.4427 40.7059C18.3221 40.1545 16.2135 39.5566 14.107 38.9544C13.0913 38.6647 12.0961 38.3068 11.0814 38.0138C10.7146 37.9079 10.3185 37.8614 9.93539 37.8581C7.76491 37.8441 5.59334 37.8473 3.42178 37.8527C2.29855 37.856 1.35114 37.4949 0.650073 36.5867C0.289773 36.1196 0.0770663 35.5963 0.0293157 35.0093C0.0141224 34.8233 0.00761093 34.6363 0.00761093 34.4492C0.00435521 29.3504 0.0119519 24.2516 1.42476e-05 19.1518C-0.00324147 17.7484 0.551316 16.6813 1.82756 16.0813C2.28119 15.8683 2.83249 15.7839 3.34147 15.7753C5.41862 15.7418 7.49577 15.7688 9.57292 15.7515C9.78888 15.7494 10.0645 15.6661 10.2078 15.5191C10.9316 14.7709 11.6446 14.0098 12.3164 13.2151C13.534 11.7771 14.7072 10.3024 15.9237 8.8634C16.5217 8.15631 16.7073 7.3076 16.9167 6.45023C17.1978 5.29879 17.4518 4.13546 17.8251 3.0132C18.2027 1.8769 18.8582 0.885468 19.9825 0.338398C20.4025 0.134058 20.9028 0.00756103 21.3684 0.00107403C22.8921 -0.0205493 24.3517 0.282177 25.6627 1.10495C27.2656 2.11043 28.0079 3.65758 28.3118 5.44259C28.569 6.9519 28.6221 8.47418 28.2456 9.97484C28.0752 10.6571 27.8125 11.3166 27.5857 11.9836C27.5228 12.1696 27.4327 12.3469 27.322 12.6042C27.5239 12.6042 27.6628 12.6032 27.8028 12.6042C29.2234 12.6118 30.645 12.5815 32.0634 12.6345C35.356 12.7567 38.0941 15.7245 37.9975 19.0069C37.9606 20.273 37.6611 21.4601 36.9969 22.5434C36.8472 22.7888 36.807 23.0159 36.8667 23.2948C37.1955 24.8398 36.9524 26.3113 36.2969 27.7373C36.1765 28 36.1103 28.3212 36.1287 28.6077C36.2438 30.3624 35.8542 31.9679 34.8178 33.4091C34.7114 33.5573 34.6745 33.7778 34.6669 33.9681C34.6061 35.4504 34.2806 36.8526 33.3853 38.069C32.1209 39.788 30.3639 40.6465 28.2803 40.9146C28.1359 40.933 27.9938 40.9697 27.8516 40.9968C26.0827 41 24.3126 41 22.5437 41ZM22.9539 15.7623C23.006 15.3893 23.0331 15.0844 23.0918 14.7849C23.3696 13.3838 24.0261 12.122 24.5937 10.83C25.4087 8.97151 25.5704 7.08055 24.9508 5.13662C24.7022 4.35601 24.254 3.72245 23.4499 3.48459C22.8291 3.3008 22.1682 3.24782 21.5225 3.16457C21.427 3.15268 21.262 3.26404 21.2143 3.36134C20.9734 3.84787 20.6977 4.33007 20.5501 4.84578C20.2397 5.93452 20.0097 7.04596 19.7297 8.14334C19.4627 9.19207 18.9917 10.1348 18.2733 10.9609C17.467 11.8885 16.6715 12.828 15.9118 13.7946C14.7962 15.2131 13.7077 16.6521 12.35 17.8619C11.6067 18.5247 10.809 19.0177 9.75741 18.9107C9.68361 18.9031 9.60547 18.9345 9.53059 18.9474C9.53059 24.1943 9.53059 29.4207 9.53059 34.6168C10.2458 34.7044 10.9555 34.7065 11.6164 34.8882C12.9686 35.259 14.3046 35.6958 15.6296 36.1585C19.1415 37.3857 22.7336 38.0733 26.469 37.8441C27.2016 37.7987 27.9395 37.7479 28.6601 37.616C30.1198 37.3478 31.1703 36.284 31.3808 34.82C31.4807 34.1292 31.4047 33.4135 31.4275 32.7096C31.4329 32.5474 31.4644 32.3215 31.5729 32.2361C32.8546 31.223 33.3516 29.3558 32.6896 27.8703C32.58 27.6249 32.5974 27.4833 32.784 27.2822C33.7673 26.2172 34.0744 24.9663 33.6837 23.5748C33.5394 23.0602 33.2908 22.5748 33.102 22.1077C33.3201 21.9725 33.6077 21.8731 33.7781 21.6752C34.5096 20.8211 34.9046 19.8113 34.8145 18.6923C34.6778 17.0024 33.2789 15.7731 31.5642 15.7666C28.8565 15.7569 26.1489 15.7645 23.4423 15.7645C23.2979 15.7623 23.1525 15.7623 22.9539 15.7623ZM4.76747 34.6784C5.63675 34.673 6.33782 33.954 6.32262 33.0837C6.30851 32.2317 5.60528 31.542 4.75119 31.543C3.88843 31.543 3.16132 32.2663 3.16674 33.1205C3.17217 33.9735 3.90145 34.6838 4.76747 34.6784Z" fill="#0062BD"/>
</svg>
