<svg width="34" height="34" viewBox="0 0 34 34" fill="none" xmlns="http://www.w3.org/2000/svg">
<path d="M14.3119 33.7566C13.7261 33.6738 13.135 33.6209 12.5563 33.5037C8.12001 32.6017 4.79723 30.1457 2.88303 26.0619C0.610291 21.2116 1.07012 16.4706 4.20879 12.1127C6.22959 9.30792 9.10134 7.72229 12.469 7.05896C15.6324 6.43616 18.6865 6.81143 21.5538 8.32042C24.7031 9.9774 26.7309 12.5981 27.8955 15.9209C28.1368 16.6097 27.7642 17.34 27.0921 17.5779C26.3926 17.8254 25.6571 17.4774 25.3981 16.7392C24.8969 15.3113 24.1701 14.0164 23.1342 12.9117C20.8147 10.4399 17.9544 9.19516 14.5638 9.38455C11.4305 9.55897 8.72343 10.7385 6.67797 13.2059C5.31521 14.8488 4.55146 16.7595 4.31274 18.8684C4.00354 21.6054 4.55322 24.1635 6.09745 26.4636C7.71832 28.8781 10.0281 30.2673 12.8478 30.8487C14.193 31.1262 15.5452 31.1914 16.907 30.95C17.6761 30.8135 18.3183 31.2812 18.4486 32.0353C18.5764 32.7682 18.0963 33.4262 17.3237 33.5504C16.8049 33.6332 16.2816 33.6887 15.761 33.7557C15.2791 33.7566 14.7955 33.7566 14.3119 33.7566Z" fill="black"/>
<path d="M23.8735 33.7562C23.5687 33.6707 23.2551 33.6082 22.96 33.4972C21.4862 32.9466 20.5851 31.6473 20.5824 30.0784C20.5789 27.7713 20.5762 25.4651 20.5833 23.158C20.5912 20.3215 23.6506 18.5773 26.0978 20.0149C28.0472 21.1601 29.9852 22.3238 31.9329 23.4698C32.9107 24.0451 33.5088 24.8758 33.7079 25.9936C33.7149 26.0333 33.7449 26.0685 33.7643 26.1064C33.7643 26.4358 33.7643 26.7662 33.7643 27.0956C33.7467 27.1353 33.7202 27.174 33.7132 27.2154C33.522 28.3624 32.9072 29.2072 31.9064 29.7912C30.8731 30.3937 29.8645 31.0412 28.8162 31.6156C27.4684 32.3546 26.266 33.3747 24.7306 33.7562C24.4452 33.7562 24.1589 33.7562 23.8735 33.7562ZM23.219 26.6244C23.219 27.722 23.226 28.8204 23.2154 29.9181C23.211 30.3541 23.3176 30.7258 23.7114 30.9593C24.1166 31.1998 24.5024 31.1161 24.89 30.8853C26.7549 29.7727 28.626 28.6689 30.4917 27.5581C31.3665 27.0375 31.3656 26.2033 30.49 25.6827C28.6233 24.5727 26.7523 23.4689 24.8874 22.3555C24.5104 22.13 24.1351 22.0551 23.7378 22.2727C23.3352 22.4938 23.2119 22.8567 23.2154 23.2963C23.2251 24.4062 23.219 25.5153 23.219 26.6244Z" fill="#0062BD"/>
<path d="M16.4271 15.8509C16.4271 16.7397 16.4191 17.6295 16.435 18.5183C16.4376 18.6751 16.5011 18.8618 16.6015 18.9808C17.2904 19.8018 17.2428 20.9901 16.4738 21.7221C15.7135 22.4454 14.512 22.4498 13.7588 21.7318C12.9757 20.9848 12.9281 19.7859 13.6328 18.964C13.7262 18.8548 13.7826 18.676 13.7835 18.5297C13.7932 16.7626 13.7844 14.9947 13.7914 13.2276C13.7949 12.2462 14.689 11.6049 15.5726 11.9344C16.0906 12.1282 16.4209 12.6012 16.4244 13.1835C16.4306 14.0724 16.4262 14.9621 16.4262 15.8509C16.4262 15.8509 16.4262 15.8509 16.4271 15.8509Z" fill="#0062BD"/>
<path d="M14.9225 2.23709e-05C17.1397 -0.00702487 18.8407 1.65172 18.883 3.86103C18.8971 4.61068 18.4153 5.16389 17.6956 5.22203C16.9415 5.28281 16.3804 4.83003 16.2729 4.07245C16.2509 3.92005 16.2447 3.76501 16.2121 3.61526C16.08 3.01184 15.5567 2.61895 14.9084 2.62776C14.2688 2.63657 13.7623 3.055 13.6513 3.67076C13.6275 3.80025 13.6161 3.9315 13.6002 4.06276C13.5104 4.80008 12.9422 5.28722 12.2278 5.23965C11.4852 5.19032 10.9725 4.63447 10.9831 3.88834C11.0121 1.68431 12.7132 0.00706962 14.9225 2.23709e-05Z" fill="black"/>
<path d="M4.44057 4.99023C5.1638 5.01666 5.58135 5.25715 5.81567 5.76455C6.05527 6.28517 5.97423 6.77935 5.59544 7.20043C5.27303 7.55895 4.91891 7.88929 4.578 8.23109C3.81777 8.99131 3.06636 9.76122 2.29381 10.5091C1.50187 11.2755 0.314412 10.946 0.0430931 9.89952C-0.0749482 9.44409 0.0545449 9.03888 0.369909 8.71735C1.48602 7.58186 2.60565 6.45254 3.74994 5.347C3.96224 5.14263 4.29522 5.06247 4.44057 4.99023Z" fill="#0062BD"/>
<path d="M30.0925 9.38882C30.0485 10.1147 29.7974 10.5261 29.2865 10.7507C28.7738 10.9762 28.2893 10.8925 27.8815 10.5181C27.4533 10.1253 27.0525 9.70242 26.6411 9.29104C25.9426 8.59336 25.2335 7.90537 24.5508 7.19184C23.8698 6.48007 24.0759 5.41946 24.956 5.03802C25.4722 4.81427 25.9637 4.90413 26.3575 5.28996C27.4947 6.40255 28.6232 7.52394 29.727 8.67C29.9375 8.88934 30.0168 9.23466 30.0925 9.38882Z" fill="#0062BD"/>
</svg>
