<svg width="15" height="17" viewBox="0 0 15 17" fill="none" xmlns="http://www.w3.org/2000/svg">
<path d="M3.12457 16.9994C2.92915 16.958 2.73045 16.9285 2.53913 16.8732C1.35063 16.5295 0.605823 15.6159 0.553793 14.3688C0.499714 13.075 0.641465 11.7993 1.1335 10.5874C1.45141 9.80493 1.91231 9.12854 2.68538 8.71476C3.16226 8.45953 3.67395 8.33908 4.20859 8.34932C4.37738 8.3526 4.55478 8.43781 4.70882 8.5218C4.95709 8.65659 5.18692 8.82456 5.42782 8.97327C6.82853 9.83853 8.23006 9.8373 9.62955 8.97041C9.82415 8.84996 10.0224 8.73361 10.2047 8.59677C10.5399 8.34564 10.9082 8.3145 11.3064 8.37267C12.3925 8.53245 13.1598 9.12731 13.6772 10.0766C14.139 10.9238 14.3471 11.8443 14.4393 12.7928C14.4868 13.2799 14.5093 13.7715 14.5032 14.2607C14.4855 15.7216 13.4826 16.8089 12.0295 16.9691C11.9934 16.9732 11.9586 16.9892 11.923 16.9998C8.99085 16.9994 6.05791 16.9994 3.12457 16.9994ZM7.5254 16.0182C7.5254 16.0174 7.5254 16.0166 7.5254 16.0158C8.90973 16.0158 10.2945 16.0281 11.6788 16.0121C12.8292 15.999 13.5355 15.2652 13.5261 14.1161C13.5224 13.6806 13.5048 13.2434 13.4568 12.8108C13.37 12.034 13.209 11.2741 12.8325 10.576C12.442 9.85205 11.8763 9.38337 11.0241 9.33666C10.9487 9.33257 10.8619 9.35428 10.7967 9.39238C10.5858 9.51652 10.3834 9.6554 10.1757 9.78568C8.62787 10.7562 7.02518 10.8791 5.37702 10.0684C4.99273 9.8795 4.64204 9.62303 4.27414 9.40057C4.22007 9.3678 4.15533 9.32765 4.09757 9.33011C3.56826 9.35387 3.09343 9.5202 2.71324 9.90285C2.39738 10.2208 2.17697 10.6026 2.01596 11.0168C1.60464 12.0766 1.50549 13.1865 1.53253 14.3086C1.54728 14.9219 1.81235 15.4234 2.35682 15.7454C2.7198 15.9596 3.1217 16.0178 3.53589 16.0174C4.86573 16.0178 6.19557 16.0182 7.5254 16.0182Z" fill="#0062BD"/>
<path d="M11.456 4.28162C11.463 6.50662 9.67388 8.30063 7.4288 8.31988C5.21568 8.33873 3.39873 6.53038 3.38726 4.29719C3.3762 2.06317 5.18332 0.251134 7.42184 0.251953C9.65585 0.252773 11.449 2.04392 11.456 4.28162ZM7.42102 7.33869C9.11384 7.33992 10.4732 5.98099 10.4748 4.28612C10.4769 2.59249 9.11793 1.23397 7.42225 1.23315C5.72615 1.23233 4.36927 2.58839 4.36886 4.28489C4.36845 5.97935 5.72574 7.33746 7.42102 7.33869Z" fill="#0062BD"/>
</svg>
